{
copyright = "Copyright (c) 2015, Cadson Demak (info@cadsondemak.com)";
customParameters = (
{
name = vendorID;
value = CDK;
},
{
name = description;
value = "Copyright (c) 2015, Cadson Demak (info@cadsondemak.com)";
},
{
name = license;

glyphs = (
{
glyphname = A;
lastChange = "2015-12-01 04:41:26 +0000";
layers = (
{
layerId = "EF7A456C-05AE-460A-9046-2BAC18FBC939";
name = Bold;
paths = (
{
closed = 1;
nodes = (
"209 0 LINE",
"279 122 LINE",
"487 122 LINE",
"507 0 LINE",
"745 0 LINE",
"613 699 LINE",
"389 699 LINE",
"-39 0 LINE"
);
},
{
closed = 1;
nodes = (
"455 457 LINE",
"472 296 LINE",
"368 296 LINE"
);
}
);
width = 814;
}
);
leftKerningGroup = A;
note = A;
rightKerningGroup = A;
unicode = 0041;
},
{
glyphname = Aacute;
lastChange = "2015-12-01 04:41:26 +0000";
layers = (
{
layerId = "EF7A456C-05AE-460A-9046-2BAC18FBC939";
name = Bold;
paths = (
{
closed = 1;
nodes = (
"209 0 LINE",
"279 122 LINE",
"487 122 LINE",
"507 0 LINE",
"745 0 LINE",
"613 699 LINE",
"389 699 LINE",
"-39 0 LINE"
);
},
{
closed = 1;
nodes = (
"455 457 LINE",
"472 296 LINE",
"368 296 LINE"
);
},
{
closed = 1;
nodes = (
"591 742 LINE",
"724 923 LINE",
"507 923 LINE",
"401 742 LINE"
);
}
);
width = 814;
}
);
leftKerningGroup = A;
note = Aacute;
rightKerningGroup = A;
unicode = 00C1;
},
{
glyphname = Abreve;
lastChange = "2015-12-01 04:41:26 +0000";
layers = (
{
layerId = "EF7A456C-05AE-460A-9046-2BAC18FBC939";
name = Bold;
paths = (
{
closed = 1;
nodes = (
"209 0 LINE",
"279 122 LINE",
"487 122 LINE",
"507 0 LINE",
"745 0 LINE",
"613 699 LINE",
"389 699 LINE",
"-39 0 LINE"
);
},
{
closed = 1;
nodes = (
"455 457 LINE",
"472 296 LINE",
"368 296 LINE"
);
},
{
closed = 1;
nodes = (
"623 742 OFFCURVE",
"711 816 OFFCURVE",
"736 937 CURVE",
"565 937 LINE",
"557 898 OFFCURVE",
"540 879 OFFCURVE",
"515 879 CURVE SMOOTH",
"490 879 OFFCURVE",
"481 898 OFFCURVE",
"489 937 CURVE",
"327 937 LINE",
"302 816 OFFCURVE",
"358 742 OFFCURVE",
"490 742 CURVE SMOOTH"
);
}
);
width = 814;
}
);
leftKerningGroup = A;
note = Abreve;
rightKerningGroup = A;
unicode = 0102;
},
{
glyphname = Abreveacute;
lastChange = "2015-12-01 04:41:27 +0000";
layers = (
{
layerId = "EF7A456C-05AE-460A-9046-2BAC18FBC939";
name = Bold;
paths = (
{
closed = 1;
nodes = (
"209 0 LINE",
"279 122 LINE",
"487 122 LINE",
"507 0 LINE",
"745 0 LINE",
"613 699 LINE",
"389 699 LINE",
"-39 0 LINE"
);
},
{
closed = 1;
nodes = (
"455 457 LINE",
"472 296 LINE",
"368 296 LINE"
);
},
{
closed = 1;
nodes = (
"622 742 OFFCURVE",
"714 804 OFFCURVE",
"735 904 CURVE",
"592 904 LINE",
"585 872 OFFCURVE",
"565 851 OFFCURVE",
"530 851 CURVE SMOOTH",
"495 851 OFFCURVE",
"483 872 OFFCURVE",
"490 904 CURVE",
"356 904 LINE",
"335 804 OFFCURVE",
"402 742 OFFCURVE",
"512 742 CURVE SMOOTH"
);
},
{
closed = 1;
nodes = (
"628 921 LINE",
"736 1063 LINE",
"551 1063 LINE",
"467 921 LINE"
);
}
);
width = 814;
}
);
leftKerningGroup = A;
note = Abreveacute;
rightKerningGroup = A;
unicode = 1EAE;
},
{
glyphname = Abrevedotbelow;
lastChange = "2015-12-01 04:41:26 +0000";
layers = (
{
layerId = "EF7A456C-05AE-460A-9046-2BAC18FBC939";
name = Bold;
paths = (
{
closed = 1;
nodes = (
"209 0 LINE",
"279 122 LINE",
"487 122 LINE",
"507 0 LINE",
"745 0 LINE",
"613 699 LINE",
"389 699 LINE",
"-39 0 LINE"
);
},
{
closed = 1;
nodes = (
"455 457 LINE",
"472 296 LINE",
"368 296 LINE"
);
},
{
closed = 1;
nodes = (
"624 742 OFFCURVE",
"712 816 OFFCURVE",
"737 937 CURVE",
"566 937 LINE",
"558 898 OFFCURVE",
"541 879 OFFCURVE",
"516 879 CURVE SMOOTH",
"491 879 OFFCURVE",
"482 898 OFFCURVE",
"490 937 CURVE",
"328 937 LINE",
"303 816 OFFCURVE",
"359 742 OFFCURVE",
"491 742 CURVE SMOOTH"
);
},
{
closed = 1;
nodes = (
"356 -220 OFFCURVE",
"403 -182 OFFCURVE",
"413 -133 CURVE SMOOTH",
"424 -84 OFFCURVE",
"393 -45 OFFCURVE",
"346 -45 CURVE SMOOTH",
"299 -45 OFFCURVE",
"250 -84 OFFCURVE",
"239 -133 CURVE SMOOTH",
"229 -182 OFFCURVE",
"262 -220 OFFCURVE",
"309 -220 CURVE SMOOTH"
);
}
);
width = 814;
}
);
leftKerningGroup = A;
note = Abrevedotbelow;
rightKerningGroup = A;
unicode = 1EB6;
},
{
glyphname = Abrevegrave;
lastChange = "2015-12-01 04:41:27 +0000";
layers = (
{
layerId = "EF7A456C-05AE-460A-9046-2BAC18FBC939";
name = Bold;
paths = (
{
closed = 1;
nodes = (
"209 0 LINE",
"279 122 LINE",
"487 122 LINE",
"507 0 LINE",
"745 0 LINE",
"613 699 LINE",
"389 699 LINE",
"-39 0 LINE"
);
},
{
closed = 1;
nodes = (
"455 457 LINE",
"472 296 LINE",
"368 296 LINE"
);
},
{
closed = 1;
nodes = (
"621 742 OFFCURVE",
"713 804 OFFCURVE",
"734 904 CURVE",
"591 904 LINE",
"584 872 OFFCURVE",
"564 851 OFFCURVE",
"529 851 CURVE SMOOTH",
"494 851 OFFCURVE",
"482 872 OFFCURVE",
"489 904 CURVE",
"355 904 LINE",
"334 804 OFFCURVE",
"401 742 OFFCURVE",
"511 742 CURVE SMOOTH"
);
},
{
closed = 1;
nodes = (
"632 921 LINE",
"608 1063 LINE",
"422 1063 LINE",
"471 921 LINE"
);
}
);
width = 814;
}
);
leftKerningGroup = A;
note = Abrevegrave;
rightKerningGroup = A;
unicode = 1EB0;
},
{
glyphname = Abrevehookabove;
lastChange = "2015-12-01 04:41:26 +0000";
layers = (
{
layerId = "EF7A456C-05AE-460A-9046-2BAC18FBC939";
name = Bold;
paths = (
{
closed = 1;
nodes = (
"209 0 LINE",
"279 122 LINE",
"487 122 LINE",
"507 0 LINE",
"745 0 LINE",
"613 699 LINE",
"389 699 LINE",
"-39 0 LINE"
);
},
{
closed = 1;
nodes = (
"455 457 LINE",
"472 296 LINE",
"368 296 LINE"
);
},
{
closed = 1;
nodes = (
"622 742 OFFCURVE",
"714 804 OFFCURVE",
"735 904 CURVE",
"592 904 LINE",
"585 872 OFFCURVE",
"565 851 OFFCURVE",
"530 851 CURVE SMOOTH",
"495 851 OFFCURVE",
"483 872 OFFCURVE",
"490 904 CURVE",
"356 904 LINE",
"335 804 OFFCURVE",
"402 742 OFFCURVE",
"512 742 CURVE SMOOTH"
);
},
{
closed = 1;
nodes = (
"622 921 LINE",
"626 942 LINE",
"663 954 OFFCURVE",
"690 975 OFFCURVE",
"697 1008 CURVE SMOOTH",
"707 1054 OFFCURVE",
"675 1085 OFFCURVE",
"595 1085 CURVE SMOOTH",
"565 1085 OFFCURVE",
"518 1079 OFFCURVE",
"493 1072 CURVE",
"478 1003 LINE",
"487 1007 OFFCURVE",
"501 1009 OFFCURVE",
"511 1009 CURVE SMOOTH",
"537 1009 OFFCURVE",
"548 1001 OFFCURVE",
"545 989 CURVE",
"542 973 OFFCURVE",
"522 968 OFFCURVE",
"495 968 CURVE",
"485 921 LINE"
);
}
);
width = 814;
}
);
leftKerningGroup = A;
note = Abrevehookabove;
rightKerningGroup = A;
unicode = 1EB2;
},
{
glyphname = Abrevetilde;
lastChange = "2015-12-01 04:41:26 +0000";
layers = (
{
layerId = "EF7A456C-05AE-460A-9046-2BAC18FBC939";
name = Bold;
paths = (
{
closed = 1;
nodes = (
"209 0 LINE",
"279 122 LINE",
"487 122 LINE",
"507 0 LINE",
"745 0 LINE",
"613 699 LINE",
"389 699 LINE",
"-39 0 LINE"
);
},
{
closed = 1;
nodes = (
"455 457 LINE",
"472 296 LINE",
"368 296 LINE"
);
},
{
closed = 1;
nodes = (
"621 742 OFFCURVE",
"713 804 OFFCURVE",
"734 904 CURVE",
"591 904 LINE",
"584 872 OFFCURVE",
"564 851 OFFCURVE",
"529 851 CURVE SMOOTH",
"494 851 OFFCURVE",
"482 872 OFFCURVE",
"489 904 CURVE",
"355 904 LINE",
"334 804 OFFCURVE",
"401 742 OFFCURVE",
"511 742 CURVE SMOOTH"
);
},
{
closed = 1;
nodes = (
"666 919 OFFCURVE",
"698 928 OFFCURVE",
"724 951 CURVE",
"748 1064 LINE",
"717 1037 OFFCURVE",
"685 1025 OFFCURVE",
"653 1025 CURVE SMOOTH",
"600 1025 OFFCURVE",
"551 1065 OFFCURVE",
"496 1065 CURVE SMOOTH",
"459 1065 OFFCURVE",
"427 1056 OFFCURVE",
"402 1033 CURVE",
"378 920 LINE",
"408 947 OFFCURVE",
"441 959 OFFCURVE",
"474 959 CURVE SMOOTH",
"526 959 OFFCURVE",
"571 919 OFFCURVE",
"630 919 CURVE SMOOTH"
);
}
);
width = 814;
}
);
leftKerningGroup = A;
note = Abrevetilde;
rightKerningGroup = A;
unicode = 1EB4;
},
{
glyphname = Acaron;
lastChange = "2015-12-01 04:41:27 +0000";
layers = (
{
layerId = "EF7A456C-05AE-460A-9046-2BAC18FBC939";
name = Bold;
paths = (
{
closed = 1;
nodes = (
"209 0 LINE",
"279 122 LINE",
"487 122 LINE",
"507 0 LINE",
"745 0 LINE",
"613 699 LINE",
"389 699 LINE",
"-39 0 LINE"
);
},
{
closed = 1;
nodes = (
"455 457 LINE",
"472 296 LINE",
"368 296 LINE"
);
},
{
closed = 1;
nodes = (
"591 742 LINE",
"796 933 LINE",
"585 933 LINE",
"509 853 LINE",
"467 933 LINE",
"265 933 LINE",
"389 742 LINE"
);
}
);
width = 814;
}
);
leftKerningGroup = A;
note = Acaron;
rightKerningGroup = A;
unicode = 01CD;
},
{
glyphname = Acircumflex;
lastChange = "2015-12-01 04:41:28 +0000";
layers = (
{
layerId = "EF7A456C-05AE-460A-9046-2BAC18FBC939";
name = Bold;
paths = (
{
closed = 1;
nodes = (
"209 0 LINE",
"279 122 LINE",
"487 122 LINE",
"507 0 LINE",
"745 0 LINE",
"613 699 LINE",
"389 699 LINE",
"-39 0 LINE"
);
},
{
closed = 1;
nodes = (
"455 457 LINE",
"472 296 LINE",
"368 296 LINE"
);
},
{
closed = 1;
nodes = (
"435 742 LINE",
"511 822 LINE",
"553 742 LINE",
"756 742 LINE",
"631 933 LINE",
"429 933 LINE",
"225 742 LINE"
);
}
);
width = 814;
}
);
leftKerningGroup = A;
note = Acircumflex;
rightKerningGroup = A;
unicode = 00C2;
},
{
glyphname = Acircumflexacute;
lastChange = "2015-12-01 04:41:26 +0000";
layers = (
{
layerId = "EF7A456C-05AE-460A-9046-2BAC18FBC939";
name = Bold;
paths = (
{
closed = 1;
nodes = (
"209 0 LINE",
"279 122 LINE",
"487 122 LINE",
"507 0 LINE",
"745 0 LINE",
"613 699 LINE",
"389 699 LINE",
"-39 0 LINE"
);
},
{
closed = 1;
nodes = (
"455 457 LINE",
"472 296 LINE",
"368 296 LINE"
);
},
{
closed = 1;
nodes = (
"456 742 LINE",
"510 792 LINE",
"544 742 LINE",
"735 742 LINE",
"605 903 LINE",
"463 903 LINE",
"264 742 LINE"
);
},
{
closed = 1;
nodes = (
"848 875 LINE",
"964 1024 LINE",
"757 1024 LINE",
"668 875 LINE"
);
}
);
width = 814;
}
);
leftKerningGroup = A;
note = Acircumflexacute;
rightKerningGroup = A;
unicode = 1EA4;
},
{
glyphname = Acircumflexdotbelow;
lastChange = "2015-12-01 04:41:44 +0000";
layers = (
{
layerId = "EF7A456C-05AE-460A-9046-2BAC18FBC939";
name = Bold;
paths = (
{
closed = 1;
nodes = (
"209 0 LINE",
"279 122 LINE",
"487 122 LINE",
"507 0 LINE",
"745 0 LINE",
"613 699 LINE",
"389 699 LINE",
"-39 0 LINE"
);
},
{
closed = 1;
nodes = (
"455 457 LINE",
"472 296 LINE",
"368 296 LINE"
);
},
{
closed = 1;
nodes = (
"435 742 LINE",
"511 822 LINE",
"553 742 LINE",
"756 742 LINE",
"631 933 LINE",
"429 933 LINE",
"225 742 LINE"
);
},
{
closed = 1;
nodes = (
"356 -220 OFFCURVE",
"403 -182 OFFCURVE",
"413 -133 CURVE SMOOTH",
"424 -84 OFFCURVE",
"393 -45 OFFCURVE",
"346 -45 CURVE SMOOTH",
"299 -45 OFFCURVE",
"250 -84 OFFCURVE",
"239 -133 CURVE SMOOTH",
"229 -182 OFFCURVE",
"262 -220 OFFCURVE",
"309 -220 CURVE SMOOTH"
);
}
);
width = 814;
}
);
leftKerningGroup = A;
note = Acircumflexdotbelow;
rightKerningGroup = A;
unicode = 1EAC;
},
{
glyphname = Acircumflexgrave;
lastChange = "2015-12-01 04:41:28 +0000";
layers = (
{
layerId = "EF7A456C-05AE-460A-9046-2BAC18FBC939";
name = Bold;
paths = (
{
closed = 1;
nodes = (
"209 0 LINE",
"279 122 LINE",
"487 122 LINE",
"507 0 LINE",
"745 0 LINE",
"613 699 LINE",
"389 699 LINE",
"-39 0 LINE"
);
},
{
closed = 1;
nodes = (
"455 457 LINE",
"472 296 LINE",
"368 296 LINE"
);
},
{
closed = 1;
nodes = (
"404 875 LINE",
"379 1024 LINE",
"172 1024 LINE",
"224 875 LINE"
);
},
{
closed = 1;
nodes = (
"473 742 LINE",
"527 792 LINE",
"561 742 LINE",
"752 742 LINE",
"621 903 LINE",
"480 903 LINE",
"281 742 LINE"
);
}
);
width = 814;
}
);
leftKerningGroup = A;
note = Acircumflexgrave;
rightKerningGroup = A;
unicode = 1EA6;
},
{
glyphname = Acircumflexhookabove;
lastChange = "2015-12-01 04:41:27 +0000";
layers = (
{
layerId = "EF7A456C-05AE-460A-9046-2BAC18FBC939";
name = Bold;
paths = (
{
closed = 1;
nodes = (
"209 0 LINE",
"279 122 LINE",
"487 122 LINE",
"507 0 LINE",
"745 0 LINE",
"613 699 LINE",
"389 699 LINE",
"-39 0 LINE"
);
},
{
closed = 1;
nodes = (
"455 457 LINE",
"472 296 LINE",
"368 296 LINE"
);
},
{
closed = 1;
nodes = (
"464 742 LINE",
"518 792 LINE",
"552 742 LINE",
"743 742 LINE",
"613 903 LINE",
"471 903 LINE",
"272 742 LINE"
);
},
{
closed = 1;
nodes = (
"798 863 LINE",
"803 889 LINE",
"841 901 OFFCURVE",
"868 922 OFFCURVE",
"875 955 CURVE SMOOTH",
"885 1001 OFFCURVE",
"852 1032 OFFCURVE",
"771 1032 CURVE SMOOTH",
"741 1032 OFFCURVE",
"695 1026 OFFCURVE",
"670 1019 CURVE",
"655 950 LINE",
"664 954 OFFCURVE",
"678 956 OFFCURVE",
"688 956 CURVE SMOOTH",
"714 956 OFFCURVE",
"725 948 OFFCURVE",
"722 936 CURVE",
"719 920 OFFCURVE",
"699 915 OFFCURVE",
"672 915 CURVE",
"661 863 LINE"
);
}
);
width = 814;
}
);
leftKerningGroup = A;
note = Acircumflexhookabove;
rightKerningGroup = A;
unicode = 1EA8;
},
{
glyphname = Acircumflextilde;
lastChange = "2015-12-01 04:41:26 +0000";
layers = (
{
layerId = "EF7A456C-05AE-460A-9046-2BAC18FBC939";
name = Bold;
paths = (
{
closed = 1;
nodes = (
"209 0 LINE",
"279 122 LINE",
"487 122 LINE",
"507 0 LINE",
"745 0 LINE",
"613 699 LINE",
"389 699 LINE",
"-39 0 LINE"
);
},
{
closed = 1;
nodes = (
"455 457 LINE",
"472 296 LINE",
"368 296 LINE"
);
},
{
closed = 1;
nodes = (
"468 742 LINE",
"522 792 LINE",
"556 742 LINE",
"747 742 LINE",
"617 903 LINE",
"475 903 LINE",
"276 742 LINE"
);
},
{
closed = 1;
nodes = (
"678 914 OFFCURVE",
"710 923 OFFCURVE",
"736 946 CURVE",
"760 1059 LINE",
"729 1032 OFFCURVE",
"697 1020 OFFCURVE",
"664 1020 CURVE SMOOTH",
"612 1020 OFFCURVE",
"563 1060 OFFCURVE",
"508 1060 CURVE SMOOTH",
"471 1060 OFFCURVE",
"439 1051 OFFCURVE",
"414 1028 CURVE",
"390 915 LINE",
"420 942 OFFCURVE",
"453 954 OFFCURVE",
"486 954 CURVE SMOOTH",
"538 954 OFFCURVE",
"583 914 OFFCURVE",
"641 914 CURVE SMOOTH"
);
}
);
width = 814;
}
);
leftKerningGroup = A;
note = Acircumflextilde;
rightKerningGroup = A;
unicode = 1EAA;
},
{
glyphname = Adieresis;
lastChange = "2015-12-01 04:41:27 +0000";
layers = (
{
layerId = "EF7A456C-05AE-460A-9046-2BAC18FBC939";
name = Bold;
paths = (
{
closed = 1;
nodes = (
"209 0 LINE",
"279 122 LINE",
"487 122 LINE",
"507 0 LINE",
"745 0 LINE",
"613 699 LINE",
"389 699 LINE",
"-39 0 LINE"
);
},
{
closed = 1;
nodes = (
"455 457 LINE",
"472 296 LINE",
"368 296 LINE"
);
},
{
closed = 1;
nodes = (
"422 742 OFFCURVE",
"469 780 OFFCURVE",
"479 829 CURVE SMOOTH",
"490 878 OFFCURVE",
"459 917 OFFCURVE",
"411 917 CURVE SMOOTH",
"365 917 OFFCURVE",
"316 878 OFFCURVE",
"305 829 CURVE SMOOTH",
"295 780 OFFCURVE",
"328 742 OFFCURVE",
"374 742 CURVE SMOOTH"
);
},
{
closed = 1;
nodes = (
"656 742 OFFCURVE",
"703 780 OFFCURVE",
"713 829 CURVE SMOOTH",
"724 878 OFFCURVE",
"693 917 OFFCURVE",
"646 917 CURVE SMOOTH",
"598 917 OFFCURVE",
"550 878 OFFCURVE",
"539 829 CURVE SMOOTH",
"529 780 OFFCURVE",
"561 742 OFFCURVE",
"609 742 CURVE SMOOTH"
);
}
);
width = 814;
}
);
leftKerningGroup = A;
note = Adieresis;
rightKerningGroup = A;
unicode = 00C4;
},
{
glyphname = Adotbelow;
lastChange = "2015-12-01 04:41:53 +0000";
layers = (
{
layerId = "EF7A456C-05AE-460A-9046-2BAC18FBC939";
name = Bold;
paths = (
{
closed = 1;
nodes = (
"209 0 LINE",
"279 122 LINE",
"487 122 LINE",
"507 0 LINE",
"745 0 LINE",
"613 699 LINE",
"389 699 LINE",
"-39 0 LINE"
);
},
{
closed = 1;
nodes = (
"455 457 LINE",
"472 296 LINE",
"368 296 LINE"
);
},
{
closed = 1;
nodes = (
"228 -182 OFFCURVE",
"261 -220 OFFCURVE",
"308 -220 CURVE SMOOTH",
"355 -220 OFFCURVE",
"402 -182 OFFCURVE",
"412 -133 CURVE SMOOTH",
"423 -84 OFFCURVE",
"392 -45 OFFCURVE",
"345 -45 CURVE SMOOTH",
"298 -45 OFFCURVE",
"249 -84 OFFCURVE",
"238 -133 CURVE SMOOTH"
);
}
);
width = 814;
}
);
leftKerningGroup = A;
note = Adotbelow;
rightKerningGroup = A;
unicode = 1EA0;
},
{
glyphname = Agrave;
lastChange = "2015-12-01 04:41:26 +0000";
layers = (
{
layerId = "EF7A456C-05AE-460A-9046-2BAC18FBC939";
name = Bold;
paths = (
{
closed = 1;
nodes = (
"209 0 LINE",
"279 122 LINE",
"487 122 LINE",
"507 0 LINE",
"745 0 LINE",
"613 699 LINE",
"389 699 LINE",
"-39 0 LINE"
);
},
{
closed = 1;
nodes = (
"455 457 LINE",
"472 296 LINE",
"368 296 LINE"
);
},
{
closed = 1;
nodes = (
"584 742 LINE",
"554 923 LINE",
"337 923 LINE",
"394 742 LINE"
);
}
);
width = 814;
}
);
leftKerningGroup = A;
note = Agrave;
rightKerningGroup = A;
unicode = 00C0;
},
{
glyphname = Ahookabove;
lastChange = "2015-12-01 04:41:27 +0000";
layers = (
{
layerId = "EF7A456C-05AE-460A-9046-2BAC18FBC939";
name = Bold;
paths = (
{
closed = 1;
nodes = (
"209 0 LINE",
"279 122 LINE",
"487 122 LINE",
"507 0 LINE",
"745 0 LINE",
"613 699 LINE",
"389 699 LINE",
"-39 0 LINE"
);
},
{
closed = 1;
nodes = (
"455 457 LINE",
"472 296 LINE",
"368 296 LINE"
);
},
{
closed = 1;
nodes = (
"585 742 LINE",
"593 782 LINE",
"650 798 OFFCURVE",
"693 825 OFFCURVE",
"705 877 CURVE SMOOTH",
"718 940 OFFCURVE",
"669 981 OFFCURVE",
"550 981 CURVE SMOOTH",
"506 981 OFFCURVE",
"441 972 OFFCURVE",
"405 962 CURVE",
"387 877 LINE",
"400 881 OFFCURVE",
"425 886 OFFCURVE",
"445 886 CURVE SMOOTH",
"486 886 OFFCURVE",
"502 876 OFFCURVE",
"498 854 CURVE",
"492 827 OFFCURVE",
"470 816 OFFCURVE",
"414 816 CURVE",
"398 742 LINE"
);
}
);
width = 814;
}
);
leftKerningGroup = A;
note = Ahookabove;
rightKerningGroup = A;
unicode = 1EA2;
},
{
glyphname = Amacron;
lastChange = "2015-12-01 04:41:26 +0000";
layers = (
{
layerId = "EF7A456C-05AE-460A-9046-2BAC18FBC939";
name = Bold;
paths = (
{
closed = 1;
nodes = (
"209 0 LINE",
"279 122 LINE",
"487 122 LINE",
"507 0 LINE",
"745 0 LINE",
"613 699 LINE",
"389 699 LINE",
"-39 0 LINE"
);
},
{
closed = 1;
nodes = (
"455 457 LINE",
"472 296 LINE",
"368 296 LINE"
);
},
{
closed = 1;
nodes = (
"673 742 LINE",
"704 885 LINE",
"338 885 LINE",
"307 742 LINE"
);
}
);
width = 814;
}
);
leftKerningGroup = A;
note = Amacron;
rightKerningGroup = A;
unicode = 0100;
},
{
glyphname = Aogonek;
lastChange = "2015-12-01 04:41:27 +0000";
layers = (
{
layerId = "EF7A456C-05AE-460A-9046-2BAC18FBC939";
name = Bold;
paths = (
{
closed = 1;
nodes = (
"612 -219 OFFCURVE",
"664 -212 OFFCURVE",
"698 -202 CURVE",
"723 -82 LINE",
"705 -90 OFFCURVE",
"687 -95 OFFCURVE",
"671 -95 CURVE SMOOTH",
"654 -95 OFFCURVE",
"647 -86 OFFCURVE",
"650 -72 CURVE SMOOTH",
"656 -45 OFFCURVE",
"682 -26 OFFCURVE",
"745 0 CURVE",
"613 699 LINE",
"389 699 LINE",
"-39 0 LINE",
"209 0 LINE",
"279 122 LINE",
"487 122 LINE",
"507 0 LINE",
"482 -21 OFFCURVE",
"451 -70 OFFCURVE",
"446 -121 CURVE SMOOTH",
"440 -186 OFFCURVE",
"485 -219 OFFCURVE",
"567 -219 CURVE SMOOTH"
);
},
{
closed = 1;
nodes = (
"455 457 LINE",
"472 296 LINE",
"368 296 LINE"
);
}
);
width = 814;
}
);
leftKerningGroup = A;
note = Aogonek;
rightKerningGroup = A;
unicode = 0104;
},
{
glyphname = Aring;
lastChange = "2015-12-01 04:41:26 +0000";
layers = (
{
layerId = "EF7A456C-05AE-460A-9046-2BAC18FBC939";
name = Bold;
paths = (
{
closed = 1;
nodes = (
"209 0 LINE",
"279 122 LINE",
"487 122 LINE",
"507 0 LINE",
"745 0 LINE",
"618 672 LINE",
"645 699 OFFCURVE",
"665 733 OFFCURVE",
"674 772 CURVE SMOOTH",
"693 859 OFFCURVE",
"636 926 OFFCURVE",
"549 926 CURVE SMOOTH",
"457 926 OFFCURVE",
"378 859 OFFCURVE",
"359 772 CURVE SMOOTH",
"351 734 OFFCURVE",
"357 700 OFFCURVE",
"373 673 CURVE",
"-39 0 LINE"
);
},
{
closed = 1;
nodes = (
"455 457 LINE",
"472 296 LINE",
"368 296 LINE"
);
},
{
closed = 1;
nodes = (
"480 731 OFFCURVE",
"470 749 OFFCURVE",
"475 772 CURVE SMOOTH",
"480 795 OFFCURVE",
"502 813 OFFCURVE",
"525 813 CURVE SMOOTH",
"553 813 OFFCURVE",
"562 795 OFFCURVE",
"557 772 CURVE SMOOTH",
"552 749 OFFCURVE",
"530 731 OFFCURVE",
"507 731 CURVE SMOOTH"
);
}
);
width = 814;
}
);
leftKerningGroup = A;
note = Aring;
rightKerningGroup = A;
unicode = 00C5;
},
{
glyphname = Aringacute;
lastChange = "2015-12-01 04:41:27 +0000";
layers = (
{
layerId = "EF7A456C-05AE-460A-9046-2BAC18FBC939";
name = Bold;
paths = (
{
closed = 1;
nodes = (
"209 0 LINE",
"279 122 LINE",
"487 122 LINE",
"507 0 LINE",
"745 0 LINE",
"618 672 LINE",
"645 699 OFFCURVE",
"665 733 OFFCURVE",
"674 772 CURVE SMOOTH",
"693 859 OFFCURVE",
"636 926 OFFCURVE",
"549 926 CURVE SMOOTH",
"457 926 OFFCURVE",
"378 859 OFFCURVE",
"359 772 CURVE SMOOTH",
"351 734 OFFCURVE",
"357 700 OFFCURVE",
"373 673 CURVE",
"-39 0 LINE"
);
},
{
closed = 1;
nodes = (
"455 457 LINE",
"472 296 LINE",
"368 296 LINE"
);
},
{
closed = 1;
nodes = (
"480 731 OFFCURVE",
"470 749 OFFCURVE",
"475 772 CURVE SMOOTH",
"480 795 OFFCURVE",
"502 813 OFFCURVE",
"525 813 CURVE SMOOTH",
"553 813 OFFCURVE",
"562 795 OFFCURVE",
"557 772 CURVE SMOOTH",
"552 749 OFFCURVE",
"530 731 OFFCURVE",
"507 731 CURVE SMOOTH"
);
},
{
closed = 1;
nodes = (
"635 946 LINE",
"768 1091 LINE",
"551 1091 LINE",
"445 946 LINE"
);
}
);
width = 814;
}
);
leftKerningGroup = A;
note = Aringacute;
rightKerningGroup = A;
unicode = 01FA;
},
{
glyphname = Atilde;
lastChange = "2015-12-01 04:41:27 +0000";
layers = (
{
layerId = "EF7A456C-05AE-460A-9046-2BAC18FBC939";
name = Bold;
paths = (
{
closed = 1;
nodes = (
"209 0 LINE",
"279 122 LINE",
"487 122 LINE",
"507 0 LINE",
"745 0 LINE",
"613 699 LINE",
"389 699 LINE",
"-39 0 LINE"
);
},
{
closed = 1;
nodes = (
"455 457 LINE",
"472 296 LINE",
"368 296 LINE"
);
},
{
closed = 1;
nodes = (
"638 742 OFFCURVE",
"678 753 OFFCURVE",
"710 782 CURVE",
"742 935 LINE",
"704 901 OFFCURVE",
"665 886 OFFCURVE",
"623 886 CURVE SMOOTH",
"558 886 OFFCURVE",
"498 936 OFFCURVE",
"430 936 CURVE SMOOTH",
"384 936 OFFCURVE",
"343 925 OFFCURVE",
"311 896 CURVE",
"279 743 LINE",
"317 777 OFFCURVE",
"357 792 OFFCURVE",
"399 792 CURVE SMOOTH",
"463 792 OFFCURVE",
"519 742 OFFCURVE",
"592 742 CURVE SMOOTH"
);
}
);
width = 814;
}
);
leftKerningGroup = A;
note = Atilde;
rightKerningGroup = A;
unicode = 00C3;
},
{
glyphname = AE;
lastChange = "2015-12-01 04:42:10 +0000";
layers = (
{
layerId = "EF7A456C-05AE-460A-9046-2BAC18FBC939";
name = Bold;
paths = (
{
closed = 1;
nodes = (
"204 0 LINE",
"271 122 LINE",
"383 122 LINE",
"358 0 LINE",
"851 0 LINE",
"893 199 LINE",
"622 199 LINE",
"635 260 LINE",
"824 260 LINE",
"862 439 LINE",
"673 439 LINE",
"686 500 LINE",
"957 500 LINE",
"999 699 LINE",
"389 699 LINE",
"-39 0 LINE"
);
},
{
closed = 1;
nodes = (
"464 500 LINE",
"421 300 LINE",
"365 300 LINE"
);
}
);
width = 920;
}
);
leftKerningGroup = A;
note = AE;
rightKerningGroup = E;
unicode = 00C6;
},
{
glyphname = AEacute;
lastChange = "2015-12-01 04:41:27 +0000";
layers = (
{
layerId = "EF7A456C-05AE-460A-9046-2BAC18FBC939";
name = Bold;
paths = (
{
closed = 1;
nodes = (
"204 0 LINE",
"271 122 LINE",
"383 122 LINE",
"358 0 LINE",
"851 0 LINE",
"893 199 LINE",
"622 199 LINE",
"635 260 LINE",
"824 260 LINE",
"862 439 LINE",
"673 439 LINE",
"686 500 LINE",
"957 500 LINE",
"999 699 LINE",
"389 699 LINE",
"-39 0 LINE"
);
},
{
closed = 1;
nodes = (
"464 500 LINE",
"421 300 LINE",
"365 300 LINE"
);
},
{
closed = 1;
nodes = (
"716 742 LINE",
"849 923 LINE",
"632 923 LINE",
"526 742 LINE"
);
}
);
width = 920;
}
);
leftKerningGroup = A;
note = AEacute;
rightKerningGroup = E;
unicode = 01FC;
},
{
glyphname = B;
lastChange = "2015-12-01 04:41:26 +0000";
layers = (
{
layerId = "EF7A456C-05AE-460A-9046-2BAC18FBC939";
name = Bold;
paths = (
{
closed = 1;
nodes = (
"373 0 LINE SMOOTH",
"503 0 OFFCURVE",
"628 81 OFFCURVE",
"657 218 CURVE SMOOTH",
"673 292 OFFCURVE",
"657 336 OFFCURVE",
"600 367 CURVE",
"652 399 OFFCURVE",
"686 451 OFFCURVE",
"696 502 CURVE SMOOTH",
"720 624 OFFCURVE",
"641 699 OFFCURVE",
"505 699 CURVE SMOOTH",
"129 699 LINE",
"-19 0 LINE"
);
},
{
closed = 1;
nodes = (
"270 279 LINE",
"361 279 LINE SMOOTH",
"410 279 OFFCURVE",
"425 259 OFFCURVE",
"416 219 CURVE SMOOTH",
"407 178 OFFCURVE",
"385 160 OFFCURVE",
"336 160 CURVE SMOOTH",
"245 160 LINE"
);
},
{
closed = 1;
nodes = (
"325 539 LINE",
"403 539 LINE SMOOTH",
"443 539 OFFCURVE",
"460 525 OFFCURVE",
"452 488 CURVE SMOOTH",
"444 449 OFFCURVE",
"421 434 OFFCURVE",
"381 434 CURVE SMOOTH",
"303 434 LINE"
);
}
);
width = 680;
}
);
note = B;
unicode = 0042;
},
{
glyphname = C;
lastChange = "2015-12-01 04:41:26 +0000";
layers = (
{
layerId = "EF7A456C-05AE-460A-9046-2BAC18FBC939";
name = Bold;
paths = (
{
closed = 1;
nodes = (
"445 -15 OFFCURVE",
"533 4 OFFCURVE",
"610 43 CURVE",
"657 266 LINE",
"582 223 OFFCURVE",
"506 203 OFFCURVE",
"412 203 CURVE SMOOTH",
"292 203 OFFCURVE",
"255 251 OFFCURVE",
"276 349 CURVE SMOOTH",
"296 446 OFFCURVE",
"373 495 OFFCURVE",
"474 495 CURVE SMOOTH",
"568 495 OFFCURVE",
"635 478 OFFCURVE",
"685 435 CURVE",
"733 659 LINE",
"673 698 OFFCURVE",
"600 714 OFFCURVE",
"499 714 CURVE SMOOTH",
"248 714 OFFCURVE",
"83 577 OFFCURVE",
"35 349 CURVE SMOOTH",
"-14 122 OFFCURVE",
"127 -15 OFFCURVE",
"344 -15 CURVE SMOOTH"
);
}
);
width = 670;
}
);
leftKerningGroup = C;
note = C;
rightKerningGroup = C;
unicode = 0043;
},
{
glyphname = Cacute;
lastChange = "2015-12-01 04:41:27 +0000";
layers = (
{
layerId = "EF7A456C-05AE-460A-9046-2BAC18FBC939";
name = Bold;
paths = (
{
closed = 1;
nodes = (
"445 -15 OFFCURVE",
"533 4 OFFCURVE",
"610 43 CURVE",
"657 266 LINE",
"582 223 OFFCURVE",
"506 203 OFFCURVE",
"412 203 CURVE SMOOTH",
"292 203 OFFCURVE",
"255 251 OFFCURVE",
"276 349 CURVE SMOOTH",
"296 446 OFFCURVE",
"373 495 OFFCURVE",
"474 495 CURVE SMOOTH",
"568 495 OFFCURVE",
"635 478 OFFCURVE",
"685 435 CURVE",
"733 659 LINE",
"673 698 OFFCURVE",
"600 714 OFFCURVE",
"499 714 CURVE SMOOTH",
"248 714 OFFCURVE",
"83 577 OFFCURVE",
"35 349 CURVE SMOOTH",
"-14 122 OFFCURVE",
"127 -15 OFFCURVE",
"344 -15 CURVE SMOOTH"
);
},
{
closed = 1;
nodes = (
"578 742 LINE",
"711 923 LINE",
"494 923 LINE",
"388 742 LINE"
);
}
);
width = 670;
}
);
leftKerningGroup = C;
note = Cacute;
rightKerningGroup = C;
unicode = 0106;
},
{
glyphname = Ccaron;
lastChange = "2015-12-01 04:41:28 +0000";
layers = (
{
layerId = "EF7A456C-05AE-460A-9046-2BAC18FBC939";
name = Bold;
paths = (
{
closed = 1;
nodes = (
"445 -15 OFFCURVE",
"533 4 OFFCURVE",
"610 43 CURVE",
"657 266 LINE",
"582 223 OFFCURVE",
"506 203 OFFCURVE",
"412 203 CURVE SMOOTH",
"292 203 OFFCURVE",
"255 251 OFFCURVE",
"276 349 CURVE SMOOTH",
"296 446 OFFCURVE",
"373 495 OFFCURVE",
"474 495 CURVE SMOOTH",
"568 495 OFFCURVE",
"635 478 OFFCURVE",
"685 435 CURVE",
"733 659 LINE",
"673 698 OFFCURVE",
"600 714 OFFCURVE",
"499 714 CURVE SMOOTH",
"248 714 OFFCURVE",
"83 577 OFFCURVE",
"35 349 CURVE SMOOTH",
"-14 122 OFFCURVE",
"127 -15 OFFCURVE",
"344 -15 CURVE SMOOTH"
);
},
{
closed = 1;
nodes = (
"586 742 LINE",
"791 933 LINE",
"580 933 LINE",
"504 853 LINE",
"462 933 LINE",
"260 933 LINE",
"384 742 LINE"
);
}
);
width = 670;
}
);
leftKerningGroup = C;
note = Ccaron;
rightKerningGroup = C;
unicode = 010C;
},
{
glyphname = Ccedilla;
lastChange = "2015-12-01 04:41:26 +0000";
layers = (
{
layerId = "EF7A456C-05AE-460A-9046-2BAC18FBC939";
name = Bold;
paths = (
{
closed = 1;
nodes = (
"403 -248 OFFCURVE",
"458 -195 OFFCURVE",
"470 -137 CURVE SMOOTH",
"481 -88 OFFCURVE",
"451 -57 OFFCURVE",
"395 -49 CURVE",
"419 -11 LINE",
"489 -4 OFFCURVE",
"552 14 OFFCURVE",
"610 43 CURVE",
"657 266 LINE",
"582 223 OFFCURVE",
"506 203 OFFCURVE",
"412 203 CURVE SMOOTH",
"292 203 OFFCURVE",
"255 251 OFFCURVE",
"276 349 CURVE SMOOTH",
"296 446 OFFCURVE",
"373 495 OFFCURVE",
"474 495 CURVE SMOOTH",
"568 495 OFFCURVE",
"635 478 OFFCURVE",
"685 435 CURVE",
"733 659 LINE",
"673 698 OFFCURVE",
"600 714 OFFCURVE",
"499 714 CURVE SMOOTH",
"248 714 OFFCURVE",
"83 577 OFFCURVE",
"35 349 CURVE SMOOTH",
"-8 151 OFFCURVE",
"93 22 OFFCURVE",
"263 -8 CURVE",
"228 -76 LINE",
"295 -76 OFFCURVE",
"310 -97 OFFCURVE",
"304 -126 CURVE SMOOTH",
"299 -147 OFFCURVE",
"281 -165 OFFCURVE",
"243 -165 CURVE SMOOTH",
"220 -165 OFFCURVE",
"200 -158 OFFCURVE",
"186 -149 CURVE",
"166 -232 LINE",
"188 -241 OFFCURVE",
"227 -248 OFFCURVE",
"281 -248 CURVE SMOOTH"
);
}
);
width = 670;
}
);
leftKerningGroup = C;
note = Ccedilla;
rightKerningGroup = C;
unicode = 00C7;
},
{
glyphname = Ccircumflex;
lastChange = "2015-12-01 04:41:26 +0000";
layers = (
{
layerId = "EF7A456C-05AE-460A-9046-2BAC18FBC939";
name = Bold;
paths = (
{
closed = 1;
nodes = (
"445 -15 OFFCURVE",
"533 4 OFFCURVE",
"610 43 CURVE",
"657 266 LINE",
"582 223 OFFCURVE",
"506 203 OFFCURVE",
"412 203 CURVE SMOOTH",
"292 203 OFFCURVE",
"255 251 OFFCURVE",
"276 349 CURVE SMOOTH",
"296 446 OFFCURVE",
"373 495 OFFCURVE",
"474 495 CURVE SMOOTH",
"568 495 OFFCURVE",
"635 478 OFFCURVE",
"685 435 CURVE",
"733 659 LINE",
"673 698 OFFCURVE",
"600 714 OFFCURVE",
"499 714 CURVE SMOOTH",
"248 714 OFFCURVE",
"83 577 OFFCURVE",
"35 349 CURVE SMOOTH",
"-14 122 OFFCURVE",
"127 -15 OFFCURVE",
"344 -15 CURVE SMOOTH"
);
},
{
closed = 1;
nodes = (
"407 742 LINE",
"483 822 LINE",
"525 742 LINE",
"728 742 LINE",
"603 933 LINE",
"401 933 LINE",
"197 742 LINE"
);
}
);
width = 670;
}
);
leftKerningGroup = C;
note = Ccircumflex;
rightKerningGroup = C;
unicode = 0108;
},
{
glyphname = Cdotaccent;
lastChange = "2015-12-01 04:41:26 +0000";
layers = (
{
layerId = "EF7A456C-05AE-460A-9046-2BAC18FBC939";
name = Bold;
paths = (
{
closed = 1;
nodes = (
"445 -15 OFFCURVE",
"533 4 OFFCURVE",
"610 43 CURVE",
"657 266 LINE",
"582 223 OFFCURVE",
"506 203 OFFCURVE",
"412 203 CURVE SMOOTH",
"292 203 OFFCURVE",
"255 251 OFFCURVE",
"276 349 CURVE SMOOTH",
"296 446 OFFCURVE",
"373 495 OFFCURVE",
"474 495 CURVE SMOOTH",
"568 495 OFFCURVE",
"635 478 OFFCURVE",
"685 435 CURVE",
"733 659 LINE",
"673 698 OFFCURVE",
"600 714 OFFCURVE",
"499 714 CURVE SMOOTH",
"248 714 OFFCURVE",
"83 577 OFFCURVE",
"35 349 CURVE SMOOTH",
"-14 122 OFFCURVE",
"127 -15 OFFCURVE",
"344 -15 CURVE SMOOTH"
);
},
{
closed = 1;
nodes = (
"551 742 OFFCURVE",
"598 780 OFFCURVE",
"608 829 CURVE SMOOTH",
"619 878 OFFCURVE",
"588 917 OFFCURVE",
"540 917 CURVE SMOOTH",
"493 917 OFFCURVE",
"444 878 OFFCURVE",
"433 829 CURVE SMOOTH",
"423 780 OFFCURVE",
"456 742 OFFCURVE",
"503 742 CURVE SMOOTH"
);
}
);
width = 670;
}
);
leftKerningGroup = C;
note = Cdotaccent;
rightKerningGroup = C;
unicode = 010A;
},
{
glyphname = D;
lastChange = "2015-12-01 04:41:28 +0000";
layers = (
{
layerId = "EF7A456C-05AE-460A-9046-2BAC18FBC939";
name = Bold;
paths = (
{
closed = 1;
nodes = (
"249 0 LINE SMOOTH",
"502 0 OFFCURVE",
"663 115 OFFCURVE",
"711 353 CURVE SMOOTH",
"752 557 OFFCURVE",
"616 699 OFFCURVE",
"389 699 CURVE SMOOTH",
"129 699 LINE",
"-19 0 LINE"
);
},
{
closed = 1;
nodes = (
"319 479 LINE",
"366 479 LINE SMOOTH",
"466 479 OFFCURVE",
"487 434 OFFCURVE",
"470 353 CURVE SMOOTH",
"450 261 OFFCURVE",
"402 220 OFFCURVE",
"311 220 CURVE SMOOTH",
"264 220 LINE"
);
}
);
width = 705;
}
);
note = D;
rightKerningGroup = D;
unicode = 0044;
},
{
glyphname = Eth;
lastChange = "2015-12-01 04:41:26 +0000";
layers = (
{
layerId = "EF7A456C-05AE-460A-9046-2BAC18FBC939";
name = Bold;
paths = (
{
closed = 1;
nodes = (
"280 0 LINE SMOOTH",
"533 0 OFFCURVE",
"694 115 OFFCURVE",
"742 353 CURVE SMOOTH",
"783 557 OFFCURVE",
"647 699 OFFCURVE",
"420 699 CURVE SMOOTH",
"160 699 LINE",
"104 433 LINE",
"63 433 LINE",
"27 266 LINE",
"68 266 LINE",
"12 0 LINE"
);
},
{
closed = 1;
nodes = (
"305 266 LINE",
"410 266 LINE",
"446 433 LINE",
"340 433 LINE",
"350 479 LINE",
"397 479 LINE SMOOTH",
"497 479 OFFCURVE",
"518 434 OFFCURVE",
"501 353 CURVE SMOOTH",
"481 261 OFFCURVE",
"433 220 OFFCURVE",
"342 220 CURVE SMOOTH",
"295 220 LINE"
);
}
);
width = 736;
}
);
note = Eth;
rightKerningGroup = D;
unicode = 00D0;
},
{
glyphname = Dcaron;
lastChange = "2015-12-01 04:41:26 +0000";
layers = (
{
layerId = "EF7A456C-05AE-460A-9046-2BAC18FBC939";
name = Bold;
paths = (
{
closed = 1;
nodes = (
"249 0 LINE SMOOTH",
"502 0 OFFCURVE",
"663 115 OFFCURVE",
"711 353 CURVE SMOOTH",
"752 557 OFFCURVE",
"616 699 OFFCURVE",
"389 699 CURVE SMOOTH",
"129 699 LINE",
"-19 0 LINE"
);
},
{
closed = 1;
nodes = (
"319 479 LINE",
"366 479 LINE SMOOTH",
"466 479 OFFCURVE",
"487 434 OFFCURVE",
"470 353 CURVE SMOOTH",
"450 261 OFFCURVE",
"402 220 OFFCURVE",
"311 220 CURVE SMOOTH",
"264 220 LINE"
);
},
{
closed = 1;
nodes = (
"503 742 LINE",
"708 933 LINE",
"497 933 LINE",
"421 853 LINE",
"379 933 LINE",
"177 933 LINE",
"301 742 LINE"
);
}
);
width = 705;
}
);
note = Dcaron;
rightKerningGroup = D;
unicode = 010E;
},
{
glyphname = Dcroat;
lastChange = "2015-12-01 04:41:27 +0000";
layers = (
{
layerId = "EF7A456C-05AE-460A-9046-2BAC18FBC939";
name = Bold;
paths = (
{
closed = 1;
nodes = (
"280 0 LINE SMOOTH",
"533 0 OFFCURVE",
"694 115 OFFCURVE",
"742 353 CURVE SMOOTH",
"783 557 OFFCURVE",
"647 699 OFFCURVE",
"420 699 CURVE SMOOTH",
"160 699 LINE",
"104 433 LINE",
"63 433 LINE",
"27 266 LINE",
"68 266 LINE",
"12 0 LINE"
);
},
{
closed = 1;
nodes = (
"305 266 LINE",
"410 266 LINE",
"446 433 LINE",
"340 433 LINE",
"350 479 LINE",
"397 479 LINE SMOOTH",
"497 479 OFFCURVE",
"518 434 OFFCURVE",
"501 353 CURVE SMOOTH",
"481 261 OFFCURVE",
"433 220 OFFCURVE",
"342 220 CURVE SMOOTH",
"295 220 LINE"
);
}
);
width = 736;
}
);
note = Dcroat;
rightKerningGroup = D;
unicode = 0110;
},
{
glyphname = Ddotbelow;
lastChange = "2015-12-01 04:42:20 +0000";
layers = (
{
layerId = "EF7A456C-05AE-460A-9046-2BAC18FBC939";
name = Bold;
paths = (
{
closed = 1;
nodes = (
"249 0 LINE SMOOTH",
"502 0 OFFCURVE",
"663 115 OFFCURVE",
"711 353 CURVE SMOOTH",
"752 557 OFFCURVE",
"616 699 OFFCURVE",
"389 699 CURVE SMOOTH",
"129 699 LINE",
"-19 0 LINE"
);
},
{
closed = 1;
nodes = (
"319 479 LINE",
"366 479 LINE SMOOTH",
"466 479 OFFCURVE",
"487 434 OFFCURVE",
"470 353 CURVE SMOOTH",
"450 261 OFFCURVE",
"402 220 OFFCURVE",
"311 220 CURVE SMOOTH",
"264 220 LINE"
);
},
{
closed = 1;
nodes = (
"267 -220 OFFCURVE",
"314 -182 OFFCURVE",
"324 -133 CURVE SMOOTH",
"335 -84 OFFCURVE",
"304 -45 OFFCURVE",
"257 -45 CURVE SMOOTH",
"210 -45 OFFCURVE",
"161 -84 OFFCURVE",
"150 -133 CURVE SMOOTH",
"140 -182 OFFCURVE",
"173 -220 OFFCURVE",
"220 -220 CURVE SMOOTH"
);
}
);
width = 705;
}
);
note = Ddotbelow;
rightKerningGroup = D;
unicode = 1E0C;
},
{
glyphname = Dlinebelow;
lastChange = "2015-12-01 04:42:23 +0000";
layers = (
{
layerId = "EF7A456C-05AE-460A-9046-2BAC18FBC939";
name = Bold;
paths = (
{
closed = 1;
nodes = (
"249 0 LINE SMOOTH",
"502 0 OFFCURVE",
"663 115 OFFCURVE",
"711 353 CURVE SMOOTH",
"752 557 OFFCURVE",
"616 699 OFFCURVE",
"389 699 CURVE SMOOTH",
"129 699 LINE",
"-19 0 LINE"
);
},
{
closed = 1;
nodes = (
"319 479 LINE",
"366 479 LINE SMOOTH",
"466 479 OFFCURVE",
"487 434 OFFCURVE",
"470 353 CURVE SMOOTH",
"450 261 OFFCURVE",
"402 220 OFFCURVE",
"311 220 CURVE SMOOTH",
"264 220 LINE"
);
},
{
closed = 1;
nodes = (
"401 -192 LINE",
"431 -49 LINE",
"65 -49 LINE",
"35 -192 LINE"
);
}
);
width = 705;
}
);
note = Dlinebelow;
rightKerningGroup = D;
unicode = 1E0E;
},
{
glyphname = E;
lastChange = "2015-12-01 04:43:08 +0000";
layers = (
{
layerId = "EF7A456C-05AE-460A-9046-2BAC18FBC939";
name = Bold;
paths = (
{
closed = 1;
nodes = (
"499 0 LINE",
"541 199 LINE",
"260 199 LINE",
"273 260 LINE",
"472 260 LINE",
"510 439 LINE",
"311 439 LINE",
"324 500 LINE",
"605 500 LINE",
"647 699 LINE",
"129 699 LINE",
"-19 0 LINE"
);
}
);
width = 568;
}
);
leftKerningGroup = E;
note = E;
rightKerningGroup = E;
unicode = 0045;
},
{
glyphname = Eacute;
lastChange = "2015-12-01 04:43:12 +0000";
layers = (
{
layerId = "EF7A456C-05AE-460A-9046-2BAC18FBC939";
name = Bold;
paths = (
{
closed = 1;
nodes = (
"499 0 LINE",
"541 199 LINE",
"260 199 LINE",
"273 260 LINE",
"472 260 LINE",
"510 439 LINE",
"311 439 LINE",
"324 500 LINE",
"605 500 LINE",
"647 699 LINE",
"129 699 LINE",
"-19 0 LINE"
);
},
{
closed = 1;
nodes = (
"463 742 LINE",
"596 923 LINE",
"379 923 LINE",
"273 742 LINE"
);
}
);
width = 568;
}
);
leftKerningGroup = E;
note = Eacute;
rightKerningGroup = E;
unicode = 00C9;
},
{
glyphname = Ebreve;
lastChange = "2015-12-01 04:41:26 +0000";
layers = (
{
layerId = "EF7A456C-05AE-460A-9046-2BAC18FBC939";
name = Bold;
paths = (
{
closed = 1;
nodes = (
"499 0 LINE",
"541 199 LINE",
"260 199 LINE",
"273 260 LINE",
"472 260 LINE",
"510 439 LINE",
"311 439 LINE",
"324 500 LINE",
"605 500 LINE",
"647 699 LINE",
"129 699 LINE",
"-19 0 LINE"
);
},
{
closed = 1;
nodes = (
"503 742 OFFCURVE",
"591 816 OFFCURVE",
"616 937 CURVE",
"445 937 LINE",
"437 898 OFFCURVE",
"420 879 OFFCURVE",
"395 879 CURVE SMOOTH",
"370 879 OFFCURVE",
"361 898 OFFCURVE",
"369 937 CURVE",
"207 937 LINE",
"182 816 OFFCURVE",
"238 742 OFFCURVE",
"370 742 CURVE SMOOTH"
);
}
);
width = 568;
}
);
leftKerningGroup = E;
note = Ebreve;
rightKerningGroup = E;
unicode = 0114;
},
{
glyphname = Ecaron;
lastChange = "2015-12-01 04:43:32 +0000";
layers = (
{
layerId = "EF7A456C-05AE-460A-9046-2BAC18FBC939";
name = Bold;
paths = (
{
closed = 1;
nodes = (
"499 0 LINE",
"541 199 LINE",
"260 199 LINE",
"273 260 LINE",
"472 260 LINE",
"510 439 LINE",
"311 439 LINE",
"324 500 LINE",
"605 500 LINE",
"647 699 LINE",
"129 699 LINE",
"-19 0 LINE"
);
},
{
closed = 1;
nodes = (
"485 742 LINE",
"690 933 LINE",
"479 933 LINE",
"403 853 LINE",
"361 933 LINE",
"159 933 LINE",
"283 742 LINE"
);
}
);
width = 568;
}
);
leftKerningGroup = E;
note = Ecaron;
rightKerningGroup = E;
unicode = 011A;
},
{
glyphname = Ecircumflex;
lastChange = "2015-12-01 04:43:47 +0000";
layers = (
{
layerId = "EF7A456C-05AE-460A-9046-2BAC18FBC939";
name = Bold;
paths = (
{
closed = 1;
nodes = (
"499 0 LINE",
"541 199 LINE",
"260 199 LINE",
"273 260 LINE",
"472 260 LINE",
"510 439 LINE",
"311 439 LINE",
"324 500 LINE",
"605 500 LINE",
"647 699 LINE",
"129 699 LINE",
"-19 0 LINE"
);
},
{
closed = 1;
nodes = (
"327 732 LINE",
"403 812 LINE",
"445 732 LINE",
"648 732 LINE",
"523 923 LINE",
"321 923 LINE",
"117 732 LINE"
);
}
);
width = 568;
}
);
leftKerningGroup = E;
note = Ecircumflex;
rightKerningGroup = E;
unicode = 00CA;
},
{
glyphname = Ecircumflexacute;
lastChange = "2015-12-01 04:43:52 +0000";
layers = (
{
layerId = "EF7A456C-05AE-460A-9046-2BAC18FBC939";
name = Bold;
paths = (
{
closed = 1;
nodes = (
"499 0 LINE",
"541 199 LINE",
"260 199 LINE",
"273 260 LINE",
"472 260 LINE",
"510 439 LINE",
"311 439 LINE",
"324 500 LINE",
"605 500 LINE",
"647 699 LINE",
"129 699 LINE",
"-19 0 LINE"
);
},
{
closed = 1;
nodes = (
"357 742 LINE",
"411 792 LINE",
"445 742 LINE",
"636 742 LINE",
"506 903 LINE",
"364 903 LINE",
"165 742 LINE"
);
},
{
closed = 1;
nodes = (
"749 875 LINE",
"865 1024 LINE",
"658 1024 LINE",
"569 875 LINE"
);
}
);
width = 568;
}
);
leftKerningGroup = E;
note = Ecircumflexacute;
rightKerningGroup = E;
unicode = 1EBE;
},
{
glyphname = Ecircumflexdotbelow;
lastChange = "2015-12-01 04:44:06 +0000";
layers = (
{
layerId = "EF7A456C-05AE-460A-9046-2BAC18FBC939";
name = Bold;
paths = (
{
closed = 1;
nodes = (
"499 0 LINE",
"541 199 LINE",
"260 199 LINE",
"273 260 LINE",
"472 260 LINE",
"510 439 LINE",
"311 439 LINE",
"324 500 LINE",
"605 500 LINE",
"647 699 LINE",
"129 699 LINE",
"-19 0 LINE"
);
},
{
closed = 1;
nodes = (
"246 -220 OFFCURVE",
"293 -182 OFFCURVE",
"303 -133 CURVE SMOOTH",
"314 -84 OFFCURVE",
"283 -45 OFFCURVE",
"236 -45 CURVE SMOOTH",
"189 -45 OFFCURVE",
"140 -84 OFFCURVE",
"129 -133 CURVE SMOOTH",
"119 -182 OFFCURVE",
"152 -220 OFFCURVE",
"199 -220 CURVE SMOOTH"
);
},
{
closed = 1;
nodes = (
"329 742 LINE",
"405 822 LINE",
"447 742 LINE",
"650 742 LINE",
"525 933 LINE",
"323 933 LINE",
"119 742 LINE"
);
}
);
width = 568;
}
);
leftKerningGroup = E;
note = Ecircumflexdotbelow;
rightKerningGroup = E;
unicode = 1EC6;
},
{
glyphname = Ecircumflexgrave;
lastChange = "2015-12-01 04:44:16 +0000";
layers = (
{
layerId = "EF7A456C-05AE-460A-9046-2BAC18FBC939";
name = Bold;
paths = (
{
closed = 1;
nodes = (
"499 0 LINE",
"541 199 LINE",
"260 199 LINE",
"273 260 LINE",
"472 260 LINE",
"510 439 LINE",
"311 439 LINE",
"324 500 LINE",
"605 500 LINE",
"647 699 LINE",
"129 699 LINE",
"-19 0 LINE"
);
},
{
closed = 1;
nodes = (
"357 742 LINE",
"411 792 LINE",
"445 742 LINE",
"636 742 LINE",
"505 903 LINE",
"364 903 LINE",
"165 742 LINE"
);
},
{
closed = 1;
nodes = (
"288 875 LINE",
"263 1024 LINE",
"56 1024 LINE",
"108 875 LINE"
);
}
);
width = 568;
}
);
leftKerningGroup = E;
note = Ecircumflexgrave;
rightKerningGroup = E;
unicode = 1EC0;
},
{
glyphname = Ecircumflexhookabove;
lastChange = "2015-12-01 04:44:20 +0000";
layers = (
{
layerId = "EF7A456C-05AE-460A-9046-2BAC18FBC939";
name = Bold;
paths = (
{
closed = 1;
nodes = (
"499 0 LINE",
"541 199 LINE",
"260 199 LINE",
"273 260 LINE",
"472 260 LINE",
"510 439 LINE",
"311 439 LINE",
"324 500 LINE",
"605 500 LINE",
"647 699 LINE",
"129 699 LINE",
"-19 0 LINE"
);
},
{
closed = 1;
nodes = (
"341 742 LINE",
"395 792 LINE",
"429 742 LINE",
"620 742 LINE",
"490 903 LINE",
"348 903 LINE",
"149 742 LINE"
);
},
{
closed = 1;
nodes = (
"675 863 LINE",
"680 889 LINE",
"718 901 OFFCURVE",
"745 922 OFFCURVE",
"752 955 CURVE SMOOTH",
"762 1001 OFFCURVE",
"729 1032 OFFCURVE",
"648 1032 CURVE SMOOTH",
"618 1032 OFFCURVE",
"572 1026 OFFCURVE",
"547 1019 CURVE",
"532 950 LINE",
"541 954 OFFCURVE",
"555 956 OFFCURVE",
"565 956 CURVE SMOOTH",
"591 956 OFFCURVE",
"602 948 OFFCURVE",
"599 936 CURVE",
"596 920 OFFCURVE",
"576 915 OFFCURVE",
"549 915 CURVE",
"538 863 LINE"
);
}
);
width = 568;
}
);
leftKerningGroup = E;
note = Ecircumflexhookabove;
rightKerningGroup = E;
unicode = 1EC2;
},
{
glyphname = Ecircumflextilde;
lastChange = "2015-12-01 04:44:23 +0000";
layers = (
{
layerId = "EF7A456C-05AE-460A-9046-2BAC18FBC939";
name = Bold;
paths = (
{
closed = 1;
nodes = (
"499 0 LINE",
"541 199 LINE",
"260 199 LINE",
"273 260 LINE",
"472 260 LINE",
"510 439 LINE",
"311 439 LINE",
"324 500 LINE",
"605 500 LINE",
"647 699 LINE",
"129 699 LINE",
"-19 0 LINE"
);
},
{
closed = 1;
nodes = (
"348 742 LINE",
"402 792 LINE",
"436 742 LINE",
"627 742 LINE",
"497 903 LINE",
"355 903 LINE",
"156 742 LINE"
);
},
{
closed = 1;
nodes = (
"558 914 OFFCURVE",
"590 923 OFFCURVE",
"616 946 CURVE",
"640 1059 LINE",
"609 1032 OFFCURVE",
"577 1020 OFFCURVE",
"544 1020 CURVE SMOOTH",
"492 1020 OFFCURVE",
"443 1060 OFFCURVE",
"388 1060 CURVE SMOOTH",
"351 1060 OFFCURVE",
"319 1051 OFFCURVE",
"294 1028 CURVE",
"270 915 LINE",
"300 942 OFFCURVE",
"333 954 OFFCURVE",
"366 954 CURVE SMOOTH",
"418 954 OFFCURVE",
"463 914 OFFCURVE",
"521 914 CURVE SMOOTH"
);
}
);
width = 568;
}
);
leftKerningGroup = E;
note = Ecircumflextilde;
rightKerningGroup = E;
unicode = 1EC4;
},
{
glyphname = Edieresis;
lastChange = "2015-12-01 04:41:26 +0000";
layers = (
{
layerId = "EF7A456C-05AE-460A-9046-2BAC18FBC939";
name = Bold;
paths = (
{
closed = 1;
nodes = (
"499 0 LINE",
"541 199 LINE",
"260 199 LINE",
"273 260 LINE",
"472 260 LINE",
"510 439 LINE",
"311 439 LINE",
"324 500 LINE",
"605 500 LINE",
"647 699 LINE",
"129 699 LINE",
"-19 0 LINE"
);
},
{
closed = 1;
nodes = (
"320 742 OFFCURVE",
"367 780 OFFCURVE",
"377 829 CURVE SMOOTH",
"388 878 OFFCURVE",
"357 917 OFFCURVE",
"309 917 CURVE SMOOTH",
"263 917 OFFCURVE",
"214 878 OFFCURVE",
"203 829 CURVE SMOOTH",
"193 780 OFFCURVE",
"226 742 OFFCURVE",
"272 742 CURVE SMOOTH"
);
},
{
closed = 1;
nodes = (
"554 742 OFFCURVE",
"601 780 OFFCURVE",
"611 829 CURVE SMOOTH",
"622 878 OFFCURVE",
"591 917 OFFCURVE",
"544 917 CURVE SMOOTH",
"496 917 OFFCURVE",
"448 878 OFFCURVE",
"437 829 CURVE SMOOTH",
"427 780 OFFCURVE",
"459 742 OFFCURVE",
"507 742 CURVE SMOOTH"
);
}
);
width = 568;
}
);
leftKerningGroup = E;
note = Edieresis;
rightKerningGroup = E;
unicode = 00CB;
},
{
glyphname = Edotaccent;
lastChange = "2015-12-01 04:41:26 +0000";
layers = (
{
layerId = "EF7A456C-05AE-460A-9046-2BAC18FBC939";
name = Bold;
paths = (
{
closed = 1;
nodes = (
"499 0 LINE",
"541 199 LINE",
"260 199 LINE",
"273 260 LINE",
"472 260 LINE",
"510 439 LINE",
"311 439 LINE",
"324 500 LINE",
"605 500 LINE",
"647 699 LINE",
"129 699 LINE",
"-19 0 LINE"
);
},
{
closed = 1;
nodes = (
"418 742 OFFCURVE",
"465 780 OFFCURVE",
"475 829 CURVE SMOOTH",
"486 878 OFFCURVE",
"455 917 OFFCURVE",
"407 917 CURVE SMOOTH",
"360 917 OFFCURVE",
"311 878 OFFCURVE",
"300 829 CURVE SMOOTH",
"290 780 OFFCURVE",
"323 742 OFFCURVE",
"370 742 CURVE SMOOTH"
);
}
);
width = 568;
}
);
leftKerningGroup = E;
note = Edotaccent;
rightKerningGroup = E;
unicode = 0116;
},
{
glyphname = Edotbelow;
lastChange = "2015-12-01 04:41:26 +0000";
layers = (
{
layerId = "EF7A456C-05AE-460A-9046-2BAC18FBC939";
name = Bold;
paths = (
{
closed = 1;
nodes = (
"499 0 LINE",
"541 199 LINE",
"260 199 LINE",
"273 260 LINE",
"472 260 LINE",
"510 439 LINE",
"311 439 LINE",
"324 500 LINE",
"605 500 LINE",
"647 699 LINE",
"129 699 LINE",
"-19 0 LINE"
);
},
{
closed = 1;
nodes = (
"226 -220 OFFCURVE",
"273 -182 OFFCURVE",
"283 -133 CURVE SMOOTH",
"294 -84 OFFCURVE",
"263 -45 OFFCURVE",
"216 -45 CURVE SMOOTH",
"169 -45 OFFCURVE",
"120 -84 OFFCURVE",
"109 -133 CURVE SMOOTH",
"99 -182 OFFCURVE",
"132 -220 OFFCURVE",
"179 -220 CURVE SMOOTH"
);
}
);
width = 568;
}
);
leftKerningGroup = E;
note = Edotbelow;
rightKerningGroup = E;
unicode = 1EB8;
},
{
glyphname = Egrave;
lastChange = "2015-12-01 04:41:26 +0000";
layers = (
{
layerId = "EF7A456C-05AE-460A-9046-2BAC18FBC939";
name = Bold;
paths = (
{
closed = 1;
nodes = (
"499 0 LINE",
"541 199 LINE",
"260 199 LINE",
"273 260 LINE",
"472 260 LINE",
"510 439 LINE",
"311 439 LINE",
"324 500 LINE",
"605 500 LINE",
"647 699 LINE",
"129 699 LINE",
"-19 0 LINE"
);
},
{
closed = 1;
nodes = (
"484 742 LINE",
"454 923 LINE",
"237 923 LINE",
"294 742 LINE"
);
}
);
width = 568;
}
);
leftKerningGroup = E;
note = Egrave;
rightKerningGroup = E;
unicode = 00C8;
},
{
glyphname = Ehookabove;
lastChange = "2015-12-01 04:41:27 +0000";
layers = (
{
layerId = "EF7A456C-05AE-460A-9046-2BAC18FBC939";
name = Bold;
paths = (
{
closed = 1;
nodes = (
"499 0 LINE",
"541 199 LINE",
"260 199 LINE",
"273 260 LINE",
"472 260 LINE",
"510 439 LINE",
"311 439 LINE",
"324 500 LINE",
"605 500 LINE",
"647 699 LINE",
"129 699 LINE",
"-19 0 LINE"
);
},
{
closed = 1;
nodes = (
"453 742 LINE",
"461 782 LINE",
"518 798 OFFCURVE",
"561 825 OFFCURVE",
"573 877 CURVE SMOOTH",
"586 940 OFFCURVE",
"537 981 OFFCURVE",
"418 981 CURVE SMOOTH",
"374 981 OFFCURVE",
"309 972 OFFCURVE",
"273 962 CURVE",
"255 877 LINE",
"268 881 OFFCURVE",
"293 886 OFFCURVE",
"313 886 CURVE SMOOTH",
"354 886 OFFCURVE",
"370 876 OFFCURVE",
"366 854 CURVE",
"360 827 OFFCURVE",
"338 816 OFFCURVE",
"282 816 CURVE",
"266 742 LINE"
);
}
);
width = 568;
}
);
leftKerningGroup = E;
note = Ehookabove;
rightKerningGroup = E;
unicode = 1EBA;
},
{
glyphname = Emacron;
lastChange = "2015-12-01 04:41:27 +0000";
layers = (
{
layerId = "EF7A456C-05AE-460A-9046-2BAC18FBC939";
name = Bold;
paths = (
{
closed = 1;
nodes = (
"499 0 LINE",
"541 199 LINE",
"260 199 LINE",
"273 260 LINE",
"472 260 LINE",
"510 439 LINE",
"311 439 LINE",
"324 500 LINE",
"605 500 LINE",
"647 699 LINE",
"129 699 LINE",
"-19 0 LINE"
);
},
{
closed = 1;
nodes = (
"564 742 LINE",
"595 885 LINE",
"229 885 LINE",
"198 742 LINE"
);
}
);
width = 568;
}
);
leftKerningGroup = E;
note = Emacron;
rightKerningGroup = E;
unicode = 0112;
},
{
glyphname = Eogonek;
lastChange = "2015-12-01 04:41:26 +0000";
layers = (
{
layerId = "EF7A456C-05AE-460A-9046-2BAC18FBC939";
name = Bold;
paths = (
{
closed = 1;
nodes = (
"366 -219 OFFCURVE",
"418 -212 OFFCURVE",
"452 -202 CURVE",
"477 -82 LINE",
"459 -90 OFFCURVE",
"441 -95 OFFCURVE",
"425 -95 CURVE SMOOTH",
"408 -95 OFFCURVE",
"401 -86 OFFCURVE",
"404 -72 CURVE SMOOTH",
"410 -45 OFFCURVE",
"436 -26 OFFCURVE",
"499 0 CURVE",
"541 199 LINE",
"260 199 LINE",
"273 260 LINE",
"472 260 LINE",
"510 439 LINE",
"311 439 LINE",
"324 500 LINE",
"605 500 LINE",
"647 699 LINE",
"129 699 LINE",
"-19 0 LINE",
"294 0 LINE",
"247 -24 OFFCURVE",
"212 -63 OFFCURVE",
"201 -116 CURVE SMOOTH",
"185 -189 OFFCURVE",
"239 -219 OFFCURVE",
"321 -219 CURVE SMOOTH"
);
}
);
width = 568;
}
);
leftKerningGroup = E;
note = Eogonek;
rightKerningGroup = E;
unicode = 0118;
},
{
glyphname = Etilde;
lastChange = "2015-12-01 04:41:27 +0000";
layers = (
{
layerId = "EF7A456C-05AE-460A-9046-2BAC18FBC939";
name = Bold;
paths = (
{
closed = 1;
nodes = (
"499 0 LINE",
"541 199 LINE",
"260 199 LINE",
"273 260 LINE",
"472 260 LINE",
"510 439 LINE",
"311 439 LINE",
"324 500 LINE",
"605 500 LINE",
"647 699 LINE",
"129 699 LINE",
"-19 0 LINE"
);
},
{
closed = 1;
nodes = (
"537 742 OFFCURVE",
"577 753 OFFCURVE",
"609 782 CURVE",
"641 935 LINE",
"603 901 OFFCURVE",
"564 886 OFFCURVE",
"522 886 CURVE SMOOTH",
"457 886 OFFCURVE",
"397 936 OFFCURVE",
"329 936 CURVE SMOOTH",
"283 936 OFFCURVE",
"242 925 OFFCURVE",
"210 896 CURVE",
"178 743 LINE",
"216 777 OFFCURVE",
"256 792 OFFCURVE",
"298 792 CURVE SMOOTH",
"362 792 OFFCURVE",
"418 742 OFFCURVE",
"491 742 CURVE SMOOTH"
);
}
);
width = 568;
}
);
leftKerningGroup = E;
note = Etilde;
rightKerningGroup = E;
unicode = 1EBC;
},
{
glyphname = F;
lastChange = "2015-12-01 04:41:26 +0000";
layers = (
{
layerId = "EF7A456C-05AE-460A-9046-2BAC18FBC939";
name = Bold;
paths = (
{
closed = 1;
nodes = (
"218 0 LINE",
"273 260 LINE",
"472 260 LINE",
"510 439 LINE",
"311 439 LINE",
"324 500 LINE",
"605 500 LINE",
"647 699 LINE",
"129 699 LINE",
"-19 0 LINE"
);
}
);
width = 548;
}
);
note = F;
unicode = 0046;
},
{
glyphname = G;
lastChange = "2015-12-01 04:41:26 +0000";
layers = (
{
layerId = "EF7A456C-05AE-460A-9046-2BAC18FBC939";
name = Bold;
paths = (
{
closed = 1;
nodes = (
"458 -15 OFFCURVE",
"551 5 OFFCURVE",
"627 44 CURVE",
"703 403 LINE",
"418 403 LINE",
"389 267 LINE",
"466 267 LINE",
"452 201 LINE",
"440 197 OFFCURVE",
"418 193 OFFCURVE",
"399 193 CURVE SMOOTH",
"274 193 OFFCURVE",
"254 251 OFFCURVE",
"275 349 CURVE SMOOTH",
"295 446 OFFCURVE",
"373 497 OFFCURVE",
"474 497 CURVE SMOOTH",
"568 497 OFFCURVE",
"636 480 OFFCURVE",
"685 437 CURVE",
"733 659 LINE",
"673 698 OFFCURVE",
"603 714 OFFCURVE",
"499 714 CURVE SMOOTH",
"261 714 OFFCURVE",
"83 577 OFFCURVE",
"35 349 CURVE SMOOTH",
"-14 122 OFFCURVE",
"127 -15 OFFCURVE",
"344 -15 CURVE SMOOTH"
);
}
);
width = 687;
}
);
leftKerningGroup = C;
note = G;
unicode = 0047;
},
{
glyphname = Gbreve;
lastChange = "2015-12-01 04:41:28 +0000";
layers = (
{
layerId = "EF7A456C-05AE-460A-9046-2BAC18FBC939";
name = Bold;
paths = (
{
closed = 1;
nodes = (
"458 -15 OFFCURVE",
"551 5 OFFCURVE",
"627 44 CURVE",
"703 403 LINE",
"418 403 LINE",
"389 267 LINE",
"466 267 LINE",
"452 201 LINE",
"440 197 OFFCURVE",
"418 193 OFFCURVE",
"399 193 CURVE SMOOTH",
"274 193 OFFCURVE",
"254 251 OFFCURVE",
"275 349 CURVE SMOOTH",
"295 446 OFFCURVE",
"373 497 OFFCURVE",
"474 497 CURVE SMOOTH",
"568 497 OFFCURVE",
"636 480 OFFCURVE",
"685 437 CURVE",
"733 659 LINE",
"673 698 OFFCURVE",
"603 714 OFFCURVE",
"499 714 CURVE SMOOTH",
"261 714 OFFCURVE",
"83 577 OFFCURVE",
"35 349 CURVE SMOOTH",
"-14 122 OFFCURVE",
"127 -15 OFFCURVE",
"344 -15 CURVE SMOOTH"
);
},
{
closed = 1;
nodes = (
"627 742 OFFCURVE",
"715 816 OFFCURVE",
"740 937 CURVE",
"569 937 LINE",
"561 898 OFFCURVE",
"544 879 OFFCURVE",
"519 879 CURVE SMOOTH",
"494 879 OFFCURVE",
"485 898 OFFCURVE",
"493 937 CURVE",
"331 937 LINE",
"306 816 OFFCURVE",
"362 742 OFFCURVE",
"494 742 CURVE SMOOTH"
);
}
);
width = 687;
}
);
leftKerningGroup = C;
note = Gbreve;
unicode = 011E;
},
{
glyphname = Gcaron;
lastChange = "2015-12-01 04:44:41 +0000";
layers = (
{
layerId = "EF7A456C-05AE-460A-9046-2BAC18FBC939";
name = Bold;
paths = (
{
closed = 1;
nodes = (
"458 -15 OFFCURVE",
"551 5 OFFCURVE",
"627 44 CURVE",
"703 403 LINE",
"418 403 LINE",
"389 267 LINE",
"466 267 LINE",
"452 201 LINE",
"440 197 OFFCURVE",
"418 193 OFFCURVE",
"399 193 CURVE SMOOTH",
"274 193 OFFCURVE",
"254 251 OFFCURVE",
"275 349 CURVE SMOOTH",
"295 446 OFFCURVE",
"373 497 OFFCURVE",
"474 497 CURVE SMOOTH",
"568 497 OFFCURVE",
"636 480 OFFCURVE",
"685 437 CURVE",
"733 659 LINE",
"673 698 OFFCURVE",
"603 714 OFFCURVE",
"499 714 CURVE SMOOTH",
"261 714 OFFCURVE",
"83 577 OFFCURVE",
"35 349 CURVE SMOOTH",
"-14 122 OFFCURVE",
"127 -15 OFFCURVE",
"344 -15 CURVE SMOOTH"
);
},
{
closed = 1;
nodes = (
"595 742 LINE",
"800 933 LINE",
"589 933 LINE",
"513 853 LINE",
"471 933 LINE",
"269 933 LINE",
"393 742 LINE"
);
}
);
width = 687;
}
);
leftKerningGroup = C;
note = Gcaron;
unicode = 01E6;
},
{
glyphname = Gcircumflex;
lastChange = "2015-12-01 04:44:46 +0000";
layers = (
{
layerId = "EF7A456C-05AE-460A-9046-2BAC18FBC939";
name = Bold;
paths = (
{
closed = 1;
nodes = (
"458 -15 OFFCURVE",
"551 5 OFFCURVE",
"627 44 CURVE",
"703 403 LINE",
"418 403 LINE",
"389 267 LINE",
"466 267 LINE",
"452 201 LINE",
"440 197 OFFCURVE",
"418 193 OFFCURVE",
"399 193 CURVE SMOOTH",
"274 193 OFFCURVE",
"254 251 OFFCURVE",
"275 349 CURVE SMOOTH",
"295 446 OFFCURVE",
"373 497 OFFCURVE",
"474 497 CURVE SMOOTH",
"568 497 OFFCURVE",
"636 480 OFFCURVE",
"685 437 CURVE",
"733 659 LINE",
"673 698 OFFCURVE",
"603 714 OFFCURVE",
"499 714 CURVE SMOOTH",
"261 714 OFFCURVE",
"83 577 OFFCURVE",
"35 349 CURVE SMOOTH",
"-14 122 OFFCURVE",
"127 -15 OFFCURVE",
"344 -15 CURVE SMOOTH"
);
},
{
closed = 1;
nodes = (
"432 742 LINE",
"508 822 LINE",
"550 742 LINE",
"753 742 LINE",
"628 933 LINE",
"426 933 LINE",
"222 742 LINE"
);
}
);
width = 687;
}
);
leftKerningGroup = C;
note = Gcircumflex;
unicode = 011C;
},
{
glyphname = Gcommaaccent;
lastChange = "2015-12-01 04:41:26 +0000";
layers = (
{
layerId = "EF7A456C-05AE-460A-9046-2BAC18FBC939";
name = Bold;
paths = (
{
closed = 1;
nodes = (
"458 -15 OFFCURVE",
"551 5 OFFCURVE",
"627 44 CURVE",
"703 403 LINE",
"418 403 LINE",
"389 267 LINE",
"466 267 LINE",
"452 201 LINE",
"440 197 OFFCURVE",
"418 193 OFFCURVE",
"399 193 CURVE SMOOTH",
"274 193 OFFCURVE",
"254 251 OFFCURVE",
"275 349 CURVE SMOOTH",
"295 446 OFFCURVE",
"373 497 OFFCURVE",
"474 497 CURVE SMOOTH",
"568 497 OFFCURVE",
"636 480 OFFCURVE",
"685 437 CURVE",
"733 659 LINE",
"673 698 OFFCURVE",
"603 714 OFFCURVE",
"499 714 CURVE SMOOTH",
"261 714 OFFCURVE",
"83 577 OFFCURVE",
"35 349 CURVE SMOOTH",
"-14 122 OFFCURVE",
"127 -15 OFFCURVE",
"344 -15 CURVE SMOOTH"
);
},
{
closed = 1;
nodes = (
"299 -259 LINE",
"457 -41 LINE",
"245 -41 LINE",
"115 -259 LINE"
);
}
);
width = 687;
}
);
leftKerningGroup = C;
note = Gcommaaccent;
unicode = 0122;
},
{
glyphname = Gdotaccent;
lastChange = "2015-12-01 04:41:27 +0000";
layers = (
{
layerId = "EF7A456C-05AE-460A-9046-2BAC18FBC939";
name = Bold;
paths = (
{
closed = 1;
nodes = (
"458 -15 OFFCURVE",
"551 5 OFFCURVE",
"627 44 CURVE",
"703 403 LINE",
"418 403 LINE",
"389 267 LINE",
"466 267 LINE",
"452 201 LINE",
"440 197 OFFCURVE",
"418 193 OFFCURVE",
"399 193 CURVE SMOOTH",
"274 193 OFFCURVE",
"254 251 OFFCURVE",
"275 349 CURVE SMOOTH",
"295 446 OFFCURVE",
"373 497 OFFCURVE",
"474 497 CURVE SMOOTH",
"568 497 OFFCURVE",
"636 480 OFFCURVE",
"685 437 CURVE",
"733 659 LINE",
"673 698 OFFCURVE",
"603 714 OFFCURVE",
"499 714 CURVE SMOOTH",
"261 714 OFFCURVE",
"83 577 OFFCURVE",
"35 349 CURVE SMOOTH",
"-14 122 OFFCURVE",
"127 -15 OFFCURVE",
"344 -15 CURVE SMOOTH"
);
},
{
closed = 1;
nodes = (
"543 742 OFFCURVE",
"590 780 OFFCURVE",
"600 829 CURVE SMOOTH",
"611 878 OFFCURVE",
"580 917 OFFCURVE",
"532 917 CURVE SMOOTH",
"485 917 OFFCURVE",
"436 878 OFFCURVE",
"425 829 CURVE SMOOTH",
"415 780 OFFCURVE",
"448 742 OFFCURVE",
"495 742 CURVE SMOOTH"
);
}
);
width = 687;
}
);
leftKerningGroup = C;
note = Gdotaccent;
unicode = 0120;
},
{
glyphname = Gmacron;
lastChange = "2015-12-01 04:41:26 +0000";
layers = (
{
layerId = "EF7A456C-05AE-460A-9046-2BAC18FBC939";
name = Bold;
paths = (
{
closed = 1;
nodes = (
"458 -15 OFFCURVE",
"551 5 OFFCURVE",
"627 44 CURVE",
"703 403 LINE",
"418 403 LINE",
"389 267 LINE",
"466 267 LINE",
"452 201 LINE",
"440 197 OFFCURVE",
"418 193 OFFCURVE",
"399 193 CURVE SMOOTH",
"274 193 OFFCURVE",
"254 251 OFFCURVE",
"275 349 CURVE SMOOTH",
"295 446 OFFCURVE",
"373 497 OFFCURVE",
"474 497 CURVE SMOOTH",
"568 497 OFFCURVE",
"636 480 OFFCURVE",
"685 437 CURVE",
"733 659 LINE",
"673 698 OFFCURVE",
"603 714 OFFCURVE",
"499 714 CURVE SMOOTH",
"261 714 OFFCURVE",
"83 577 OFFCURVE",
"35 349 CURVE SMOOTH",
"-14 122 OFFCURVE",
"127 -15 OFFCURVE",
"344 -15 CURVE SMOOTH"
);
},
{
closed = 1;
nodes = (
"659 742 LINE",
"690 885 LINE",
"324 885 LINE",
"293 742 LINE"
);
}
);
width = 687;
}
);
leftKerningGroup = C;
note = Gmacron;
unicode = 1E20;
},
{
glyphname = H;
lastChange = "2015-12-01 04:41:26 +0000";
layers = (
{
layerId = "EF7A456C-05AE-460A-9046-2BAC18FBC939";
name = Bold;
paths = (
{
closed = 1;
nodes = (
"218 0 LINE",
"270 245 LINE",
"462 245 LINE",
"410 0 LINE",
"647 0 LINE",
"795 699 LINE",
"558 699 LINE",
"508 465 LINE",
"316 465 LINE",
"366 699 LINE",
"129 699 LINE",
"-19 0 LINE"
);
}
);
width = 736;
}
);
note = H;
unicode = 0048;
},
{
glyphname = Hbar;
lastChange = "2015-12-01 04:41:27 +0000";
layers = (
{
layerId = "EF7A456C-05AE-460A-9046-2BAC18FBC939";
name = Bold;
paths = (
{
closed = 1;
nodes = (
"249 0 LINE",
"301 245 LINE",
"493 245 LINE",
"441 0 LINE",
"678 0 LINE",
"826 699 LINE",
"589 699 LINE",
"539 465 LINE",
"347 465 LINE",
"397 699 LINE",
"160 699 LINE",
"12 0 LINE"
);
},
{
closed = 1;
nodes = (
"828 514 LINE",
"856 645 LINE",
"108 645 LINE",
"80 514 LINE"
);
}
);
width = 798;
}
);
note = Hbar;
unicode = 0126;
},
{
glyphname = Hbrevebelow;
lastChange = "2015-12-01 04:41:26 +0000";
layers = (
{
layerId = "EF7A456C-05AE-460A-9046-2BAC18FBC939";
name = Bold;
paths = (
{
closed = 1;
nodes = (
"218 0 LINE",
"270 245 LINE",
"462 245 LINE",
"410 0 LINE",
"647 0 LINE",
"795 699 LINE",
"558 699 LINE",
"508 465 LINE",
"316 465 LINE",
"366 699 LINE",
"129 699 LINE",
"-19 0 LINE"
);
},
{
closed = 1;
nodes = (
"395 -244 OFFCURVE",
"482 -170 OFFCURVE",
"508 -49 CURVE",
"337 -49 LINE",
"329 -88 OFFCURVE",
"312 -107 OFFCURVE",
"288 -107 CURVE SMOOTH",
"263 -107 OFFCURVE",
"254 -88 OFFCURVE",
"262 -49 CURVE",
"99 -49 LINE",
"73 -170 OFFCURVE",
"130 -244 OFFCURVE",
"263 -244 CURVE SMOOTH"
);
}
);
width = 736;
}
);
note = Hbrevebelow;
unicode = 1E2A;
},
{
glyphname = Hcircumflex;
lastChange = "2015-12-01 04:41:28 +0000";
layers = (
{
layerId = "EF7A456C-05AE-460A-9046-2BAC18FBC939";
name = Bold;
paths = (
{
closed = 1;
nodes = (
"218 0 LINE",
"270 245 LINE",
"462 245 LINE",
"410 0 LINE",
"647 0 LINE",
"795 699 LINE",
"558 699 LINE",
"508 465 LINE",
"316 465 LINE",
"366 699 LINE",
"129 699 LINE",
"-19 0 LINE"
);
},
{
closed = 1;
nodes = (
"396 742 LINE",
"472 822 LINE",
"514 742 LINE",
"717 742 LINE",
"592 933 LINE",
"390 933 LINE",
"186 742 LINE"
);
}
);
width = 736;
}
);
note = Hcircumflex;
unicode = 0124;
},
{
glyphname = Hdotbelow;
lastChange = "2015-12-01 04:41:26 +0000";
layers = (
{
layerId = "EF7A456C-05AE-460A-9046-2BAC18FBC939";
name = Bold;
paths = (
{
closed = 1;
nodes = (
"218 0 LINE",
"270 245 LINE",
"462 245 LINE",
"410 0 LINE",
"647 0 LINE",
"795 699 LINE",
"558 699 LINE",
"508 465 LINE",
"316 465 LINE",
"366 699 LINE",
"129 699 LINE",
"-19 0 LINE"
);
},
{
closed = 1;
nodes = (
"316 -220 OFFCURVE",
"363 -182 OFFCURVE",
"373 -133 CURVE SMOOTH",
"384 -84 OFFCURVE",
"353 -45 OFFCURVE",
"306 -45 CURVE SMOOTH",
"259 -45 OFFCURVE",
"210 -84 OFFCURVE",
"199 -133 CURVE SMOOTH",
"189 -182 OFFCURVE",
"222 -220 OFFCURVE",
"269 -220 CURVE SMOOTH"
);
}
);
width = 736;
}
);
note = Hdotbelow;
unicode = 1E24;
},
{
glyphname = I;
lastChange = "2015-12-01 04:41:26 +0000";
layers = (
{
layerId = "EF7A456C-05AE-460A-9046-2BAC18FBC939";
name = Bold;
paths = (
{
closed = 1;
nodes = (
"218 0 LINE",
"366 699 LINE",
"129 699 LINE",
"-19 0 LINE"
);
}
);
width = 307;
}
);
note = I;
unicode = 0049;
},
{
glyphname = IJ;
lastChange = "2015-12-01 04:41:27 +0000";
layers = (
{
layerId = "EF7A456C-05AE-460A-9046-2BAC18FBC939";
name = Bold;
paths = (
{
closed = 1;
nodes = (
"561 -15 OFFCURVE",
"636 77 OFFCURVE",
"670 236 CURVE SMOOTH",
"768 699 LINE",
"531 699 LINE",
"438 263 LINE SMOOTH",
"428 215 OFFCURVE",
"400 196 OFFCURVE",
"356 196 CURVE SMOOTH",
"324 196 OFFCURVE",
"299 202 OFFCURVE",
"281 213 CURVE",
"239 13 LINE",
"260 -3 OFFCURVE",
"321 -15 OFFCURVE",
"367 -15 CURVE SMOOTH"
);
},
{
closed = 1;
nodes = (
"215 0 LINE",
"363 699 LINE",
"126 699 LINE",
"-22 0 LINE"
);
}
);
width = 702;
}
);
note = IJ;
rightKerningGroup = J;
unicode = 0132;
},
{
glyphname = Iacute;
lastChange = "2015-12-01 04:45:26 +0000";
layers = (
{
layerId = "EF7A456C-05AE-460A-9046-2BAC18FBC939";
name = Bold;
paths = (
{
closed = 1;
nodes = (
"218 0 LINE",
"366 699 LINE",
"129 699 LINE",
"-19 0 LINE"
);
},
{
closed = 1;
nodes = (
"354 742 LINE",
"487 923 LINE",
"270 923 LINE",
"164 742 LINE"
);
}
);
width = 307;
}
);
note = Iacute;
unicode = 00CD;
},
{
glyphname = Ibreve;
lastChange = "2015-12-01 04:45:18 +0000";
layers = (
{
layerId = "EF7A456C-05AE-460A-9046-2BAC18FBC939";
name = Bold;
paths = (
{
closed = 1;
nodes = (
"218 0 LINE",
"366 699 LINE",
"129 699 LINE",
"-19 0 LINE"
);
},
{
closed = 1;
nodes = (
"389 742 OFFCURVE",
"477 816 OFFCURVE",
"502 937 CURVE",
"331 937 LINE",
"323 898 OFFCURVE",
"306 879 OFFCURVE",
"281 879 CURVE SMOOTH",
"256 879 OFFCURVE",
"247 898 OFFCURVE",
"255 937 CURVE",
"93 937 LINE",
"68 816 OFFCURVE",
"124 742 OFFCURVE",
"256 742 CURVE SMOOTH"
);
}
);
width = 307;
}
);
note = Ibreve;
unicode = 012C;
},
{
glyphname = Icaron;
lastChange = "2015-12-01 04:45:11 +0000";
layers = (
{
layerId = "EF7A456C-05AE-460A-9046-2BAC18FBC939";
name = Bold;
paths = (
{
closed = 1;
nodes = (
"218 0 LINE",
"366 699 LINE",
"129 699 LINE",
"-19 0 LINE"
);
},
{
closed = 1;
nodes = (
"357 742 LINE",
"562 933 LINE",
"351 933 LINE",
"275 853 LINE",
"233 933 LINE",
"31 933 LINE",
"155 742 LINE"
);
}
);
width = 307;
}
);
note = Icaron;
unicode = 01CF;
},
{
glyphname = Icircumflex;
lastChange = "2015-12-01 04:45:09 +0000";
layers = (
{
layerId = "EF7A456C-05AE-460A-9046-2BAC18FBC939";
name = Bold;
paths = (
{
closed = 1;
nodes = (
"218 0 LINE",
"366 699 LINE",
"129 699 LINE",
"-19 0 LINE"
);
},
{
closed = 1;
nodes = (
"199 732 LINE",
"275 812 LINE",
"317 732 LINE",
"520 732 LINE",
"395 923 LINE",
"193 923 LINE",
"-11 732 LINE"
);
}
);
width = 307;
}
);
note = Icircumflex;
unicode = 00CE;
},
{
glyphname = Idieresis;
lastChange = "2015-12-01 04:45:05 +0000";
layers = (
{
layerId = "EF7A456C-05AE-460A-9046-2BAC18FBC939";
name = Bold;
paths = (
{
closed = 1;
nodes = (
"218 0 LINE",
"366 699 LINE",
"129 699 LINE",
"-19 0 LINE"
);
},
{
closed = 1;
nodes = (
"188 742 OFFCURVE",
"235 780 OFFCURVE",
"245 829 CURVE SMOOTH",
"256 878 OFFCURVE",
"225 917 OFFCURVE",
"177 917 CURVE SMOOTH",
"131 917 OFFCURVE",
"82 878 OFFCURVE",
"71 829 CURVE SMOOTH",
"61 780 OFFCURVE",
"94 742 OFFCURVE",
"140 742 CURVE SMOOTH"
);
},
{
closed = 1;
nodes = (
"422 742 OFFCURVE",
"469 780 OFFCURVE",
"479 829 CURVE SMOOTH",
"490 878 OFFCURVE",
"459 917 OFFCURVE",
"412 917 CURVE SMOOTH",
"364 917 OFFCURVE",
"316 878 OFFCURVE",
"305 829 CURVE SMOOTH",
"295 780 OFFCURVE",
"327 742 OFFCURVE",
"375 742 CURVE SMOOTH"
);
}
);
width = 307;
}
);
note = Idieresis;
unicode = 00CF;
},
{
glyphname = Idotaccent;
lastChange = "2015-12-01 04:45:00 +0000";
layers = (
{
layerId = "EF7A456C-05AE-460A-9046-2BAC18FBC939";
name = Bold;
paths = (
{
closed = 1;
nodes = (
"218 0 LINE",
"366 699 LINE",
"129 699 LINE",
"-19 0 LINE"
);
},
{
closed = 1;
nodes = (
"305 742 OFFCURVE",
"352 780 OFFCURVE",
"362 829 CURVE SMOOTH",
"373 878 OFFCURVE",
"342 917 OFFCURVE",
"294 917 CURVE SMOOTH",
"247 917 OFFCURVE",
"198 878 OFFCURVE",
"187 829 CURVE SMOOTH",
"177 780 OFFCURVE",
"210 742 OFFCURVE",
"257 742 CURVE SMOOTH"
);
}
);
width = 307;
}
);
note = Idotaccent;
unicode = 0130;
},
{
glyphname = Idotbelow;
lastChange = "2015-12-01 04:41:26 +0000";
layers = (
{
layerId = "EF7A456C-05AE-460A-9046-2BAC18FBC939";
name = Bold;
paths = (
{
closed = 1;
nodes = (
"218 0 LINE",
"366 699 LINE",
"129 699 LINE",
"-19 0 LINE"
);
},
{
closed = 1;
nodes = (
"101 -220 OFFCURVE",
"148 -182 OFFCURVE",
"158 -133 CURVE SMOOTH",
"169 -84 OFFCURVE",
"138 -45 OFFCURVE",
"91 -45 CURVE SMOOTH",
"44 -45 OFFCURVE",
"-5 -84 OFFCURVE",
"-16 -133 CURVE SMOOTH",
"-26 -182 OFFCURVE",
"7 -220 OFFCURVE",
"54 -220 CURVE SMOOTH"
);
}
);
width = 307;
}
);
note = Idotbelow;
unicode = 1ECA;
},
{
glyphname = Igrave;
lastChange = "2015-12-01 04:45:32 +0000";
layers = (
{
layerId = "EF7A456C-05AE-460A-9046-2BAC18FBC939";
name = Bold;
paths = (
{
closed = 1;
nodes = (
"218 0 LINE",
"366 699 LINE",
"129 699 LINE",
"-19 0 LINE"
);
},
{
closed = 1;
nodes = (
"353 742 LINE",
"323 923 LINE",
"106 923 LINE",
"163 742 LINE"
);
}
);
width = 307;
}
);
note = Igrave;
unicode = 00CC;
},
{
glyphname = Ihookabove;
lastChange = "2015-12-01 04:41:27 +0000";
layers = (
{
layerId = "EF7A456C-05AE-460A-9046-2BAC18FBC939";
name = Bold;
paths = (
{
closed = 1;
nodes = (
"218 0 LINE",
"366 699 LINE",
"129 699 LINE",
"-19 0 LINE"
);
},
{
closed = 1;
nodes = (
"331 742 LINE",
"339 782 LINE",
"396 798 OFFCURVE",
"439 825 OFFCURVE",
"451 877 CURVE SMOOTH",
"464 940 OFFCURVE",
"415 981 OFFCURVE",
"296 981 CURVE SMOOTH",
"252 981 OFFCURVE",
"187 972 OFFCURVE",
"151 962 CURVE",
"133 877 LINE",
"146 881 OFFCURVE",
"171 886 OFFCURVE",
"191 886 CURVE SMOOTH",
"232 886 OFFCURVE",
"248 876 OFFCURVE",
"244 854 CURVE",
"238 827 OFFCURVE",
"216 816 OFFCURVE",
"160 816 CURVE",
"144 742 LINE"
);
}
);
width = 307;
}
);
note = Ihookabove;
unicode = 1EC8;
},
{
glyphname = Imacron;
lastChange = "2015-12-01 04:45:41 +0000";
layers = (
{
layerId = "EF7A456C-05AE-460A-9046-2BAC18FBC939";
name = Bold;
paths = (
{
closed = 1;
nodes = (
"218 0 LINE",
"366 699 LINE",
"129 699 LINE",
"-19 0 LINE"
);
},
{
closed = 1;
nodes = (
"450 742 LINE",
"481 885 LINE",
"94 885 LINE",
"63 742 LINE"
);
}
);
width = 307;
}
);
note = Imacron;
unicode = 012A;
},
{
glyphname = Iogonek;
lastChange = "2015-12-01 04:41:26 +0000";
layers = (
{
layerId = "EF7A456C-05AE-460A-9046-2BAC18FBC939";
name = Bold;
paths = (
{
closed = 1;
nodes = (
"72 -219 OFFCURVE",
"124 -212 OFFCURVE",
"158 -202 CURVE",
"183 -82 LINE",
"165 -90 OFFCURVE",
"147 -95 OFFCURVE",
"131 -95 CURVE SMOOTH",
"114 -95 OFFCURVE",
"107 -86 OFFCURVE",
"110 -72 CURVE SMOOTH",
"116 -45 OFFCURVE",
"142 -26 OFFCURVE",
"205 0 CURVE",
"218 0 LINE",
"366 699 LINE",
"129 699 LINE",
"-19 0 LINE",
"0 0 LINE",
"-47 -24 OFFCURVE",
"-82 -63 OFFCURVE",
"-93 -116 CURVE SMOOTH",
"-109 -189 OFFCURVE",
"-55 -219 OFFCURVE",
"27 -219 CURVE SMOOTH"
);
}
);
width = 307;
}
);
note = Iogonek;
unicode = 012E;
},
{
glyphname = Itilde;
lastChange = "2015-12-01 04:45:46 +0000";
layers = (
{
layerId = "EF7A456C-05AE-460A-9046-2BAC18FBC939";
name = Bold;
paths = (
{
closed = 1;
nodes = (
"218 0 LINE",
"366 699 LINE",
"129 699 LINE",
"-19 0 LINE"
);
},
{
closed = 1;
nodes = (
"404 742 OFFCURVE",
"444 753 OFFCURVE",
"476 782 CURVE",
"508 935 LINE",
"470 901 OFFCURVE",
"431 886 OFFCURVE",
"389 886 CURVE SMOOTH",
"324 886 OFFCURVE",
"264 936 OFFCURVE",
"196 936 CURVE SMOOTH",
"150 936 OFFCURVE",
"109 925 OFFCURVE",
"77 896 CURVE",
"45 743 LINE",
"83 777 OFFCURVE",
"123 792 OFFCURVE",
"165 792 CURVE SMOOTH",
"229 792 OFFCURVE",
"285 742 OFFCURVE",
"358 742 CURVE SMOOTH"
);
}
);
width = 307;
}
);
note = Itilde;
unicode = 0128;
},
{
glyphname = J;
lastChange = "2015-12-01 04:41:27 +0000";
layers = (
{
layerId = "EF7A456C-05AE-460A-9046-2BAC18FBC939";
name = Bold;
paths = (
{
closed = 1;
nodes = (
"266 -15 OFFCURVE",
"341 77 OFFCURVE",
"375 236 CURVE SMOOTH",
"473 699 LINE",
"236 699 LINE",
"143 263 LINE SMOOTH",
"133 215 OFFCURVE",
"105 196 OFFCURVE",
"61 196 CURVE SMOOTH",
"29 196 OFFCURVE",
"4 202 OFFCURVE",
"-14 213 CURVE",
"-56 13 LINE",
"-35 -3 OFFCURVE",
"26 -15 OFFCURVE",
"72 -15 CURVE SMOOTH"
);
}
);
width = 409;
}
);
note = J;
rightKerningGroup = J;
unicode = 004A;
},
{
glyphname = Jcircumflex;
lastChange = "2015-12-01 04:41:26 +0000";
layers = (
{
layerId = "EF7A456C-05AE-460A-9046-2BAC18FBC939";
name = Bold;
paths = (
{
closed = 1;
nodes = (
"266 -15 OFFCURVE",
"341 77 OFFCURVE",
"375 236 CURVE SMOOTH",
"473 699 LINE",
"236 699 LINE",
"143 263 LINE SMOOTH",
"133 215 OFFCURVE",
"105 196 OFFCURVE",
"61 196 CURVE SMOOTH",
"29 196 OFFCURVE",
"4 202 OFFCURVE",
"-14 213 CURVE",
"-56 13 LINE",
"-35 -3 OFFCURVE",
"26 -15 OFFCURVE",
"72 -15 CURVE SMOOTH"
);
},
{
closed = 1;
nodes = (
"276 732 LINE",
"352 812 LINE",
"394 732 LINE",
"597 732 LINE",
"472 923 LINE",
"270 923 LINE",
"66 732 LINE"
);
}
);
width = 409;
}
);
note = Jcircumflex;
rightKerningGroup = J;
unicode = 0134;
},
{
glyphname = K;
lastChange = "2015-12-01 04:41:26 +0000";
layers = (
{
layerId = "EF7A456C-05AE-460A-9046-2BAC18FBC939";
name = Bold;
paths = (
{
closed = 1;
nodes = (
"218 0 LINE",
"276 273 LINE",
"426 0 LINE",
"704 0 LINE",
"500 361 LINE",
"834 699 LINE",
"562 699 LINE",
"312 446 LINE",
"366 699 LINE",
"129 699 LINE",
"-19 0 LINE"
);
}
);
width = 773;
}
);
leftKerningGroup = K;
note = K;
rightKerningGroup = K;
unicode = 004B;
},
{
glyphname = Kcommaaccent;
lastChange = "2015-12-01 04:41:26 +0000";
layers = (
{
layerId = "EF7A456C-05AE-460A-9046-2BAC18FBC939";
name = Bold;
paths = (
{
closed = 1;
nodes = (
"218 0 LINE",
"276 273 LINE",
"426 0 LINE",
"704 0 LINE",
"500 361 LINE",
"834 699 LINE",
"562 699 LINE",
"312 446 LINE",
"366 699 LINE",
"129 699 LINE",
"-19 0 LINE"
);
},
{
closed = 1;
nodes = (
"259 -259 LINE",
"417 -41 LINE",
"205 -41 LINE",
"75 -259 LINE"
);
}
);
width = 773;
}
);
leftKerningGroup = K;
note = Kcommaaccent;
rightKerningGroup = K;
unicode = 0136;
},
{
glyphname = L;
lastChange = "2015-12-01 04:41:28 +0000";
layers = (
{
layerId = "EF7A456C-05AE-460A-9046-2BAC18FBC939";
name = Bold;
paths = (
{
closed = 1;
nodes = (
"479 0 LINE",
"521 199 LINE",
"260 199 LINE",
"366 699 LINE",
"129 699 LINE",
"-19 0 LINE"
);
}
);
width = 528;
}
);
note = L;
rightKerningGroup = L;
unicode = 004C;
},
{
glyphname = Lacute;
lastChange = "2015-12-01 04:41:27 +0000";
layers = (
{
layerId = "EF7A456C-05AE-460A-9046-2BAC18FBC939";
name = Bold;
paths = (
{
closed = 1;
nodes = (
"479 0 LINE",
"521 199 LINE",
"260 199 LINE",
"366 699 LINE",
"129 699 LINE",
"-19 0 LINE"
);
},
{
closed = 1;
nodes = (
"329 742 LINE",
"462 923 LINE",
"245 923 LINE",
"139 742 LINE"
);
}
);
width = 528;
}
);
note = Lacute;
rightKerningGroup = L;
unicode = 0139;
},
{
glyphname = Lcaron;
lastChange = "2015-12-01 04:41:26 +0000";
layers = (
{
layerId = "EF7A456C-05AE-460A-9046-2BAC18FBC939";
name = Bold;
paths = (
{
closed = 1;
nodes = (
"479 0 LINE",
"521 199 LINE",
"260 199 LINE",
"366 699 LINE",
"129 699 LINE",
"-19 0 LINE"
);
},
{
closed = 1;
nodes = (
"575 504 LINE",
"733 722 LINE",
"521 722 LINE",
"391 504 LINE"
);
}
);
width = 576;
}
);
note = Lcaron;
rightKerningGroup = L;
unicode = 013D;
},
{
glyphname = Lcommaaccent;
lastChange = "2015-12-01 04:41:27 +0000";
layers = (
{
layerId = "EF7A456C-05AE-460A-9046-2BAC18FBC939";
name = Bold;
paths = (
{
closed = 1;
nodes = (
"479 0 LINE",
"521 199 LINE",
"260 199 LINE",
"366 699 LINE",
"129 699 LINE",
"-19 0 LINE"
);
},
{
closed = 1;
nodes = (
"204 -259 LINE",
"362 -41 LINE",
"150 -41 LINE",
"20 -259 LINE"
);
}
);
width = 528;
}
);
note = Lcommaaccent;
rightKerningGroup = L;
unicode = 013B;
},
{
glyphname = Ldot;
lastChange = "2015-12-01 04:41:26 +0000";
layers = (
{
layerId = "EF7A456C-05AE-460A-9046-2BAC18FBC939";
name = Bold;
paths = (
{
closed = 1;
nodes = (
"479 0 LINE",
"521 199 LINE",
"260 199 LINE",
"366 699 LINE",
"129 699 LINE",
"-19 0 LINE"
);
},
{
closed = 1;
nodes = (
"477 316 OFFCURVE",
"524 354 OFFCURVE",
"534 403 CURVE SMOOTH",
"545 452 OFFCURVE",
"514 491 OFFCURVE",
"466 491 CURVE SMOOTH",
"419 491 OFFCURVE",
"370 452 OFFCURVE",
"359 403 CURVE SMOOTH",
"349 354 OFFCURVE",
"382 316 OFFCURVE",
"429 316 CURVE SMOOTH"
);
}
);
width = 528;
}
);
note = Ldot;
rightKerningGroup = L;
unicode = 013F;
},
{
glyphname = Ldotbelow;
lastChange = "2015-12-01 04:41:26 +0000";
layers = (
{
layerId = "EF7A456C-05AE-460A-9046-2BAC18FBC939";
name = Bold;
paths = (
{
closed = 1;
nodes = (
"479 0 LINE",
"521 199 LINE",
"260 199 LINE",
"366 699 LINE",
"129 699 LINE",
"-19 0 LINE"
);
},
{
closed = 1;
nodes = (
"222 -220 OFFCURVE",
"269 -182 OFFCURVE",
"279 -133 CURVE SMOOTH",
"290 -84 OFFCURVE",
"259 -45 OFFCURVE",
"212 -45 CURVE SMOOTH",
"165 -45 OFFCURVE",
"116 -84 OFFCURVE",
"105 -133 CURVE SMOOTH",
"95 -182 OFFCURVE",
"128 -220 OFFCURVE",
"175 -220 CURVE SMOOTH"
);
}
);
width = 528;
}
);
note = Ldotbelow;
rightKerningGroup = L;
unicode = 1E36;
},
{
glyphname = Ldotbelowmacron;
lastChange = "2015-12-01 04:41:26 +0000";
layers = (
{
layerId = "EF7A456C-05AE-460A-9046-2BAC18FBC939";
name = Bold;
paths = (
{
closed = 1;
nodes = (
"500 0 LINE",
"542 199 LINE",
"281 199 LINE",
"387 699 LINE",
"150 699 LINE",
"2 0 LINE"
);
},
{
closed = 1;
nodes = (
"241 -220 OFFCURVE",
"288 -182 OFFCURVE",
"298 -133 CURVE SMOOTH",
"309 -84 OFFCURVE",
"278 -45 OFFCURVE",
"231 -45 CURVE SMOOTH",
"184 -45 OFFCURVE",
"135 -84 OFFCURVE",
"124 -133 CURVE SMOOTH",
"114 -182 OFFCURVE",
"147 -220 OFFCURVE",
"194 -220 CURVE SMOOTH"
);
},
{
closed = 1;
nodes = (
"447 752 LINE",
"478 895 LINE",
"112 895 LINE",
"81 752 LINE"
);
}
);
width = 549;
}
);
note = Ldotbelowmacron;
rightKerningGroup = L;
unicode = 1E38;
},
{
glyphname = Llinebelow;
lastChange = "2015-12-01 04:41:26 +0000";
layers = (
{
layerId = "EF7A456C-05AE-460A-9046-2BAC18FBC939";
name = Bold;
paths = (
{
closed = 1;
nodes = (
"479 0 LINE",
"521 199 LINE",
"260 199 LINE",
"366 699 LINE",
"129 699 LINE",
"-19 0 LINE"
);
},
{
closed = 1;
nodes = (
"371 -192 LINE",
"401 -49 LINE",
"35 -49 LINE",
"5 -192 LINE"
);
}
);
width = 528;
}
);
note = Llinebelow;
rightKerningGroup = L;
unicode = 1E3A;
},
{
glyphname = Lslash;
lastChange = "2015-12-01 04:41:26 +0000";
layers = (
{
layerId = "EF7A456C-05AE-460A-9046-2BAC18FBC939";
name = Bold;
paths = (
{
closed = 1;
nodes = (
"479 0 LINE",
"521 199 LINE",
"260 199 LINE",
"289 336 LINE",
"419 389 LINE",
"466 607 LINE",
"335 553 LINE",
"366 699 LINE",
"129 699 LINE",
"75 448 LINE",
"10 421 LINE",
"-36 203 LINE",
"29 230 LINE",
"-19 0 LINE"
);
}
);
width = 528;
}
);
note = Lslash;
rightKerningGroup = L;
unicode = 0141;
},
{
glyphname = M;
lastChange = "2015-12-01 04:41:26 +0000";
layers = (
{
layerId = "EF7A456C-05AE-460A-9046-2BAC18FBC939";
name = Bold;
paths = (
{
closed = 1;
nodes = (
"200 0 LINE",
"255 259 LINE",
"329 0 LINE",
"405 0 LINE",
"589 259 LINE",
"534 0 LINE",
"753 0 LINE",
"901 699 LINE",
"687 699 LINE",
"431 329 LINE",
"333 699 LINE",
"129 699 LINE",
"-19 0 LINE"
);
}
);
width = 842;
}
);
note = M;
unicode = 004D;
},
{
glyphname = Mdotbelow;
lastChange = "2015-12-01 04:41:26 +0000";
layers = (
{
layerId = "EF7A456C-05AE-460A-9046-2BAC18FBC939";
name = Bold;
paths = (
{
closed = 1;
nodes = (
"200 0 LINE",
"255 259 LINE",
"329 0 LINE",
"405 0 LINE",
"589 259 LINE",
"534 0 LINE",
"753 0 LINE",
"901 699 LINE",
"687 699 LINE",
"431 329 LINE",
"333 699 LINE",
"129 699 LINE",
"-19 0 LINE"
);
},
{
closed = 1;
nodes = (
"369 -220 OFFCURVE",
"416 -182 OFFCURVE",
"426 -133 CURVE SMOOTH",
"437 -84 OFFCURVE",
"406 -45 OFFCURVE",
"359 -45 CURVE SMOOTH",
"312 -45 OFFCURVE",
"263 -84 OFFCURVE",
"252 -133 CURVE SMOOTH",
"242 -182 OFFCURVE",
"275 -220 OFFCURVE",
"322 -220 CURVE SMOOTH"
);
}
);
width = 842;
}
);
note = Mdotbelow;
unicode = 1E42;
},
{
glyphname = N;
lastChange = "2015-12-01 04:41:28 +0000";
layers = (
{
layerId = "EF7A456C-05AE-460A-9046-2BAC18FBC939";
name = Bold;
paths = (
{
closed = 1;
nodes = (
"208 0 LINE",
"277 326 LINE",
"416 0 LINE",
"625 0 LINE",
"773 699 LINE",
"546 699 LINE",
"477 374 LINE",
"338 699 LINE",
"129 699 LINE",
"-19 0 LINE"
);
}
);
width = 714;
}
);
note = N;
unicode = 004E;
},
{
glyphname = Nacute;
lastChange = "2015-12-01 04:41:27 +0000";
layers = (
{
layerId = "EF7A456C-05AE-460A-9046-2BAC18FBC939";
name = Bold;
paths = (
{
closed = 1;
nodes = (
"208 0 LINE",
"277 326 LINE",
"416 0 LINE",
"625 0 LINE",
"773 699 LINE",
"546 699 LINE",
"477 374 LINE",
"338 699 LINE",
"129 699 LINE",
"-19 0 LINE"
);
},
{
closed = 1;
nodes = (
"531 742 LINE",
"664 923 LINE",
"447 923 LINE",
"341 742 LINE"
);
}
);
width = 714;
}
);
note = Nacute;
unicode = 0143;
},
{
glyphname = Ncaron;
lastChange = "2015-12-01 04:41:26 +0000";
layers = (
{
layerId = "EF7A456C-05AE-460A-9046-2BAC18FBC939";
name = Bold;
paths = (
{
closed = 1;
nodes = (
"208 0 LINE",
"277 326 LINE",
"416 0 LINE",
"625 0 LINE",
"773 699 LINE",
"546 699 LINE",
"477 374 LINE",
"338 699 LINE",
"129 699 LINE",
"-19 0 LINE"
);
},
{
closed = 1;
nodes = (
"544 742 LINE",
"749 933 LINE",
"538 933 LINE",
"462 853 LINE",
"420 933 LINE",
"218 933 LINE",
"342 742 LINE"
);
}
);
width = 714;
}
);
note = Ncaron;
unicode = 0147;
},
{
glyphname = Ncommaaccent;
lastChange = "2015-12-01 04:41:26 +0000";
layers = (
{
layerId = "EF7A456C-05AE-460A-9046-2BAC18FBC939";
name = Bold;
paths = (
{
closed = 1;
nodes = (
"208 0 LINE",
"277 326 LINE",
"416 0 LINE",
"625 0 LINE",
"773 699 LINE",
"546 699 LINE",
"477 374 LINE",
"338 699 LINE",
"129 699 LINE",
"-19 0 LINE"
);
},
{
closed = 1;
nodes = (
"260 -259 LINE",
"418 -41 LINE",
"206 -41 LINE",
"76 -259 LINE"
);
}
);
width = 714;
}
);
note = Ncommaaccent;
unicode = 0145;
},
{
glyphname = Ndotaccent;
lastChange = "2015-12-01 04:41:26 +0000";
layers = (
{
layerId = "EF7A456C-05AE-460A-9046-2BAC18FBC939";
name = Bold;
paths = (
{
closed = 1;
nodes = (
"208 0 LINE",
"277 326 LINE",
"416 0 LINE",
"625 0 LINE",
"773 699 LINE",
"546 699 LINE",
"477 374 LINE",
"338 699 LINE",
"129 699 LINE",
"-19 0 LINE"
);
},
{
closed = 1;
nodes = (
"489 742 OFFCURVE",
"536 780 OFFCURVE",
"546 829 CURVE SMOOTH",
"557 878 OFFCURVE",
"526 917 OFFCURVE",
"478 917 CURVE SMOOTH",
"431 917 OFFCURVE",
"382 878 OFFCURVE",
"371 829 CURVE SMOOTH",
"361 780 OFFCURVE",
"394 742 OFFCURVE",
"441 742 CURVE SMOOTH"
);
}
);
width = 714;
}
);
note = Ndotaccent;
unicode = 1E44;
},
{
glyphname = Ndotbelow;
lastChange = "2015-12-01 04:41:27 +0000";
layers = (
{
layerId = "EF7A456C-05AE-460A-9046-2BAC18FBC939";
name = Bold;
paths = (
{
closed = 1;
nodes = (
"208 0 LINE",
"277 326 LINE",
"416 0 LINE",
"625 0 LINE",
"773 699 LINE",
"546 699 LINE",
"477 374 LINE",
"338 699 LINE",
"129 699 LINE",
"-19 0 LINE"
);
},
{
closed = 1;
nodes = (
"305 -220 OFFCURVE",
"352 -182 OFFCURVE",
"362 -133 CURVE SMOOTH",
"373 -84 OFFCURVE",
"342 -45 OFFCURVE",
"295 -45 CURVE SMOOTH",
"248 -45 OFFCURVE",
"199 -84 OFFCURVE",
"188 -133 CURVE SMOOTH",
"178 -182 OFFCURVE",
"211 -220 OFFCURVE",
"258 -220 CURVE SMOOTH"
);
}
);
width = 714;
}
);
note = Ndotbelow;
unicode = 1E46;
},
{
glyphname = Eng;
lastChange = "2015-12-01 04:41:28 +0000";
layers = (
{
layerId = "EF7A456C-05AE-460A-9046-2BAC18FBC939";
name = Bold;
paths = (
{
closed = 1;
nodes = (
"490 -231 OFFCURVE",
"590 -163 OFFCURVE",
"621 -15 CURVE SMOOTH",
"773 699 LINE",
"546 699 LINE",
"477 374 LINE",
"338 699 LINE",
"129 699 LINE",
"-19 0 LINE",
"208 0 LINE",
"277 326 LINE",
"405 26 LINE",
"402 13 LINE SMOOTH",
"393 -30 OFFCURVE",
"362 -48 OFFCURVE",
"327 -48 CURVE SMOOTH",
"295 -48 OFFCURVE",
"275 -42 OFFCURVE",
"256 -31 CURVE",
"218 -210 LINE",
"242 -223 OFFCURVE",
"276 -231 OFFCURVE",
"322 -231 CURVE SMOOTH"
);
}
);
width = 714;
}
);
note = Eng;
unicode = 014A;
},
{
glyphname = Nlinebelow;
lastChange = "2015-12-01 04:41:27 +0000";
layers = (
{
layerId = "EF7A456C-05AE-460A-9046-2BAC18FBC939";
name = Bold;
paths = (
{
closed = 1;
nodes = (
"208 0 LINE",
"277 326 LINE",
"416 0 LINE",
"625 0 LINE",
"773 699 LINE",
"546 699 LINE",
"477 374 LINE",
"338 699 LINE",
"129 699 LINE",
"-19 0 LINE"
);
},
{
closed = 1;
nodes = (
"446 -192 LINE",
"476 -49 LINE",
"110 -49 LINE",
"80 -192 LINE"
);
}
);
width = 714;
}
);
note = Nlinebelow;
unicode = 1E48;
},
{
glyphname = Ntilde;
lastChange = "2015-12-01 04:41:26 +0000";
layers = (
{
layerId = "EF7A456C-05AE-460A-9046-2BAC18FBC939";
name = Bold;
paths = (
{
closed = 1;
nodes = (
"208 0 LINE",
"277 326 LINE",
"416 0 LINE",
"625 0 LINE",
"773 699 LINE",
"546 699 LINE",
"477 374 LINE",
"338 699 LINE",
"129 699 LINE",
"-19 0 LINE"
);
},
{
closed = 1;
nodes = (
"594 742 OFFCURVE",
"634 753 OFFCURVE",
"666 782 CURVE",
"698 935 LINE",
"660 901 OFFCURVE",
"621 886 OFFCURVE",
"579 886 CURVE SMOOTH",
"514 886 OFFCURVE",
"454 936 OFFCURVE",
"386 936 CURVE SMOOTH",
"340 936 OFFCURVE",
"299 925 OFFCURVE",
"267 896 CURVE",
"235 743 LINE",
"273 777 OFFCURVE",
"313 792 OFFCURVE",
"355 792 CURVE SMOOTH",
"419 792 OFFCURVE",
"475 742 OFFCURVE",
"548 742 CURVE SMOOTH"
);
}
);
width = 714;
}
);
note = Ntilde;
unicode = 00D1;
},
{
glyphname = O;
lastChange = "2015-12-01 04:41:27 +0000";
layers = (
{
layerId = "EF7A456C-05AE-460A-9046-2BAC18FBC939";
name = Bold;
paths = (
{
closed = 1;
nodes = (
"568 -15 OFFCURVE",
"747 131 OFFCURVE",
"794 349 CURVE SMOOTH",
"840 568 OFFCURVE",
"698 714 OFFCURVE",
"492 714 CURVE SMOOTH",
"261 714 OFFCURVE",
"81 568 OFFCURVE",
"35 349 CURVE SMOOTH",
"-12 131 OFFCURVE",
"142 -15 OFFCURVE",
"337 -15 CURVE SMOOTH"
);
},
{
closed = 1;
nodes = (
"281 208 OFFCURVE",
"257 260 OFFCURVE",
"276 349 CURVE SMOOTH",
"294 437 OFFCURVE",
"366 490 OFFCURVE",
"445 490 CURVE SMOOTH",
"543 490 OFFCURVE",
"571 437 OFFCURVE",
"553 349 CURVE SMOOTH",
"534 260 OFFCURVE",
"462 208 OFFCURVE",
"385 208 CURVE SMOOTH"
);
}
);
width = 789;
}
);
leftKerningGroup = O;
note = O;
rightKerningGroup = O;
unicode = 004F;
},
{
glyphname = Oacute;
lastChange = "2015-12-01 04:41:27 +0000";
layers = (
{
layerId = "EF7A456C-05AE-460A-9046-2BAC18FBC939";
name = Bold;
paths = (
{
closed = 1;
nodes = (
"568 -15 OFFCURVE",
"747 131 OFFCURVE",
"794 349 CURVE SMOOTH",
"840 568 OFFCURVE",
"698 714 OFFCURVE",
"492 714 CURVE SMOOTH",
"261 714 OFFCURVE",
"81 568 OFFCURVE",
"35 349 CURVE SMOOTH",
"-12 131 OFFCURVE",
"142 -15 OFFCURVE",
"337 -15 CURVE SMOOTH"
);
},
{
closed = 1;
nodes = (
"281 208 OFFCURVE",
"257 260 OFFCURVE",
"276 349 CURVE SMOOTH",
"294 437 OFFCURVE",
"366 490 OFFCURVE",
"445 490 CURVE SMOOTH",
"543 490 OFFCURVE",
"571 437 OFFCURVE",
"553 349 CURVE SMOOTH",
"534 260 OFFCURVE",
"462 208 OFFCURVE",
"385 208 CURVE SMOOTH"
);
},
{
closed = 1;
nodes = (
"555 742 LINE",
"688 923 LINE",
"471 923 LINE",
"365 742 LINE"
);
}
);
width = 789;
}
);
leftKerningGroup = O;
note = Oacute;
rightKerningGroup = O;
unicode = 00D3;
},
{
glyphname = Obreve;
lastChange = "2015-12-01 04:41:26 +0000";
layers = (
{
layerId = "EF7A456C-05AE-460A-9046-2BAC18FBC939";
name = Bold;
paths = (
{
closed = 1;
nodes = (
"568 -15 OFFCURVE",
"747 131 OFFCURVE",
"794 349 CURVE SMOOTH",
"840 568 OFFCURVE",
"698 714 OFFCURVE",
"492 714 CURVE SMOOTH",
"261 714 OFFCURVE",
"81 568 OFFCURVE",
"35 349 CURVE SMOOTH",
"-12 131 OFFCURVE",
"142 -15 OFFCURVE",
"337 -15 CURVE SMOOTH"
);
},
{
closed = 1;
nodes = (
"281 208 OFFCURVE",
"257 260 OFFCURVE",
"276 349 CURVE SMOOTH",
"294 437 OFFCURVE",
"366 490 OFFCURVE",
"445 490 CURVE SMOOTH",
"543 490 OFFCURVE",
"571 437 OFFCURVE",
"553 349 CURVE SMOOTH",
"534 260 OFFCURVE",
"462 208 OFFCURVE",
"385 208 CURVE SMOOTH"
);
},
{
closed = 1;
nodes = (
"610 742 OFFCURVE",
"698 816 OFFCURVE",
"723 937 CURVE",
"552 937 LINE",
"544 898 OFFCURVE",
"527 879 OFFCURVE",
"502 879 CURVE SMOOTH",
"477 879 OFFCURVE",
"468 898 OFFCURVE",
"476 937 CURVE",
"314 937 LINE",
"289 816 OFFCURVE",
"345 742 OFFCURVE",
"477 742 CURVE SMOOTH"
);
}
);
width = 789;
}
);
leftKerningGroup = O;
note = Obreve;
rightKerningGroup = O;
unicode = 014E;
},
{
glyphname = Ocaron;
lastChange = "2015-12-01 04:41:28 +0000";
layers = (
{
layerId = "EF7A456C-05AE-460A-9046-2BAC18FBC939";
name = Bold;
paths = (
{
closed = 1;
nodes = (
"568 -15 OFFCURVE",
"747 131 OFFCURVE",
"794 349 CURVE SMOOTH",
"840 568 OFFCURVE",
"698 714 OFFCURVE",
"492 714 CURVE SMOOTH",
"261 714 OFFCURVE",
"81 568 OFFCURVE",
"35 349 CURVE SMOOTH",
"-12 131 OFFCURVE",
"142 -15 OFFCURVE",
"337 -15 CURVE SMOOTH"
);
},
{
closed = 1;
nodes = (
"281 208 OFFCURVE",
"257 260 OFFCURVE",
"276 349 CURVE SMOOTH",
"294 437 OFFCURVE",
"366 490 OFFCURVE",
"445 490 CURVE SMOOTH",
"543 490 OFFCURVE",
"571 437 OFFCURVE",
"553 349 CURVE SMOOTH",
"534 260 OFFCURVE",
"462 208 OFFCURVE",
"385 208 CURVE SMOOTH"
);
},
{
closed = 1;
nodes = (
"578 742 LINE",
"783 933 LINE",
"572 933 LINE",
"496 853 LINE",
"454 933 LINE",
"252 933 LINE",
"376 742 LINE"
);
}
);
width = 789;
}
);
leftKerningGroup = O;
note = Ocaron;
rightKerningGroup = O;
unicode = 01D1;
},
{
glyphname = Ocircumflex;
lastChange = "2015-12-01 04:41:26 +0000";
layers = (
{
layerId = "EF7A456C-05AE-460A-9046-2BAC18FBC939";
name = Bold;
paths = (
{
closed = 1;
nodes = (
"568 -15 OFFCURVE",
"747 131 OFFCURVE",
"794 349 CURVE SMOOTH",
"840 568 OFFCURVE",
"698 714 OFFCURVE",
"492 714 CURVE SMOOTH",
"261 714 OFFCURVE",
"81 568 OFFCURVE",
"35 349 CURVE SMOOTH",
"-12 131 OFFCURVE",
"142 -15 OFFCURVE",
"337 -15 CURVE SMOOTH"
);
},
{
closed = 1;
nodes = (
"281 208 OFFCURVE",
"257 260 OFFCURVE",
"276 349 CURVE SMOOTH",
"294 437 OFFCURVE",
"366 490 OFFCURVE",
"445 490 CURVE SMOOTH",
"543 490 OFFCURVE",
"571 437 OFFCURVE",
"553 349 CURVE SMOOTH",
"534 260 OFFCURVE",
"462 208 OFFCURVE",
"385 208 CURVE SMOOTH"
);
},
{
closed = 1;
nodes = (
"425 756 LINE",
"501 836 LINE",
"543 756 LINE",
"746 756 LINE",
"621 947 LINE",
"419 947 LINE",
"215 756 LINE"
);
}
);
width = 789;
}
);
leftKerningGroup = O;
note = Ocircumflex;
rightKerningGroup = O;
unicode = 00D4;
},
{
glyphname = Ocircumflexacute;
lastChange = "2015-12-01 04:41:27 +0000";
layers = (
{
layerId = "EF7A456C-05AE-460A-9046-2BAC18FBC939";
name = Bold;
paths = (
{
closed = 1;
nodes = (
"568 -15 OFFCURVE",
"747 131 OFFCURVE",
"794 349 CURVE SMOOTH",
"840 568 OFFCURVE",
"698 714 OFFCURVE",
"492 714 CURVE SMOOTH",
"261 714 OFFCURVE",
"81 568 OFFCURVE",
"35 349 CURVE SMOOTH",
"-12 131 OFFCURVE",
"142 -15 OFFCURVE",
"337 -15 CURVE SMOOTH"
);
},
{
closed = 1;
nodes = (
"281 208 OFFCURVE",
"257 260 OFFCURVE",
"276 349 CURVE SMOOTH",
"294 437 OFFCURVE",
"366 490 OFFCURVE",
"445 490 CURVE SMOOTH",
"543 490 OFFCURVE",
"571 437 OFFCURVE",
"553 349 CURVE SMOOTH",
"534 260 OFFCURVE",
"462 208 OFFCURVE",
"385 208 CURVE SMOOTH"
);
},
{
closed = 1;
nodes = (
"451 742 LINE",
"505 792 LINE",
"539 742 LINE",
"730 742 LINE",
"600 903 LINE",
"458 903 LINE",
"259 742 LINE"
);
},
{
closed = 1;
nodes = (
"843 875 LINE",
"959 1024 LINE",
"752 1024 LINE",
"663 875 LINE"
);
}
);
width = 789;
}
);
leftKerningGroup = O;
note = Ocircumflexacute;
rightKerningGroup = O;
unicode = 1ED0;
},
{
glyphname = Ocircumflexdotbelow;
lastChange = "2015-12-01 04:46:05 +0000";
layers = (
{
layerId = "EF7A456C-05AE-460A-9046-2BAC18FBC939";
name = Bold;
paths = (
{
closed = 1;
nodes = (
"568 -15 OFFCURVE",
"747 131 OFFCURVE",
"794 349 CURVE SMOOTH",
"840 568 OFFCURVE",
"698 714 OFFCURVE",
"492 714 CURVE SMOOTH",
"261 714 OFFCURVE",
"81 568 OFFCURVE",
"35 349 CURVE SMOOTH",
"-12 131 OFFCURVE",
"142 -15 OFFCURVE",
"337 -15 CURVE SMOOTH"
);
},
{
closed = 1;
nodes = (
"281 208 OFFCURVE",
"257 260 OFFCURVE",
"276 349 CURVE SMOOTH",
"294 437 OFFCURVE",
"366 490 OFFCURVE",
"445 490 CURVE SMOOTH",
"543 490 OFFCURVE",
"571 437 OFFCURVE",
"553 349 CURVE SMOOTH",
"534 260 OFFCURVE",
"462 208 OFFCURVE",
"385 208 CURVE SMOOTH"
);
},
{
closed = 1;
nodes = (
"422 742 LINE",
"498 822 LINE",
"540 742 LINE",
"743 742 LINE",
"618 933 LINE",
"416 933 LINE",
"212 742 LINE"
);
},
{
closed = 1;
nodes = (
"342 -220 OFFCURVE",
"389 -182 OFFCURVE",
"399 -133 CURVE SMOOTH",
"410 -84 OFFCURVE",
"379 -45 OFFCURVE",
"332 -45 CURVE SMOOTH",
"285 -45 OFFCURVE",
"236 -84 OFFCURVE",
"225 -133 CURVE SMOOTH",
"215 -182 OFFCURVE",
"248 -220 OFFCURVE",
"295 -220 CURVE SMOOTH"
);
}
);
width = 789;
}
);
leftKerningGroup = O;
note = Ocircumflexdotbelow;
rightKerningGroup = O;
unicode = 1ED8;
},
{
glyphname = Ocircumflexgrave;
lastChange = "2015-12-01 04:46:13 +0000";
layers = (
{
layerId = "EF7A456C-05AE-460A-9046-2BAC18FBC939";
name = Bold;
paths = (
{
closed = 1;
nodes = (
"568 -15 OFFCURVE",
"747 131 OFFCURVE",
"794 349 CURVE SMOOTH",
"840 568 OFFCURVE",
"698 714 OFFCURVE",
"492 714 CURVE SMOOTH",
"261 714 OFFCURVE",
"81 568 OFFCURVE",
"35 349 CURVE SMOOTH",
"-12 131 OFFCURVE",
"142 -15 OFFCURVE",
"337 -15 CURVE SMOOTH"
);
},
{
closed = 1;
nodes = (
"281 208 OFFCURVE",
"257 260 OFFCURVE",
"276 349 CURVE SMOOTH",
"294 437 OFFCURVE",
"366 490 OFFCURVE",
"445 490 CURVE SMOOTH",
"543 490 OFFCURVE",
"571 437 OFFCURVE",
"553 349 CURVE SMOOTH",
"534 260 OFFCURVE",
"462 208 OFFCURVE",
"385 208 CURVE SMOOTH"
);
},
{
closed = 1;
nodes = (
"454 742 LINE",
"508 792 LINE",
"542 742 LINE",
"733 742 LINE",
"602 903 LINE",
"461 903 LINE",
"262 742 LINE"
);
},
{
closed = 1;
nodes = (
"389 875 LINE",
"364 1024 LINE",
"157 1024 LINE",
"209 875 LINE"
);
}
);
width = 789;
}
);
leftKerningGroup = O;
note = Ocircumflexgrave;
rightKerningGroup = O;
unicode = 1ED2;
},
{
glyphname = Ocircumflexhookabove;
lastChange = "2015-12-01 04:41:26 +0000";
layers = (
{
layerId = "EF7A456C-05AE-460A-9046-2BAC18FBC939";
name = Bold;
paths = (
{
closed = 1;
nodes = (
"568 -15 OFFCURVE",
"747 131 OFFCURVE",
"794 349 CURVE SMOOTH",
"840 568 OFFCURVE",
"698 714 OFFCURVE",
"492 714 CURVE SMOOTH",
"261 714 OFFCURVE",
"81 568 OFFCURVE",
"35 349 CURVE SMOOTH",
"-12 131 OFFCURVE",
"142 -15 OFFCURVE",
"337 -15 CURVE SMOOTH"
);
},
{
closed = 1;
nodes = (
"281 208 OFFCURVE",
"257 260 OFFCURVE",
"276 349 CURVE SMOOTH",
"294 437 OFFCURVE",
"366 490 OFFCURVE",
"445 490 CURVE SMOOTH",
"543 490 OFFCURVE",
"571 437 OFFCURVE",
"553 349 CURVE SMOOTH",
"534 260 OFFCURVE",
"462 208 OFFCURVE",
"385 208 CURVE SMOOTH"
);
},
{
closed = 1;
nodes = (
"461 742 LINE",
"515 792 LINE",
"549 742 LINE",
"740 742 LINE",
"610 903 LINE",
"468 903 LINE",
"269 742 LINE"
);
},
{
closed = 1;
nodes = (
"795 863 LINE",
"800 889 LINE",
"838 901 OFFCURVE",
"865 922 OFFCURVE",
"872 955 CURVE SMOOTH",
"882 1001 OFFCURVE",
"849 1032 OFFCURVE",
"768 1032 CURVE SMOOTH",
"738 1032 OFFCURVE",
"692 1026 OFFCURVE",
"667 1019 CURVE",
"652 950 LINE",
"661 954 OFFCURVE",
"675 956 OFFCURVE",
"685 956 CURVE SMOOTH",
"711 956 OFFCURVE",
"722 948 OFFCURVE",
"719 936 CURVE",
"716 920 OFFCURVE",
"696 915 OFFCURVE",
"669 915 CURVE",
"658 863 LINE"
);
}
);
width = 789;
}
);
leftKerningGroup = O;
note = Ocircumflexhookabove;
rightKerningGroup = O;
unicode = 1ED4;
},
{
glyphname = Ocircumflextilde;
lastChange = "2015-12-01 04:41:26 +0000";
layers = (
{
layerId = "EF7A456C-05AE-460A-9046-2BAC18FBC939";
name = Bold;
paths = (
{
closed = 1;
nodes = (
"568 -15 OFFCURVE",
"747 131 OFFCURVE",
"794 349 CURVE SMOOTH",
"840 568 OFFCURVE",
"698 714 OFFCURVE",
"492 714 CURVE SMOOTH",
"261 714 OFFCURVE",
"81 568 OFFCURVE",
"35 349 CURVE SMOOTH",
"-12 131 OFFCURVE",
"142 -15 OFFCURVE",
"337 -15 CURVE SMOOTH"
);
},
{
closed = 1;
nodes = (
"281 208 OFFCURVE",
"257 260 OFFCURVE",
"276 349 CURVE SMOOTH",
"294 437 OFFCURVE",
"366 490 OFFCURVE",
"445 490 CURVE SMOOTH",
"543 490 OFFCURVE",
"571 437 OFFCURVE",
"553 349 CURVE SMOOTH",
"534 260 OFFCURVE",
"462 208 OFFCURVE",
"385 208 CURVE SMOOTH"
);
},
{
closed = 1;
nodes = (
"608 742 OFFCURVE",
"700 804 OFFCURVE",
"721 904 CURVE",
"578 904 LINE",
"571 872 OFFCURVE",
"551 851 OFFCURVE",
"516 851 CURVE SMOOTH",
"481 851 OFFCURVE",
"469 872 OFFCURVE",
"476 904 CURVE",
"342 904 LINE",
"321 804 OFFCURVE",
"388 742 OFFCURVE",
"498 742 CURVE SMOOTH"
);
},
{
closed = 1;
nodes = (
"653 919 OFFCURVE",
"685 928 OFFCURVE",
"711 951 CURVE",
"735 1064 LINE",
"704 1037 OFFCURVE",
"672 1025 OFFCURVE",
"640 1025 CURVE SMOOTH",
"587 1025 OFFCURVE",
"538 1065 OFFCURVE",
"483 1065 CURVE SMOOTH",
"446 1065 OFFCURVE",
"414 1056 OFFCURVE",
"389 1033 CURVE",
"365 920 LINE",
"395 947 OFFCURVE",
"428 959 OFFCURVE",
"461 959 CURVE SMOOTH",
"513 959 OFFCURVE",
"558 919 OFFCURVE",
"617 919 CURVE SMOOTH"
);
}
);
width = 789;
}
);
leftKerningGroup = O;
note = Ocircumflextilde;
rightKerningGroup = O;
unicode = 1ED6;
},
{
glyphname = Odieresis;
lastChange = "2015-12-01 04:41:27 +0000";
layers = (
{
layerId = "EF7A456C-05AE-460A-9046-2BAC18FBC939";
name = Bold;
paths = (
{
closed = 1;
nodes = (
"568 -15 OFFCURVE",
"747 131 OFFCURVE",
"794 349 CURVE SMOOTH",
"840 568 OFFCURVE",
"698 714 OFFCURVE",
"492 714 CURVE SMOOTH",
"261 714 OFFCURVE",
"81 568 OFFCURVE",
"35 349 CURVE SMOOTH",
"-12 131 OFFCURVE",
"142 -15 OFFCURVE",
"337 -15 CURVE SMOOTH"
);
},
{
closed = 1;
nodes = (
"281 208 OFFCURVE",
"257 260 OFFCURVE",
"276 349 CURVE SMOOTH",
"294 437 OFFCURVE",
"366 490 OFFCURVE",
"445 490 CURVE SMOOTH",
"543 490 OFFCURVE",
"571 437 OFFCURVE",
"553 349 CURVE SMOOTH",
"534 260 OFFCURVE",
"462 208 OFFCURVE",
"385 208 CURVE SMOOTH"
);
},
{
closed = 1;
nodes = (
"411 752 OFFCURVE",
"458 790 OFFCURVE",
"468 839 CURVE SMOOTH",
"479 888 OFFCURVE",
"448 927 OFFCURVE",
"400 927 CURVE SMOOTH",
"354 927 OFFCURVE",
"305 888 OFFCURVE",
"294 839 CURVE SMOOTH",
"284 790 OFFCURVE",
"317 752 OFFCURVE",
"363 752 CURVE SMOOTH"
);
},
{
closed = 1;
nodes = (
"645 752 OFFCURVE",
"692 790 OFFCURVE",
"702 839 CURVE SMOOTH",
"713 888 OFFCURVE",
"682 927 OFFCURVE",
"635 927 CURVE SMOOTH",
"587 927 OFFCURVE",
"539 888 OFFCURVE",
"528 839 CURVE SMOOTH",
"518 790 OFFCURVE",
"550 752 OFFCURVE",
"598 752 CURVE SMOOTH"
);
}
);
width = 789;
}
);
leftKerningGroup = O;
note = Odieresis;
rightKerningGroup = O;
unicode = 00D6;
},
{
glyphname = Odotbelow;
lastChange = "2015-12-01 04:46:18 +0000";
layers = (
{
layerId = "EF7A456C-05AE-460A-9046-2BAC18FBC939";
name = Bold;
paths = (
{
closed = 1;
nodes = (
"568 -15 OFFCURVE",
"747 131 OFFCURVE",
"794 349 CURVE SMOOTH",
"840 568 OFFCURVE",
"698 714 OFFCURVE",
"492 714 CURVE SMOOTH",
"261 714 OFFCURVE",
"81 568 OFFCURVE",
"35 349 CURVE SMOOTH",
"-12 131 OFFCURVE",
"142 -15 OFFCURVE",
"337 -15 CURVE SMOOTH"
);
},
{
closed = 1;
nodes = (
"281 208 OFFCURVE",
"257 260 OFFCURVE",
"276 349 CURVE SMOOTH",
"294 437 OFFCURVE",
"366 490 OFFCURVE",
"445 490 CURVE SMOOTH",
"543 490 OFFCURVE",
"571 437 OFFCURVE",
"553 349 CURVE SMOOTH",
"534 260 OFFCURVE",
"462 208 OFFCURVE",
"385 208 CURVE SMOOTH"
);
},
{
closed = 1;
nodes = (
"342 -220 OFFCURVE",
"389 -182 OFFCURVE",
"399 -133 CURVE SMOOTH",
"410 -84 OFFCURVE",
"379 -45 OFFCURVE",
"332 -45 CURVE SMOOTH",
"285 -45 OFFCURVE",
"236 -84 OFFCURVE",
"225 -133 CURVE SMOOTH",
"215 -182 OFFCURVE",
"248 -220 OFFCURVE",
"295 -220 CURVE SMOOTH"
);
}
);
width = 789;
}
);
leftKerningGroup = O;
note = Odotbelow;
rightKerningGroup = O;
unicode = 1ECC;
},
{
glyphname = Ograve;
lastChange = "2015-12-01 04:41:27 +0000";
layers = (
{
layerId = "EF7A456C-05AE-460A-9046-2BAC18FBC939";
name = Bold;
paths = (
{
closed = 1;
nodes = (
"568 -15 OFFCURVE",
"747 131 OFFCURVE",
"794 349 CURVE SMOOTH",
"840 568 OFFCURVE",
"698 714 OFFCURVE",
"492 714 CURVE SMOOTH",
"261 714 OFFCURVE",
"81 568 OFFCURVE",
"35 349 CURVE SMOOTH",
"-12 131 OFFCURVE",
"142 -15 OFFCURVE",
"337 -15 CURVE SMOOTH"
);
},
{
closed = 1;
nodes = (
"281 208 OFFCURVE",
"257 260 OFFCURVE",
"276 349 CURVE SMOOTH",
"294 437 OFFCURVE",
"366 490 OFFCURVE",
"445 490 CURVE SMOOTH",
"543 490 OFFCURVE",
"571 437 OFFCURVE",
"553 349 CURVE SMOOTH",
"534 260 OFFCURVE",
"462 208 OFFCURVE",
"385 208 CURVE SMOOTH"
);
},
{
closed = 1;
nodes = (
"577 742 LINE",
"547 923 LINE",
"330 923 LINE",
"387 742 LINE"
);
}
);
width = 789;
}
);
leftKerningGroup = O;
note = Ograve;
rightKerningGroup = O;
unicode = 00D2;
},
{
glyphname = Ohookabove;
lastChange = "2015-12-01 04:41:26 +0000";
layers = (
{
layerId = "EF7A456C-05AE-460A-9046-2BAC18FBC939";
name = Bold;
paths = (
{
closed = 1;
nodes = (
"568 -15 OFFCURVE",
"747 131 OFFCURVE",
"794 349 CURVE SMOOTH",
"840 568 OFFCURVE",
"698 714 OFFCURVE",
"492 714 CURVE SMOOTH",
"261 714 OFFCURVE",
"81 568 OFFCURVE",
"35 349 CURVE SMOOTH",
"-12 131 OFFCURVE",
"142 -15 OFFCURVE",
"337 -15 CURVE SMOOTH"
);
},
{
closed = 1;
nodes = (
"281 208 OFFCURVE",
"257 260 OFFCURVE",
"276 349 CURVE SMOOTH",
"294 437 OFFCURVE",
"366 490 OFFCURVE",
"445 490 CURVE SMOOTH",
"543 490 OFFCURVE",
"571 437 OFFCURVE",
"553 349 CURVE SMOOTH",
"534 260 OFFCURVE",
"462 208 OFFCURVE",
"385 208 CURVE SMOOTH"
);
},
{
closed = 1;
nodes = (
"550 742 LINE",
"558 782 LINE",
"615 798 OFFCURVE",
"658 825 OFFCURVE",
"670 877 CURVE SMOOTH",
"683 940 OFFCURVE",
"634 981 OFFCURVE",
"515 981 CURVE SMOOTH",
"471 981 OFFCURVE",
"406 972 OFFCURVE",
"370 962 CURVE",
"352 877 LINE",
"365 881 OFFCURVE",
"390 886 OFFCURVE",
"410 886 CURVE SMOOTH",
"451 886 OFFCURVE",
"467 876 OFFCURVE",
"463 854 CURVE",
"457 827 OFFCURVE",
"435 816 OFFCURVE",
"379 816 CURVE",
"363 742 LINE"
);
}
);
width = 789;
}
);
leftKerningGroup = O;
note = Ohookabove;
rightKerningGroup = O;
unicode = 1ECE;
},
{
glyphname = Ohorn;
lastChange = "2015-12-01 04:41:27 +0000";
layers = (
{
layerId = "EF7A456C-05AE-460A-9046-2BAC18FBC939";
name = Bold;
paths = (
{
closed = 1;
nodes = (
"568 -15 OFFCURVE",
"748 131 OFFCURVE",
"794 349 CURVE SMOOTH",
"805 400 OFFCURVE",
"805 447 OFFCURVE",
"797 489 CURVE",
"919 508 OFFCURVE",
"995 592 OFFCURVE",
"1018 700 CURVE SMOOTH",
"1028 747 LINE",
"849 747 LINE",
"842 715 LINE SMOOTH",
"831 666 OFFCURVE",
"799 633 OFFCURVE",
"719 633 CURVE",
"664 685 OFFCURVE",
"584 714 OFFCURVE",
"492 714 CURVE SMOOTH",
"261 714 OFFCURVE",
"82 568 OFFCURVE",
"35 349 CURVE SMOOTH",
"-11 131 OFFCURVE",
"142 -15 OFFCURVE",
"337 -15 CURVE SMOOTH"
);
},
{
closed = 1;
nodes = (
"281 208 OFFCURVE",
"257 260 OFFCURVE",
"276 349 CURVE SMOOTH",
"294 437 OFFCURVE",
"366 490 OFFCURVE",
"445 490 CURVE SMOOTH",
"543 490 OFFCURVE",
"571 437 OFFCURVE",
"553 349 CURVE SMOOTH",
"534 260 OFFCURVE",
"462 208 OFFCURVE",
"385 208 CURVE SMOOTH"
);
}
);
width = 919;
}
);
leftKerningGroup = O;
note = Ohorn;
rightKerningGroup = O;
unicode = 01A0;
},
{
glyphname = Ohornacute;
lastChange = "2015-12-01 04:41:27 +0000";
layers = (
{
layerId = "EF7A456C-05AE-460A-9046-2BAC18FBC939";
name = Bold;
paths = (
{
closed = 1;
nodes = (
"568 -15 OFFCURVE",
"748 131 OFFCURVE",
"794 349 CURVE SMOOTH",
"805 400 OFFCURVE",
"805 447 OFFCURVE",
"797 489 CURVE",
"919 508 OFFCURVE",
"995 592 OFFCURVE",
"1018 700 CURVE SMOOTH",
"1028 747 LINE",
"849 747 LINE",
"842 715 LINE SMOOTH",
"831 666 OFFCURVE",
"799 633 OFFCURVE",
"719 633 CURVE",
"664 685 OFFCURVE",
"584 714 OFFCURVE",
"492 714 CURVE SMOOTH",
"261 714 OFFCURVE",
"82 568 OFFCURVE",
"35 349 CURVE SMOOTH",
"-11 131 OFFCURVE",
"142 -15 OFFCURVE",
"337 -15 CURVE SMOOTH"
);
},
{
closed = 1;
nodes = (
"281 208 OFFCURVE",
"257 260 OFFCURVE",
"276 349 CURVE SMOOTH",
"294 437 OFFCURVE",
"366 490 OFFCURVE",
"445 490 CURVE SMOOTH",
"543 490 OFFCURVE",
"571 437 OFFCURVE",
"553 349 CURVE SMOOTH",
"534 260 OFFCURVE",
"462 208 OFFCURVE",
"385 208 CURVE SMOOTH"
);
},
{
closed = 1;
nodes = (
"578 742 LINE",
"711 923 LINE",
"494 923 LINE",
"388 742 LINE"
);
}
);
width = 919;
}
);
leftKerningGroup = O;
note = Ohornacute;
rightKerningGroup = O;
unicode = 1EDA;
},
{
glyphname = Ohorndotbelow;
lastChange = "2015-12-01 04:46:22 +0000";
layers = (
{
layerId = "EF7A456C-05AE-460A-9046-2BAC18FBC939";
name = Bold;
paths = (
{
closed = 1;
nodes = (
"568 -15 OFFCURVE",
"748 131 OFFCURVE",
"794 349 CURVE SMOOTH",
"805 400 OFFCURVE",
"805 447 OFFCURVE",
"797 489 CURVE",
"919 508 OFFCURVE",
"995 592 OFFCURVE",
"1018 700 CURVE SMOOTH",
"1028 747 LINE",
"849 747 LINE",
"842 715 LINE SMOOTH",
"831 666 OFFCURVE",
"799 633 OFFCURVE",
"719 633 CURVE",
"664 685 OFFCURVE",
"584 714 OFFCURVE",
"492 714 CURVE SMOOTH",
"261 714 OFFCURVE",
"82 568 OFFCURVE",
"35 349 CURVE SMOOTH",
"-11 131 OFFCURVE",
"142 -15 OFFCURVE",
"337 -15 CURVE SMOOTH"
);
},
{
closed = 1;
nodes = (
"281 208 OFFCURVE",
"257 260 OFFCURVE",
"276 349 CURVE SMOOTH",
"294 437 OFFCURVE",
"366 490 OFFCURVE",
"445 490 CURVE SMOOTH",
"543 490 OFFCURVE",
"571 437 OFFCURVE",
"553 349 CURVE SMOOTH",
"534 260 OFFCURVE",
"462 208 OFFCURVE",
"385 208 CURVE SMOOTH"
);
},
{
closed = 1;
nodes = (
"349 -220 OFFCURVE",
"396 -182 OFFCURVE",
"406 -133 CURVE SMOOTH",
"417 -84 OFFCURVE",
"386 -45 OFFCURVE",
"339 -45 CURVE SMOOTH",
"292 -45 OFFCURVE",
"243 -84 OFFCURVE",
"232 -133 CURVE SMOOTH",
"222 -182 OFFCURVE",
"255 -220 OFFCURVE",
"302 -220 CURVE SMOOTH"
);
}
);
width = 919;
}
);
leftKerningGroup = O;
note = Ohorndotbelow;
rightKerningGroup = O;
unicode = 1EE2;
},
{
glyphname = Ohorngrave;
lastChange = "2015-12-01 04:41:27 +0000";
layers = (
{
layerId = "EF7A456C-05AE-460A-9046-2BAC18FBC939";
name = Bold;
paths = (
{
closed = 1;
nodes = (
"568 -15 OFFCURVE",
"748 131 OFFCURVE",
"794 349 CURVE SMOOTH",
"805 400 OFFCURVE",
"805 447 OFFCURVE",
"797 489 CURVE",
"919 508 OFFCURVE",
"995 592 OFFCURVE",
"1018 700 CURVE SMOOTH",
"1028 747 LINE",
"849 747 LINE",
"842 715 LINE SMOOTH",
"831 666 OFFCURVE",
"799 633 OFFCURVE",
"719 633 CURVE",
"664 685 OFFCURVE",
"584 714 OFFCURVE",
"492 714 CURVE SMOOTH",
"261 714 OFFCURVE",
"82 568 OFFCURVE",
"35 349 CURVE SMOOTH",
"-11 131 OFFCURVE",
"142 -15 OFFCURVE",
"337 -15 CURVE SMOOTH"
);
},
{
closed = 1;
nodes = (
"281 208 OFFCURVE",
"257 260 OFFCURVE",
"276 349 CURVE SMOOTH",
"294 437 OFFCURVE",
"366 490 OFFCURVE",
"445 490 CURVE SMOOTH",
"543 490 OFFCURVE",
"571 437 OFFCURVE",
"553 349 CURVE SMOOTH",
"534 260 OFFCURVE",
"462 208 OFFCURVE",
"385 208 CURVE SMOOTH"
);
},
{
closed = 1;
nodes = (
"565 742 LINE",
"535 923 LINE",
"318 923 LINE",
"375 742 LINE"
);
}
);
width = 919;
}
);
leftKerningGroup = O;
note = Ohorngrave;
rightKerningGroup = O;
unicode = 1EDC;
},
{
glyphname = Ohornhookabove;
lastChange = "2015-12-01 04:41:27 +0000";
layers = (
{
layerId = "EF7A456C-05AE-460A-9046-2BAC18FBC939";
name = Bold;
paths = (
{
closed = 1;
nodes = (
"568 -15 OFFCURVE",
"748 131 OFFCURVE",
"794 349 CURVE SMOOTH",
"805 400 OFFCURVE",
"805 447 OFFCURVE",
"797 489 CURVE",
"919 508 OFFCURVE",
"995 592 OFFCURVE",
"1018 700 CURVE SMOOTH",
"1028 747 LINE",
"849 747 LINE",
"842 715 LINE SMOOTH",
"831 666 OFFCURVE",
"799 633 OFFCURVE",
"719 633 CURVE",
"664 685 OFFCURVE",
"584 714 OFFCURVE",
"492 714 CURVE SMOOTH",
"261 714 OFFCURVE",
"82 568 OFFCURVE",
"35 349 CURVE SMOOTH",
"-11 131 OFFCURVE",
"142 -15 OFFCURVE",
"337 -15 CURVE SMOOTH"
);
},
{
closed = 1;
nodes = (
"281 208 OFFCURVE",
"257 260 OFFCURVE",
"276 349 CURVE SMOOTH",
"294 437 OFFCURVE",
"366 490 OFFCURVE",
"445 490 CURVE SMOOTH",
"543 490 OFFCURVE",
"571 437 OFFCURVE",
"553 349 CURVE SMOOTH",
"534 260 OFFCURVE",
"462 208 OFFCURVE",
"385 208 CURVE SMOOTH"
);
},
{
closed = 1;
nodes = (
"567 742 LINE",
"575 782 LINE",
"632 798 OFFCURVE",
"675 825 OFFCURVE",
"687 877 CURVE SMOOTH",
"700 940 OFFCURVE",
"651 981 OFFCURVE",
"532 981 CURVE SMOOTH",
"488 981 OFFCURVE",
"423 972 OFFCURVE",
"387 962 CURVE",
"369 877 LINE",
"382 881 OFFCURVE",
"407 886 OFFCURVE",
"427 886 CURVE SMOOTH",
"468 886 OFFCURVE",
"484 876 OFFCURVE",
"480 854 CURVE",
"474 827 OFFCURVE",
"452 816 OFFCURVE",
"396 816 CURVE",
"380 742 LINE"
);
}
);
width = 919;
}
);
leftKerningGroup = O;
note = Ohornhookabove;
rightKerningGroup = O;
unicode = 1EDE;
},
{
glyphname = Ohorntilde;
lastChange = "2015-12-01 04:41:28 +0000";
layers = (
{
layerId = "EF7A456C-05AE-460A-9046-2BAC18FBC939";
name = Bold;
paths = (
{
closed = 1;
nodes = (
"568 -15 OFFCURVE",
"748 131 OFFCURVE",
"794 349 CURVE SMOOTH",
"805 400 OFFCURVE",
"805 447 OFFCURVE",
"797 489 CURVE",
"919 508 OFFCURVE",
"995 592 OFFCURVE",
"1018 700 CURVE SMOOTH",
"1028 747 LINE",
"849 747 LINE",
"842 715 LINE SMOOTH",
"831 666 OFFCURVE",
"799 633 OFFCURVE",
"719 633 CURVE",
"664 685 OFFCURVE",
"584 714 OFFCURVE",
"492 714 CURVE SMOOTH",
"261 714 OFFCURVE",
"82 568 OFFCURVE",
"35 349 CURVE SMOOTH",
"-11 131 OFFCURVE",
"142 -15 OFFCURVE",
"337 -15 CURVE SMOOTH"
);
},
{
closed = 1;
nodes = (
"281 208 OFFCURVE",
"257 260 OFFCURVE",
"276 349 CURVE SMOOTH",
"294 437 OFFCURVE",
"366 490 OFFCURVE",
"445 490 CURVE SMOOTH",
"543 490 OFFCURVE",
"571 437 OFFCURVE",
"553 349 CURVE SMOOTH",
"534 260 OFFCURVE",
"462 208 OFFCURVE",
"385 208 CURVE SMOOTH"
);
},
{
closed = 1;
nodes = (
"650 742 OFFCURVE",
"690 753 OFFCURVE",
"722 782 CURVE",
"754 935 LINE",
"716 901 OFFCURVE",
"677 886 OFFCURVE",
"635 886 CURVE SMOOTH",
"570 886 OFFCURVE",
"510 936 OFFCURVE",
"442 936 CURVE SMOOTH",
"396 936 OFFCURVE",
"355 925 OFFCURVE",
"323 896 CURVE",
"291 743 LINE",
"329 777 OFFCURVE",
"369 792 OFFCURVE",
"411 792 CURVE SMOOTH",
"475 792 OFFCURVE",
"531 742 OFFCURVE",
"604 742 CURVE SMOOTH"
);
}
);
width = 919;
}
);
leftKerningGroup = O;
note = Ohorntilde;
rightKerningGroup = O;
unicode = 1EE0;
},
{
glyphname = Ohungarumlaut;
lastChange = "2015-12-01 04:41:26 +0000";
layers = (
{
layerId = "EF7A456C-05AE-460A-9046-2BAC18FBC939";
name = Bold;
paths = (
{
closed = 1;
nodes = (
"568 -15 OFFCURVE",
"747 131 OFFCURVE",
"794 349 CURVE SMOOTH",
"840 568 OFFCURVE",
"698 714 OFFCURVE",
"492 714 CURVE SMOOTH",
"261 714 OFFCURVE",
"81 568 OFFCURVE",
"35 349 CURVE SMOOTH",
"-12 131 OFFCURVE",
"142 -15 OFFCURVE",
"337 -15 CURVE SMOOTH"
);
},
{
closed = 1;
nodes = (
"281 208 OFFCURVE",
"257 260 OFFCURVE",
"276 349 CURVE SMOOTH",
"294 437 OFFCURVE",
"366 490 OFFCURVE",
"445 490 CURVE SMOOTH",
"543 490 OFFCURVE",
"571 437 OFFCURVE",
"553 349 CURVE SMOOTH",
"534 260 OFFCURVE",
"462 208 OFFCURVE",
"385 208 CURVE SMOOTH"
);
},
{
closed = 1;
nodes = (
"419 742 LINE",
"552 923 LINE",
"336 923 LINE",
"230 742 LINE"
);
},
{
closed = 1;
nodes = (
"699 742 LINE",
"832 923 LINE",
"615 923 LINE",
"509 742 LINE"
);
}
);
width = 789;
}
);
leftKerningGroup = O;
note = Ohungarumlaut;
rightKerningGroup = O;
unicode = 0150;
},
{
glyphname = Omacron;
lastChange = "2015-12-01 04:41:26 +0000";
layers = (
{
layerId = "EF7A456C-05AE-460A-9046-2BAC18FBC939";
name = Bold;
paths = (
{
closed = 1;
nodes = (
"568 -15 OFFCURVE",
"747 131 OFFCURVE",
"794 349 CURVE SMOOTH",
"840 568 OFFCURVE",
"698 714 OFFCURVE",
"492 714 CURVE SMOOTH",
"261 714 OFFCURVE",
"81 568 OFFCURVE",
"35 349 CURVE SMOOTH",
"-12 131 OFFCURVE",
"142 -15 OFFCURVE",
"337 -15 CURVE SMOOTH"
);
},
{
closed = 1;
nodes = (
"281 208 OFFCURVE",
"257 260 OFFCURVE",
"276 349 CURVE SMOOTH",
"294 437 OFFCURVE",
"366 490 OFFCURVE",
"445 490 CURVE SMOOTH",
"543 490 OFFCURVE",
"571 437 OFFCURVE",
"553 349 CURVE SMOOTH",
"534 260 OFFCURVE",
"462 208 OFFCURVE",
"385 208 CURVE SMOOTH"
);
},
{
closed = 1;
nodes = (
"660 742 LINE",
"691 885 LINE",
"325 885 LINE",
"294 742 LINE"
);
}
);
width = 789;
}
);
leftKerningGroup = O;
note = Omacron;
rightKerningGroup = O;
unicode = 014C;
},
{
glyphname = Oslash;
lastChange = "2015-12-01 04:41:27 +0000";
layers = (
{
layerId = "EF7A456C-05AE-460A-9046-2BAC18FBC939";
name = Bold;
paths = (
{
closed = 1;
nodes = (
"198 -86 LINE",
"248 -4 LINE",
"276 -11 OFFCURVE",
"306 -15 OFFCURVE",
"337 -15 CURVE SMOOTH",
"568 -15 OFFCURVE",
"747 131 OFFCURVE",
"794 349 CURVE SMOOTH",
"825 499 OFFCURVE",
"769 614 OFFCURVE",
"664 672 CURVE",
"733 784 LINE",
"622 784 LINE",
"574 706 LINE",
"548 711 OFFCURVE",
"520 714 OFFCURVE",
"492 714 CURVE SMOOTH",
"261 714 OFFCURVE",
"81 568 OFFCURVE",
"35 349 CURVE SMOOTH",
"4 204 OFFCURVE",
"61 91 OFFCURVE",
"160 31 CURVE",
"88 -86 LINE"
);
},
{
closed = 1;
nodes = (
"268 264 OFFCURVE",
"266 301 OFFCURVE",
"276 349 CURVE SMOOTH",
"293 435 OFFCURVE",
"364 488 OFFCURVE",
"441 490 CURVE",
"288 240 LINE"
);
},
{
closed = 1;
nodes = (
"534 462 LINE",
"558 438 OFFCURVE",
"563 399 OFFCURVE",
"553 349 CURVE SMOOTH",
"534 260 OFFCURVE",
"462 208 OFFCURVE",
"385 208 CURVE SMOOTH",
"378 208 LINE"
);
}
);
width = 789;
}
);
leftKerningGroup = O;
note = Oslash;
rightKerningGroup = O;
unicode = 00D8;
},
{
glyphname = Oslashacute;
lastChange = "2015-12-01 04:41:27 +0000";
layers = (
{
layerId = "EF7A456C-05AE-460A-9046-2BAC18FBC939";
name = Bold;
paths = (
{
closed = 1;
nodes = (
"198 -86 LINE",
"248 -4 LINE",
"276 -11 OFFCURVE",
"306 -15 OFFCURVE",
"337 -15 CURVE SMOOTH",
"568 -15 OFFCURVE",
"748 131 OFFCURVE",
"794 349 CURVE SMOOTH",
"826 499 OFFCURVE",
"769 614 OFFCURVE",
"664 672 CURVE",
"733 784 LINE",
"622 784 LINE",
"574 706 LINE",
"548 711 OFFCURVE",
"520 714 OFFCURVE",
"492 714 CURVE SMOOTH",
"261 714 OFFCURVE",
"82 568 OFFCURVE",
"35 349 CURVE SMOOTH",
"4 204 OFFCURVE",
"61 91 OFFCURVE",
"160 32 CURVE",
"88 -86 LINE"
);
},
{
closed = 1;
nodes = (
"268 264 OFFCURVE",
"266 301 OFFCURVE",
"276 349 CURVE SMOOTH",
"293 435 OFFCURVE",
"364 488 OFFCURVE",
"441 490 CURVE",
"288 240 LINE"
);
},
{
closed = 1;
nodes = (
"534 462 LINE",
"558 438 OFFCURVE",
"563 399 OFFCURVE",
"553 349 CURVE SMOOTH",
"534 260 OFFCURVE",
"462 208 OFFCURVE",
"385 208 CURVE SMOOTH",
"378 208 LINE"
);
},
{
closed = 1;
nodes = (
"524 742 LINE",
"657 923 LINE",
"440 923 LINE",
"334 742 LINE"
);
}
);
width = 789;
}
);
leftKerningGroup = O;
note = Oslashacute;
rightKerningGroup = O;
unicode = 01FE;
},
{
glyphname = Otilde;
lastChange = "2015-12-01 04:41:26 +0000";
layers = (
{
layerId = "EF7A456C-05AE-460A-9046-2BAC18FBC939";
name = Bold;
paths = (
{
closed = 1;
nodes = (
"568 -15 OFFCURVE",
"747 131 OFFCURVE",
"794 349 CURVE SMOOTH",
"840 568 OFFCURVE",
"698 714 OFFCURVE",
"492 714 CURVE SMOOTH",
"261 714 OFFCURVE",
"81 568 OFFCURVE",
"35 349 CURVE SMOOTH",
"-12 131 OFFCURVE",
"142 -15 OFFCURVE",
"337 -15 CURVE SMOOTH"
);
},
{
closed = 1;
nodes = (
"281 208 OFFCURVE",
"257 260 OFFCURVE",
"276 349 CURVE SMOOTH",
"294 437 OFFCURVE",
"366 490 OFFCURVE",
"445 490 CURVE SMOOTH",
"543 490 OFFCURVE",
"571 437 OFFCURVE",
"553 349 CURVE SMOOTH",
"534 260 OFFCURVE",
"462 208 OFFCURVE",
"385 208 CURVE SMOOTH"
);
},
{
closed = 1;
nodes = (
"628 754 OFFCURVE",
"668 765 OFFCURVE",
"700 794 CURVE",
"732 947 LINE",
"694 913 OFFCURVE",
"655 898 OFFCURVE",
"613 898 CURVE SMOOTH",
"548 898 OFFCURVE",
"488 948 OFFCURVE",
"420 948 CURVE SMOOTH",
"374 948 OFFCURVE",
"333 937 OFFCURVE",
"301 908 CURVE",
"269 755 LINE",
"307 789 OFFCURVE",
"347 804 OFFCURVE",
"389 804 CURVE SMOOTH",
"453 804 OFFCURVE",
"509 754 OFFCURVE",
"582 754 CURVE SMOOTH"
);
}
);
width = 789;
}
);
leftKerningGroup = O;
note = Otilde;
rightKerningGroup = O;
unicode = 00D5;
},
{
glyphname = OE;
lastChange = "2015-12-01 04:41:26 +0000";
layers = (
{
layerId = "EF7A456C-05AE-460A-9046-2BAC18FBC939";
name = Bold;
paths = (
{
closed = 1;
nodes = (
"824 0 LINE",
"866 199 LINE",
"615 199 LINE",
"628 260 LINE",
"797 260 LINE",
"835 439 LINE",
"666 439 LINE",
"679 500 LINE",
"930 500 LINE",
"972 699 LINE",
"507 699 LINE SMOOTH",
"263 699 OFFCURVE",
"81 568 OFFCURVE",
"35 349 CURVE SMOOTH",
"-12 131 OFFCURVE",
"140 0 OFFCURVE",
"359 0 CURVE SMOOTH"
);
},
{
closed = 1;
nodes = (
"277 223 OFFCURVE",
"259 268 OFFCURVE",
"276 349 CURVE SMOOTH",
"294 437 OFFCURVE",
"352 475 OFFCURVE",
"436 475 CURVE",
"383 223 LINE"
);
}
);
width = 893;
}
);
leftKerningGroup = O;
note = OE;
rightKerningGroup = E;
unicode = 0152;
},
{
glyphname = P;
lastChange = "2015-12-01 04:41:27 +0000";
layers = (
{
layerId = "EF7A456C-05AE-460A-9046-2BAC18FBC939";
name = Bold;
paths = (
{
closed = 1;
nodes = (
"218 0 LINE",
"258 191 LINE",
"357 191 LINE SMOOTH",
"550 191 OFFCURVE",
"657 276 OFFCURVE",
"693 445 CURVE SMOOTH",
"729 614 OFFCURVE",
"615 699 OFFCURVE",
"465 699 CURVE SMOOTH",
"129 699 LINE",
"-19 0 LINE"
);
},
{
closed = 1;
nodes = (
"328 522 LINE",
"379 522 LINE SMOOTH",
"438 522 OFFCURVE",
"467 504 OFFCURVE",
"454 445 CURVE SMOOTH",
"442 386 OFFCURVE",
"413 368 OFFCURVE",
"347 368 CURVE SMOOTH",
"296 368 LINE"
);
}
);
width = 658;
}
);
note = P;
unicode = 0050;
},
{
glyphname = Thorn;
lastChange = "2015-12-01 04:41:26 +0000";
layers = (
{
layerId = "EF7A456C-05AE-460A-9046-2BAC18FBC939";
name = Bold;
paths = (
{
closed = 1;
nodes = (
"218 0 LINE",
"239 99 LINE",
"338 99 LINE SMOOTH",
"506 99 OFFCURVE",
"638 184 OFFCURVE",
"674 353 CURVE SMOOTH",
"709 522 OFFCURVE",
"614 607 OFFCURVE",
"446 607 CURVE SMOOTH",
"347 607 LINE",
"366 699 LINE",
"129 699 LINE",
"-19 0 LINE"
);
},
{
closed = 1;
nodes = (
"308 428 LINE",
"357 428 LINE SMOOTH",
"408 428 OFFCURVE",
"445 412 OFFCURVE",
"433 353 CURVE SMOOTH",
"420 294 OFFCURVE",
"377 278 OFFCURVE",
"326 278 CURVE SMOOTH",
"277 278 LINE"
);
}
);
width = 658;
}
);
note = Thorn;
unicode = 00DE;
},
{
glyphname = Q;
lastChange = "2015-12-01 04:41:26 +0000";
layers = (
{
layerId = "EF7A456C-05AE-460A-9046-2BAC18FBC939";
name = Bold;
paths = (
{
closed = 1;
nodes = (
"742 0 LINE",
"778 173 LINE",
"676 173 LINE",
"729 213 OFFCURVE",
"783 299 OFFCURVE",
"796 361 CURVE SMOOTH",
"843 580 OFFCURVE",
"717 714 OFFCURVE",
"492 714 CURVE SMOOTH",
"250 714 OFFCURVE",
"81 568 OFFCURVE",
"35 349 CURVE SMOOTH",
"-12 131 OFFCURVE",
"125 0 OFFCURVE",
"369 0 CURVE SMOOTH"
);
},
{
closed = 1;
nodes = (
"298 208 OFFCURVE",
"257 260 OFFCURVE",
"276 349 CURVE SMOOTH",
"294 437 OFFCURVE",
"366 490 OFFCURVE",
"445 490 CURVE SMOOTH",
"539 490 OFFCURVE",
"571 437 OFFCURVE",
"553 349 CURVE SMOOTH",
"534 260 OFFCURVE",
"462 208 OFFCURVE",
"385 208 CURVE SMOOTH"
);
}
);
width = 796;
}
);
leftKerningGroup = O;
note = Q;
rightKerningGroup = O;
unicode = 0051;
},
{
glyphname = R;
lastChange = "2015-12-01 04:41:26 +0000";
layers = (
{
layerId = "EF7A456C-05AE-460A-9046-2BAC18FBC939";
name = Bold;
paths = (
{
closed = 1;
nodes = (
"214 0 LINE",
"254 191 LINE",
"299 191 LINE",
"351 0 LINE",
"590 0 LINE",
"528 227 LINE",
"610 267 OFFCURVE",
"670 339 OFFCURVE",
"693 445 CURVE SMOOTH",
"727 600 OFFCURVE",
"633 699 OFFCURVE",
"465 699 CURVE SMOOTH",
"129 699 LINE",
"-19 0 LINE"
);
},
{
closed = 1;
nodes = (
"324 522 LINE",
"377 522 LINE SMOOTH",
"428 522 OFFCURVE",
"465 504 OFFCURVE",
"452 445 CURVE SMOOTH",
"440 386 OFFCURVE",
"396 368 OFFCURVE",
"345 368 CURVE SMOOTH",
"292 368 LINE"
);
}
);
width = 668;
}
);
note = R;
rightKerningGroup = R;
unicode = 0052;
},
{
glyphname = Racute;
lastChange = "2015-12-01 04:41:26 +0000";
layers = (
{
layerId = "EF7A456C-05AE-460A-9046-2BAC18FBC939";
name = Bold;
paths = (
{
closed = 1;
nodes = (
"214 0 LINE",
"254 191 LINE",
"299 191 LINE",
"351 0 LINE",
"590 0 LINE",
"528 227 LINE",
"610 267 OFFCURVE",
"670 339 OFFCURVE",
"693 445 CURVE SMOOTH",
"727 600 OFFCURVE",
"633 699 OFFCURVE",
"465 699 CURVE SMOOTH",
"129 699 LINE",
"-19 0 LINE"
);
},
{
closed = 1;
nodes = (
"324 522 LINE",
"377 522 LINE SMOOTH",
"428 522 OFFCURVE",
"465 504 OFFCURVE",
"452 445 CURVE SMOOTH",
"440 386 OFFCURVE",
"396 368 OFFCURVE",
"345 368 CURVE SMOOTH",
"292 368 LINE"
);
},
{
closed = 1;
nodes = (
"450 742 LINE",
"583 923 LINE",
"366 923 LINE",
"260 742 LINE"
);
}
);
width = 668;
}
);
note = Racute;
rightKerningGroup = R;
unicode = 0154;
},
{
glyphname = Rcaron;
lastChange = "2015-12-01 04:41:26 +0000";
layers = (
{
layerId = "EF7A456C-05AE-460A-9046-2BAC18FBC939";
name = Bold;
paths = (
{
closed = 1;
nodes = (
"214 0 LINE",
"254 191 LINE",
"299 191 LINE",
"351 0 LINE",
"590 0 LINE",
"528 227 LINE",
"610 267 OFFCURVE",
"670 339 OFFCURVE",
"693 445 CURVE SMOOTH",
"727 600 OFFCURVE",
"633 699 OFFCURVE",
"465 699 CURVE SMOOTH",
"129 699 LINE",
"-19 0 LINE"
);
},
{
closed = 1;
nodes = (
"324 522 LINE",
"377 522 LINE SMOOTH",
"428 522 OFFCURVE",
"465 504 OFFCURVE",
"452 445 CURVE SMOOTH",
"440 386 OFFCURVE",
"396 368 OFFCURVE",
"345 368 CURVE SMOOTH",
"292 368 LINE"
);
},
{
closed = 1;
nodes = (
"527 742 LINE",
"732 933 LINE",
"521 933 LINE",
"445 853 LINE",
"403 933 LINE",
"201 933 LINE",
"325 742 LINE"
);
}
);
width = 668;
}
);
note = Rcaron;
rightKerningGroup = R;
unicode = 0158;
},
{
glyphname = Rcommaaccent;
lastChange = "2015-12-01 04:46:31 +0000";
layers = (
{
layerId = "EF7A456C-05AE-460A-9046-2BAC18FBC939";
name = Bold;
paths = (
{
closed = 1;
nodes = (
"214 0 LINE",
"254 191 LINE",
"299 191 LINE",
"351 0 LINE",
"590 0 LINE",
"528 227 LINE",
"610 267 OFFCURVE",
"670 339 OFFCURVE",
"693 445 CURVE SMOOTH",
"727 600 OFFCURVE",
"633 699 OFFCURVE",
"465 699 CURVE SMOOTH",
"129 699 LINE",
"-19 0 LINE"
);
},
{
closed = 1;
nodes = (
"324 522 LINE",
"377 522 LINE SMOOTH",
"428 522 OFFCURVE",
"465 504 OFFCURVE",
"452 445 CURVE SMOOTH",
"440 386 OFFCURVE",
"396 368 OFFCURVE",
"345 368 CURVE SMOOTH",
"292 368 LINE"
);
},
{
closed = 1;
nodes = (
"223 -259 LINE",
"381 -41 LINE",
"169 -41 LINE",
"39 -259 LINE"
);
}
);
width = 668;
}
);
note = Rcommaaccent;
rightKerningGroup = R;
unicode = 0156;
},
{
glyphname = Rdotbelow;
lastChange = "2015-12-01 04:46:43 +0000";
layers = (
{
layerId = "EF7A456C-05AE-460A-9046-2BAC18FBC939";
name = Bold;
paths = (
{
closed = 1;
nodes = (
"214 0 LINE",
"254 191 LINE",
"299 191 LINE",
"351 0 LINE",
"590 0 LINE",
"528 227 LINE",
"610 267 OFFCURVE",
"670 339 OFFCURVE",
"693 445 CURVE SMOOTH",
"727 600 OFFCURVE",
"633 699 OFFCURVE",
"465 699 CURVE SMOOTH",
"129 699 LINE",
"-19 0 LINE"
);
},
{
closed = 1;
nodes = (
"324 522 LINE",
"377 522 LINE SMOOTH",
"428 522 OFFCURVE",
"465 504 OFFCURVE",
"452 445 CURVE SMOOTH",
"440 386 OFFCURVE",
"396 368 OFFCURVE",
"345 368 CURVE SMOOTH",
"292 368 LINE"
);
},
{
closed = 1;
nodes = (
"270 -220 OFFCURVE",
"317 -182 OFFCURVE",
"327 -133 CURVE SMOOTH",
"338 -84 OFFCURVE",
"307 -45 OFFCURVE",
"260 -45 CURVE SMOOTH",
"213 -45 OFFCURVE",
"164 -84 OFFCURVE",
"153 -133 CURVE SMOOTH",
"143 -182 OFFCURVE",
"176 -220 OFFCURVE",
"223 -220 CURVE SMOOTH"
);
}
);
width = 668;
}
);
note = Rdotbelow;
rightKerningGroup = R;
unicode = 1E5A;
},
{
glyphname = Rdotbelowmacron;
lastChange = "2015-12-01 04:46:38 +0000";
layers = (
{
layerId = "EF7A456C-05AE-460A-9046-2BAC18FBC939";
name = Bold;
paths = (
{
closed = 1;
nodes = (
"214 0 LINE",
"254 191 LINE",
"299 191 LINE",
"351 0 LINE",
"590 0 LINE",
"528 227 LINE",
"610 267 OFFCURVE",
"670 339 OFFCURVE",
"693 445 CURVE SMOOTH",
"727 600 OFFCURVE",
"633 699 OFFCURVE",
"465 699 CURVE SMOOTH",
"129 699 LINE",
"-19 0 LINE"
);
},
{
closed = 1;
nodes = (
"324 522 LINE",
"377 522 LINE SMOOTH",
"428 522 OFFCURVE",
"465 504 OFFCURVE",
"452 445 CURVE SMOOTH",
"440 386 OFFCURVE",
"396 368 OFFCURVE",
"345 368 CURVE SMOOTH",
"292 368 LINE"
);
},
{
closed = 1;
nodes = (
"574 742 LINE",
"605 885 LINE",
"239 885 LINE",
"208 742 LINE"
);
},
{
closed = 1;
nodes = (
"270 -220 OFFCURVE",
"317 -182 OFFCURVE",
"327 -133 CURVE SMOOTH",
"338 -84 OFFCURVE",
"307 -45 OFFCURVE",
"260 -45 CURVE SMOOTH",
"213 -45 OFFCURVE",
"164 -84 OFFCURVE",
"153 -133 CURVE SMOOTH",
"143 -182 OFFCURVE",
"176 -220 OFFCURVE",
"223 -220 CURVE SMOOTH"
);
}
);
width = 668;
}
);
note = Rdotbelowmacron;
rightKerningGroup = R;
unicode = 1E5C;
},
{
glyphname = Rlinebelow;
lastChange = "2015-12-01 04:46:48 +0000";
layers = (
{
layerId = "EF7A456C-05AE-460A-9046-2BAC18FBC939";
name = Bold;
paths = (
{
closed = 1;
nodes = (
"214 0 LINE",
"254 191 LINE",
"299 191 LINE",
"351 0 LINE",
"590 0 LINE",
"528 227 LINE",
"610 267 OFFCURVE",
"670 339 OFFCURVE",
"693 445 CURVE SMOOTH",
"727 600 OFFCURVE",
"633 699 OFFCURVE",
"465 699 CURVE SMOOTH",
"129 699 LINE",
"-19 0 LINE"
);
},
{
closed = 1;
nodes = (
"324 522 LINE",
"377 522 LINE SMOOTH",
"428 522 OFFCURVE",
"465 504 OFFCURVE",
"452 445 CURVE SMOOTH",
"440 386 OFFCURVE",
"396 368 OFFCURVE",
"345 368 CURVE SMOOTH",
"292 368 LINE"
);
},
{
closed = 1;
nodes = (
"412 -192 LINE",
"442 -49 LINE",
"76 -49 LINE",
"46 -192 LINE"
);
}
);
width = 668;
}
);
note = Rlinebelow;
rightKerningGroup = R;
unicode = 1E5E;
},
{
glyphname = S;
lastChange = "2015-12-01 04:41:27 +0000";
layers = (
{
layerId = "EF7A456C-05AE-460A-9046-2BAC18FBC939";
name = Bold;
paths = (
{
closed = 1;
nodes = (
"435 -15 OFFCURVE",
"526 71 OFFCURVE",
"553 201 CURVE SMOOTH",
"577 312 OFFCURVE",
"549 363 OFFCURVE",
"421 422 CURVE SMOOTH",
"356 452 OFFCURVE",
"317 462 OFFCURVE",
"322 489 CURVE",
"328 513 OFFCURVE",
"361 520 OFFCURVE",
"400 520 CURVE SMOOTH",
"455 520 OFFCURVE",
"514 504 OFFCURVE",
"567 470 CURVE",
"610 669 LINE",
"552 700 OFFCURVE",
"489 714 OFFCURVE",
"397 714 CURVE SMOOTH",
"216 714 OFFCURVE",
"95 624 OFFCURVE",
"68 495 CURVE SMOOTH",
"47 396 OFFCURVE",
"89 332 OFFCURVE",
"204 276 CURVE SMOOTH",
"276 241 OFFCURVE",
"299 229 OFFCURVE",
"294 204 CURVE SMOOTH",
"290 187 OFFCURVE",
"274 179 OFFCURVE",
"233 179 CURVE SMOOTH",
"166 179 OFFCURVE",
"81 199 OFFCURVE",
"12 243 CURVE",
"-32 37 LINE",
"21 5 OFFCURVE",
"119 -15 OFFCURVE",
"210 -15 CURVE SMOOTH"
);
}
);
width = 580;
}
);
leftKerningGroup = S;
note = S;
rightKerningGroup = S;
unicode = 0053;
},
{
glyphname = Sacute;
lastChange = "2015-12-01 04:41:28 +0000";
layers = (
{
layerId = "EF7A456C-05AE-460A-9046-2BAC18FBC939";
name = Bold;
paths = (
{
closed = 1;
nodes = (
"435 -15 OFFCURVE",
"526 71 OFFCURVE",
"553 201 CURVE SMOOTH",
"577 312 OFFCURVE",
"549 363 OFFCURVE",
"421 422 CURVE SMOOTH",
"356 452 OFFCURVE",
"317 462 OFFCURVE",
"322 489 CURVE",
"328 513 OFFCURVE",
"361 520 OFFCURVE",
"400 520 CURVE SMOOTH",
"455 520 OFFCURVE",
"514 504 OFFCURVE",
"567 470 CURVE",
"610 669 LINE",
"552 700 OFFCURVE",
"489 714 OFFCURVE",
"397 714 CURVE SMOOTH",
"216 714 OFFCURVE",
"95 624 OFFCURVE",
"68 495 CURVE SMOOTH",
"47 396 OFFCURVE",
"89 332 OFFCURVE",
"204 276 CURVE SMOOTH",
"276 241 OFFCURVE",
"299 229 OFFCURVE",
"294 204 CURVE SMOOTH",
"290 187 OFFCURVE",
"274 179 OFFCURVE",
"233 179 CURVE SMOOTH",
"166 179 OFFCURVE",
"81 199 OFFCURVE",
"12 243 CURVE",
"-32 37 LINE",
"21 5 OFFCURVE",
"119 -15 OFFCURVE",
"210 -15 CURVE SMOOTH"
);
},
{
closed = 1;
nodes = (
"459 742 LINE",
"592 923 LINE",
"375 923 LINE",
"269 742 LINE"
);
}
);
width = 580;
}
);
leftKerningGroup = S;
note = Sacute;
rightKerningGroup = S;
unicode = 015A;
},
{
glyphname = Scaron;
lastChange = "2015-12-01 04:46:58 +0000";
layers = (
{
layerId = "EF7A456C-05AE-460A-9046-2BAC18FBC939";
name = Bold;
paths = (
{
closed = 1;
nodes = (
"435 -15 OFFCURVE",
"526 71 OFFCURVE",
"553 201 CURVE SMOOTH",
"577 312 OFFCURVE",
"549 363 OFFCURVE",
"421 422 CURVE SMOOTH",
"356 452 OFFCURVE",
"317 462 OFFCURVE",
"322 489 CURVE",
"328 513 OFFCURVE",
"361 520 OFFCURVE",
"400 520 CURVE SMOOTH",
"455 520 OFFCURVE",
"514 504 OFFCURVE",
"567 470 CURVE",
"610 669 LINE",
"552 700 OFFCURVE",
"489 714 OFFCURVE",
"397 714 CURVE SMOOTH",
"216 714 OFFCURVE",
"95 624 OFFCURVE",
"68 495 CURVE SMOOTH",
"47 396 OFFCURVE",
"89 332 OFFCURVE",
"204 276 CURVE SMOOTH",
"276 241 OFFCURVE",
"299 229 OFFCURVE",
"294 204 CURVE SMOOTH",
"290 187 OFFCURVE",
"274 179 OFFCURVE",
"233 179 CURVE SMOOTH",
"166 179 OFFCURVE",
"81 199 OFFCURVE",
"12 243 CURVE",
"-32 37 LINE",
"21 5 OFFCURVE",
"119 -15 OFFCURVE",
"210 -15 CURVE SMOOTH"
);
},
{
closed = 1;
nodes = (
"465 742 LINE",
"670 933 LINE",
"459 933 LINE",
"383 853 LINE",
"341 933 LINE",
"139 933 LINE",
"263 742 LINE"
);
}
);
width = 580;
}
);
leftKerningGroup = S;
note = Scaron;
rightKerningGroup = S;
unicode = 0160;
},
{
glyphname = Scedilla;
lastChange = "2015-12-01 04:41:26 +0000";
layers = (
{
layerId = "EF7A456C-05AE-460A-9046-2BAC18FBC939";
name = Bold;
paths = (
{
closed = 1;
nodes = (
"279 -248 OFFCURVE",
"334 -195 OFFCURVE",
"346 -137 CURVE SMOOTH",
"357 -88 OFFCURVE",
"327 -57 OFFCURVE",
"271 -49 CURVE",
"295 -10 LINE",
"458 10 OFFCURVE",
"529 89 OFFCURVE",
"553 201 CURVE SMOOTH",
"577 312 OFFCURVE",
"549 363 OFFCURVE",
"421 422 CURVE SMOOTH",
"356 452 OFFCURVE",
"317 462 OFFCURVE",
"322 489 CURVE",
"328 513 OFFCURVE",
"361 520 OFFCURVE",
"400 520 CURVE SMOOTH",
"455 520 OFFCURVE",
"514 504 OFFCURVE",
"567 470 CURVE",
"610 669 LINE",
"552 700 OFFCURVE",
"489 714 OFFCURVE",
"397 714 CURVE SMOOTH",
"216 714 OFFCURVE",
"95 624 OFFCURVE",
"68 495 CURVE SMOOTH",
"47 396 OFFCURVE",
"89 332 OFFCURVE",
"204 276 CURVE SMOOTH",
"276 241 OFFCURVE",
"299 229 OFFCURVE",
"294 204 CURVE SMOOTH",
"290 187 OFFCURVE",
"274 179 OFFCURVE",
"233 179 CURVE SMOOTH",
"166 179 OFFCURVE",
"81 199 OFFCURVE",
"12 243 CURVE",
"-32 37 LINE",
"7 13 OFFCURVE",
"70 -3 OFFCURVE",
"137 -11 CURVE",
"104 -76 LINE",
"171 -76 OFFCURVE",
"186 -97 OFFCURVE",
"180 -126 CURVE SMOOTH",
"175 -147 OFFCURVE",
"157 -165 OFFCURVE",
"119 -165 CURVE SMOOTH",
"96 -165 OFFCURVE",
"76 -158 OFFCURVE",
"62 -149 CURVE",
"42 -232 LINE",
"64 -241 OFFCURVE",
"103 -248 OFFCURVE",
"157 -248 CURVE SMOOTH"
);
}
);
width = 580;
}
);
leftKerningGroup = S;
note = Scedilla;
rightKerningGroup = S;
unicode = 015E;
},
{
glyphname = Scircumflex;
lastChange = "2015-12-01 04:41:27 +0000";
layers = (
{
layerId = "EF7A456C-05AE-460A-9046-2BAC18FBC939";
name = Bold;
paths = (
{
closed = 1;
nodes = (
"435 -15 OFFCURVE",
"526 71 OFFCURVE",
"553 201 CURVE SMOOTH",
"577 312 OFFCURVE",
"549 363 OFFCURVE",
"421 422 CURVE SMOOTH",
"356 452 OFFCURVE",
"317 462 OFFCURVE",
"322 489 CURVE",
"328 513 OFFCURVE",
"361 520 OFFCURVE",
"400 520 CURVE SMOOTH",
"455 520 OFFCURVE",
"514 504 OFFCURVE",
"567 470 CURVE",
"610 669 LINE",
"552 700 OFFCURVE",
"489 714 OFFCURVE",
"397 714 CURVE SMOOTH",
"216 714 OFFCURVE",
"95 624 OFFCURVE",
"68 495 CURVE SMOOTH",
"47 396 OFFCURVE",
"89 332 OFFCURVE",
"204 276 CURVE SMOOTH",
"276 241 OFFCURVE",
"299 229 OFFCURVE",
"294 204 CURVE SMOOTH",
"290 187 OFFCURVE",
"274 179 OFFCURVE",
"233 179 CURVE SMOOTH",
"166 179 OFFCURVE",
"81 199 OFFCURVE",
"12 243 CURVE",
"-32 37 LINE",
"21 5 OFFCURVE",
"119 -15 OFFCURVE",
"210 -15 CURVE SMOOTH"
);
},
{
closed = 1;
nodes = (
"313 742 LINE",
"389 822 LINE",
"431 742 LINE",
"634 742 LINE",
"509 933 LINE",
"307 933 LINE",
"103 742 LINE"
);
}
);
width = 580;
}
);
leftKerningGroup = S;
note = Scircumflex;
rightKerningGroup = S;
unicode = 015C;
},
{
glyphname = Scommaaccent;
lastChange = "2015-12-01 04:41:26 +0000";
layers = (
{
layerId = "EF7A456C-05AE-460A-9046-2BAC18FBC939";
name = Bold;
paths = (
{
closed = 1;
nodes = (
"435 -15 OFFCURVE",
"526 71 OFFCURVE",
"553 201 CURVE SMOOTH",
"577 312 OFFCURVE",
"549 363 OFFCURVE",
"421 422 CURVE SMOOTH",
"356 452 OFFCURVE",
"317 462 OFFCURVE",
"322 489 CURVE",
"328 513 OFFCURVE",
"361 520 OFFCURVE",
"400 520 CURVE SMOOTH",
"455 520 OFFCURVE",
"514 504 OFFCURVE",
"567 470 CURVE",
"610 669 LINE",
"552 700 OFFCURVE",
"489 714 OFFCURVE",
"397 714 CURVE SMOOTH",
"216 714 OFFCURVE",
"95 624 OFFCURVE",
"68 495 CURVE SMOOTH",
"47 396 OFFCURVE",
"89 332 OFFCURVE",
"204 276 CURVE SMOOTH",
"276 241 OFFCURVE",
"299 229 OFFCURVE",
"294 204 CURVE SMOOTH",
"290 187 OFFCURVE",
"274 179 OFFCURVE",
"233 179 CURVE SMOOTH",
"166 179 OFFCURVE",
"81 199 OFFCURVE",
"12 243 CURVE",
"-32 37 LINE",
"21 5 OFFCURVE",
"119 -15 OFFCURVE",
"210 -15 CURVE SMOOTH"
);
},
{
closed = 1;
nodes = (
"194 -259 LINE",
"352 -41 LINE",
"121 -41 LINE",
"-10 -259 LINE"
);
}
);
width = 580;
}
);
leftKerningGroup = S;
note = Scommaaccent;
rightKerningGroup = S;
unicode = 0218;
},
{
glyphname = Sdotaccent;
lastChange = "2015-12-01 04:41:27 +0000";
layers = (
{
layerId = "EF7A456C-05AE-460A-9046-2BAC18FBC939";
name = Bold;
paths = (
{
closed = 1;
nodes = (
"435 -15 OFFCURVE",
"526 71 OFFCURVE",
"553 201 CURVE SMOOTH",
"577 312 OFFCURVE",
"549 363 OFFCURVE",
"421 422 CURVE SMOOTH",
"356 452 OFFCURVE",
"317 462 OFFCURVE",
"322 489 CURVE",
"328 513 OFFCURVE",
"361 520 OFFCURVE",
"400 520 CURVE SMOOTH",
"455 520 OFFCURVE",
"514 504 OFFCURVE",
"567 470 CURVE",
"610 669 LINE",
"552 700 OFFCURVE",
"489 714 OFFCURVE",
"397 714 CURVE SMOOTH",
"216 714 OFFCURVE",
"95 624 OFFCURVE",
"68 495 CURVE SMOOTH",
"47 396 OFFCURVE",
"89 332 OFFCURVE",
"204 276 CURVE SMOOTH",
"276 241 OFFCURVE",
"299 229 OFFCURVE",
"294 204 CURVE SMOOTH",
"290 187 OFFCURVE",
"274 179 OFFCURVE",
"233 179 CURVE SMOOTH",
"166 179 OFFCURVE",
"81 199 OFFCURVE",
"12 243 CURVE",
"-32 37 LINE",
"21 5 OFFCURVE",
"119 -15 OFFCURVE",
"210 -15 CURVE SMOOTH"
);
},
{
closed = 1;
nodes = (
"420 742 OFFCURVE",
"467 780 OFFCURVE",
"477 829 CURVE SMOOTH",
"488 878 OFFCURVE",
"457 917 OFFCURVE",
"409 917 CURVE SMOOTH",
"362 917 OFFCURVE",
"313 878 OFFCURVE",
"302 829 CURVE SMOOTH",
"292 780 OFFCURVE",
"325 742 OFFCURVE",
"372 742 CURVE SMOOTH"
);
}
);
width = 580;
}
);
leftKerningGroup = S;
note = Sdotaccent;
rightKerningGroup = S;
unicode = 1E60;
},
{
glyphname = Sdotbelow;
lastChange = "2015-12-01 04:41:27 +0000";
layers = (
{
layerId = "EF7A456C-05AE-460A-9046-2BAC18FBC939";
name = Bold;
paths = (
{
closed = 1;
nodes = (
"435 -15 OFFCURVE",
"526 71 OFFCURVE",
"553 201 CURVE SMOOTH",
"577 312 OFFCURVE",
"549 363 OFFCURVE",
"421 422 CURVE SMOOTH",
"356 452 OFFCURVE",
"317 462 OFFCURVE",
"322 489 CURVE",
"328 513 OFFCURVE",
"361 520 OFFCURVE",
"400 520 CURVE SMOOTH",
"455 520 OFFCURVE",
"514 504 OFFCURVE",
"567 470 CURVE",
"610 669 LINE",
"552 700 OFFCURVE",
"489 714 OFFCURVE",
"397 714 CURVE SMOOTH",
"216 714 OFFCURVE",
"95 624 OFFCURVE",
"68 495 CURVE SMOOTH",
"47 396 OFFCURVE",
"89 332 OFFCURVE",
"204 276 CURVE SMOOTH",
"276 241 OFFCURVE",
"299 229 OFFCURVE",
"294 204 CURVE SMOOTH",
"290 187 OFFCURVE",
"274 179 OFFCURVE",
"233 179 CURVE SMOOTH",
"166 179 OFFCURVE",
"81 199 OFFCURVE",
"12 243 CURVE",
"-32 37 LINE",
"21 5 OFFCURVE",
"119 -15 OFFCURVE",
"210 -15 CURVE SMOOTH"
);
},
{
closed = 1;
nodes = (
"230 -220 OFFCURVE",
"277 -182 OFFCURVE",
"287 -133 CURVE SMOOTH",
"298 -84 OFFCURVE",
"267 -45 OFFCURVE",
"220 -45 CURVE SMOOTH",
"173 -45 OFFCURVE",
"124 -84 OFFCURVE",
"113 -133 CURVE SMOOTH",
"103 -182 OFFCURVE",
"136 -220 OFFCURVE",
"183 -220 CURVE SMOOTH"
);
}
);
width = 580;
}
);
leftKerningGroup = S;
note = Sdotbelow;
rightKerningGroup = S;
unicode = 1E62;
},
{
glyphname = Germandbls;
lastChange = "2015-12-01 04:41:27 +0000";
layers = (
{
layerId = "EF7A456C-05AE-460A-9046-2BAC18FBC939";
name = Bold;
paths = (
{
closed = 1;
nodes = (
"521 -15 OFFCURVE",
"621 50 OFFCURVE",
"647 194 CURVE SMOOTH",
"663 282 OFFCURVE",
"637 345 OFFCURVE",
"558 378 CURVE",
"671 485 LINE",
"681 597 OFFCURVE",
"625 714 OFFCURVE",
"420 714 CURVE SMOOTH",
"195 714 OFFCURVE",
"108 623 OFFCURVE",
"71 450 CURVE SMOOTH",
"-24 0 LINE",
"212 0 LINE",
"314 482 LINE SMOOTH",
"324 528 OFFCURVE",
"346 552 OFFCURVE",
"389 552 CURVE SMOOTH",
"429 552 OFFCURVE",
"438 523 OFFCURVE",
"431 490 CURVE",
"319 384 LINE",
"296 277 LINE",
"349 277 LINE SMOOTH",
"400 277 OFFCURVE",
"419 256 OFFCURVE",
"411 219 CURVE SMOOTH",
"402 178 OFFCURVE",
"377 163 OFFCURVE",
"335 163 CURVE SMOOTH",
"313 163 OFFCURVE",
"289 169 OFFCURVE",
"276 182 CURVE",
"238 3 LINE",
"265 -10 OFFCURVE",
"315 -15 OFFCURVE",
"356 -15 CURVE SMOOTH"
);
}
);
width = 675;
}
);
note = uni1E9E;
unicode = 1E9E;
},
{
glyphname = Schwa;
lastChange = "2015-12-01 04:41:26 +0000";
layers = (
{
layerId = "EF7A456C-05AE-460A-9046-2BAC18FBC939";
name = Bold;
paths = (
{
closed = 1;
nodes = (
"603 -15 OFFCURVE",
"788 152 OFFCURVE",
"831 353 CURVE SMOOTH",
"878 574 OFFCURVE",
"758 714 OFFCURVE",
"470 714 CURVE SMOOTH",
"349 714 OFFCURVE",
"238 693 OFFCURVE",
"157 663 CURVE",
"119 489 LINE",
"196 516 OFFCURVE",
"298 530 OFFCURVE",
"383 530 CURVE SMOOTH",
"512 530 OFFCURVE",
"546 489 OFFCURVE",
"551 432 CURVE",
"52 432 LINE",
"33 343 LINE SMOOTH",
"-5 164 OFFCURVE",
"106 -15 OFFCURVE",
"349 -15 CURVE SMOOTH"
);
},
{
closed = 1;
nodes = (
"311 180 OFFCURVE",
"285 210 OFFCURVE",
"289 269 CURVE",
"517 269 LINE",
"497 221 OFFCURVE",
"460 180 OFFCURVE",
"386 180 CURVE SMOOTH"
);
}
);
width = 825;
}
);
note = uni018F;
unicode = 018F;
},
{
glyphname = T;
lastChange = "2015-12-01 04:41:28 +0000";
layers = (
{
layerId = "EF7A456C-05AE-460A-9046-2BAC18FBC939";
name = Bold;
paths = (
{
closed = 1;
nodes = (
"362 0 LINE",
"468 500 LINE",
"647 500 LINE",
"689 699 LINE",
"94 699 LINE",
"52 500 LINE",
"231 500 LINE",
"125 0 LINE"
);
}
);
width = 595;
}
);
leftKerningGroup = T;
note = T;
rightKerningGroup = T;
unicode = 0054;
},
{
glyphname = Tbar;
lastChange = "2015-12-01 04:41:26 +0000";
layers = (
{
layerId = "EF7A456C-05AE-460A-9046-2BAC18FBC939";
name = Bold;
paths = (
{
closed = 1;
nodes = (
"362 0 LINE",
"410 228 LINE",
"507 228 LINE",
"547 417 LINE",
"450 417 LINE",
"468 500 LINE",
"647 500 LINE",
"689 699 LINE",
"94 699 LINE",
"52 500 LINE",
"231 500 LINE",
"213 417 LINE",
"120 417 LINE",
"80 228 LINE",
"173 228 LINE",
"125 0 LINE"
);
}
);
width = 595;
}
);
leftKerningGroup = T;
note = Tbar;
rightKerningGroup = T;
unicode = 0166;
},
{
glyphname = Tcaron;
lastChange = "2015-12-01 04:41:27 +0000";
layers = (
{
layerId = "EF7A456C-05AE-460A-9046-2BAC18FBC939";
name = Bold;
paths = (
{
closed = 1;
nodes = (
"362 0 LINE",
"468 500 LINE",
"647 500 LINE",
"689 699 LINE",
"94 699 LINE",
"52 500 LINE",
"231 500 LINE",
"125 0 LINE"
);
},
{
closed = 1;
nodes = (
"481 742 LINE",
"686 933 LINE",
"475 933 LINE",
"399 853 LINE",
"357 933 LINE",
"155 933 LINE",
"279 742 LINE"
);
}
);
width = 595;
}
);
leftKerningGroup = T;
note = Tcaron;
rightKerningGroup = T;
unicode = 0164;
},
{
glyphname = Tcedilla;
lastChange = "2015-12-01 04:41:27 +0000";
layers = (
{
layerId = "EF7A456C-05AE-460A-9046-2BAC18FBC939";
name = Bold;
paths = (
{
closed = 1;
nodes = (
"304 -248 OFFCURVE",
"359 -195 OFFCURVE",
"371 -137 CURVE SMOOTH",
"382 -88 OFFCURVE",
"352 -57 OFFCURVE",
"296 -49 CURVE",
"327 0 LINE",
"362 0 LINE",
"468 500 LINE",
"647 500 LINE",
"689 699 LINE",
"94 699 LINE",
"52 500 LINE",
"231 500 LINE",
"125 0 LINE",
"168 0 LINE",
"129 -76 LINE",
"196 -76 OFFCURVE",
"211 -97 OFFCURVE",
"205 -126 CURVE SMOOTH",
"200 -147 OFFCURVE",
"182 -165 OFFCURVE",
"144 -165 CURVE SMOOTH",
"121 -165 OFFCURVE",
"101 -158 OFFCURVE",
"87 -149 CURVE",
"67 -232 LINE",
"89 -241 OFFCURVE",
"128 -248 OFFCURVE",
"182 -248 CURVE SMOOTH"
);
}
);
width = 595;
}
);
leftKerningGroup = T;
note = Tcedilla;
rightKerningGroup = T;
unicode = 0162;
},
{
glyphname = Tcommaaccent;
lastChange = "2015-12-01 04:41:27 +0000";
layers = (
{
layerId = "EF7A456C-05AE-460A-9046-2BAC18FBC939";
name = Bold;
paths = (
{
closed = 1;
nodes = (
"362 0 LINE",
"468 500 LINE",
"647 500 LINE",
"689 699 LINE",
"94 699 LINE",
"52 500 LINE",
"231 500 LINE",
"125 0 LINE"
);
},
{
closed = 1;
nodes = (
"183 -259 LINE",
"341 -41 LINE",
"129 -41 LINE",
"-1 -259 LINE"
);
}
);
width = 595;
}
);
leftKerningGroup = T;
note = Tcommaaccent;
rightKerningGroup = T;
unicode = 021A;
},
{
glyphname = Tdotbelow;
lastChange = "2015-12-01 04:41:27 +0000";
layers = (
{
layerId = "EF7A456C-05AE-460A-9046-2BAC18FBC939";
name = Bold;
paths = (
{
closed = 1;
nodes = (
"362 0 LINE",
"468 500 LINE",
"647 500 LINE",
"689 699 LINE",
"94 699 LINE",
"52 500 LINE",
"231 500 LINE",
"125 0 LINE"
);
},
{
closed = 1;
nodes = (
"245 -220 OFFCURVE",
"292 -182 OFFCURVE",
"302 -133 CURVE SMOOTH",
"313 -84 OFFCURVE",
"282 -45 OFFCURVE",
"235 -45 CURVE SMOOTH",
"188 -45 OFFCURVE",
"139 -84 OFFCURVE",
"128 -133 CURVE SMOOTH",
"118 -182 OFFCURVE",
"151 -220 OFFCURVE",
"198 -220 CURVE SMOOTH"
);
}
);
width = 595;
}
);
leftKerningGroup = T;
note = Tdotbelow;
rightKerningGroup = T;
unicode = 1E6C;
},
{
glyphname = Tlinebelow;
lastChange = "2015-12-01 04:41:26 +0000";
layers = (
{
layerId = "EF7A456C-05AE-460A-9046-2BAC18FBC939";
name = Bold;
paths = (
{
closed = 1;
nodes = (
"362 0 LINE",
"468 500 LINE",
"647 500 LINE",
"689 699 LINE",
"94 699 LINE",
"52 500 LINE",
"231 500 LINE",
"125 0 LINE"
);
},
{
closed = 1;
nodes = (
"368 -192 LINE",
"398 -49 LINE",
"32 -49 LINE",
"2 -192 LINE"
);
}
);
width = 595;
}
);
leftKerningGroup = T;
note = Tlinebelow;
rightKerningGroup = T;
unicode = 1E6E;
},
{
glyphname = U;
lastChange = "2015-12-01 04:41:27 +0000";
layers = (
{
layerId = "EF7A456C-05AE-460A-9046-2BAC18FBC939";
name = Bold;
paths = (
{
closed = 1;
nodes = (
"566 -15 OFFCURVE",
"677 130 OFFCURVE",
"716 315 CURVE SMOOTH",
"798 699 LINE",
"560 699 LINE",
"480 322 LINE SMOOTH",
"464 245 OFFCURVE",
"427 203 OFFCURVE",
"356 203 CURVE SMOOTH",
"277 203 OFFCURVE",
"265 245 OFFCURVE",
"281 322 CURVE SMOOTH",
"361 699 LINE",
"124 699 LINE",
"42 315 LINE SMOOTH",
"3 130 OFFCURVE",
"95 -15 OFFCURVE",
"309 -15 CURVE SMOOTH"
);
}
);
width = 734;
}
);
leftKerningGroup = U;
note = U;
rightKerningGroup = U;
unicode = 0055;
},
{
glyphname = Uacute;
lastChange = "2015-12-01 04:41:27 +0000";
layers = (
{
layerId = "EF7A456C-05AE-460A-9046-2BAC18FBC939";
name = Bold;
paths = (
{
closed = 1;
nodes = (
"566 -15 OFFCURVE",
"677 130 OFFCURVE",
"716 315 CURVE SMOOTH",
"798 699 LINE",
"560 699 LINE",
"480 322 LINE SMOOTH",
"464 245 OFFCURVE",
"427 203 OFFCURVE",
"356 203 CURVE SMOOTH",
"277 203 OFFCURVE",
"265 245 OFFCURVE",
"281 322 CURVE SMOOTH",
"361 699 LINE",
"124 699 LINE",
"42 315 LINE SMOOTH",
"3 130 OFFCURVE",
"95 -15 OFFCURVE",
"309 -15 CURVE SMOOTH"
);
},
{
closed = 1;
nodes = (
"546 742 LINE",
"679 923 LINE",
"462 923 LINE",
"356 742 LINE"
);
}
);
width = 734;
}
);
leftKerningGroup = U;
note = Uacute;
rightKerningGroup = U;
unicode = 00DA;
},
{
glyphname = Ubreve;
lastChange = "2015-12-01 04:41:27 +0000";
layers = (
{
layerId = "EF7A456C-05AE-460A-9046-2BAC18FBC939";
name = Bold;
paths = (
{
closed = 1;
nodes = (
"566 -15 OFFCURVE",
"677 130 OFFCURVE",
"716 315 CURVE SMOOTH",
"798 699 LINE",
"560 699 LINE",
"480 322 LINE SMOOTH",
"464 245 OFFCURVE",
"427 203 OFFCURVE",
"356 203 CURVE SMOOTH",
"277 203 OFFCURVE",
"265 245 OFFCURVE",
"281 322 CURVE SMOOTH",
"361 699 LINE",
"124 699 LINE",
"42 315 LINE SMOOTH",
"3 130 OFFCURVE",
"95 -15 OFFCURVE",
"309 -15 CURVE SMOOTH"
);
},
{
closed = 1;
nodes = (
"583 742 OFFCURVE",
"671 816 OFFCURVE",
"696 937 CURVE",
"525 937 LINE",
"517 898 OFFCURVE",
"500 879 OFFCURVE",
"475 879 CURVE SMOOTH",
"450 879 OFFCURVE",
"441 898 OFFCURVE",
"449 937 CURVE",
"287 937 LINE",
"262 816 OFFCURVE",
"318 742 OFFCURVE",
"450 742 CURVE SMOOTH"
);
}
);
width = 734;
}
);
leftKerningGroup = U;
note = Ubreve;
rightKerningGroup = U;
unicode = 016C;
},
{
glyphname = Ucaron;
lastChange = "2015-12-01 04:41:28 +0000";
layers = (
{
layerId = "EF7A456C-05AE-460A-9046-2BAC18FBC939";
name = Bold;
paths = (
{
closed = 1;
nodes = (
"566 -15 OFFCURVE",
"677 130 OFFCURVE",
"716 315 CURVE SMOOTH",
"798 699 LINE",
"560 699 LINE",
"480 322 LINE SMOOTH",
"464 245 OFFCURVE",
"427 203 OFFCURVE",
"356 203 CURVE SMOOTH",
"277 203 OFFCURVE",
"265 245 OFFCURVE",
"281 322 CURVE SMOOTH",
"361 699 LINE",
"124 699 LINE",
"42 315 LINE SMOOTH",
"3 130 OFFCURVE",
"95 -15 OFFCURVE",
"309 -15 CURVE SMOOTH"
);
},
{
closed = 1;
nodes = (
"551 742 LINE",
"756 933 LINE",
"545 933 LINE",
"469 853 LINE",
"427 933 LINE",
"225 933 LINE",
"349 742 LINE"
);
}
);
width = 734;
}
);
leftKerningGroup = U;
note = Ucaron;
rightKerningGroup = U;
unicode = 01D3;
},
{
glyphname = Ucircumflex;
lastChange = "2015-12-01 04:41:27 +0000";
layers = (
{
layerId = "EF7A456C-05AE-460A-9046-2BAC18FBC939";
name = Bold;
paths = (
{
closed = 1;
nodes = (
"566 -15 OFFCURVE",
"677 130 OFFCURVE",
"716 315 CURVE SMOOTH",
"798 699 LINE",
"560 699 LINE",
"480 322 LINE SMOOTH",
"464 245 OFFCURVE",
"427 203 OFFCURVE",
"356 203 CURVE SMOOTH",
"277 203 OFFCURVE",
"265 245 OFFCURVE",
"281 322 CURVE SMOOTH",
"361 699 LINE",
"124 699 LINE",
"42 315 LINE SMOOTH",
"3 130 OFFCURVE",
"95 -15 OFFCURVE",
"309 -15 CURVE SMOOTH"
);
},
{
closed = 1;
nodes = (
"395 742 LINE",
"471 822 LINE",
"513 742 LINE",
"716 742 LINE",
"591 933 LINE",
"389 933 LINE",
"185 742 LINE"
);
}
);
width = 734;
}
);
leftKerningGroup = U;
note = Ucircumflex;
rightKerningGroup = U;
unicode = 00DB;
},
{
glyphname = Udieresis;
lastChange = "2015-12-01 04:41:26 +0000";
layers = (
{
layerId = "EF7A456C-05AE-460A-9046-2BAC18FBC939";
name = Bold;
paths = (
{
closed = 1;
nodes = (
"566 -15 OFFCURVE",
"677 130 OFFCURVE",
"716 315 CURVE SMOOTH",
"798 699 LINE",
"560 699 LINE",
"480 322 LINE SMOOTH",
"464 245 OFFCURVE",
"427 203 OFFCURVE",
"356 203 CURVE SMOOTH",
"277 203 OFFCURVE",
"265 245 OFFCURVE",
"281 322 CURVE SMOOTH",
"361 699 LINE",
"124 699 LINE",
"42 315 LINE SMOOTH",
"3 130 OFFCURVE",
"95 -15 OFFCURVE",
"309 -15 CURVE SMOOTH"
);
},
{
closed = 1;
nodes = (
"384 752 OFFCURVE",
"431 790 OFFCURVE",
"441 839 CURVE SMOOTH",
"452 888 OFFCURVE",
"421 927 OFFCURVE",
"373 927 CURVE SMOOTH",
"327 927 OFFCURVE",
"278 888 OFFCURVE",
"267 839 CURVE SMOOTH",
"257 790 OFFCURVE",
"290 752 OFFCURVE",
"336 752 CURVE SMOOTH"
);
},
{
closed = 1;
nodes = (
"618 752 OFFCURVE",
"665 790 OFFCURVE",
"675 839 CURVE SMOOTH",
"686 888 OFFCURVE",
"655 927 OFFCURVE",
"608 927 CURVE SMOOTH",
"560 927 OFFCURVE",
"512 888 OFFCURVE",
"501 839 CURVE SMOOTH",
"491 790 OFFCURVE",
"523 752 OFFCURVE",
"571 752 CURVE SMOOTH"
);
}
);
width = 734;
}
);
leftKerningGroup = U;
note = Udieresis;
rightKerningGroup = U;
unicode = 00DC;
},
{
glyphname = Udieresisacute;
lastChange = "2015-12-01 04:41:26 +0000";
layers = (
{
layerId = "EF7A456C-05AE-460A-9046-2BAC18FBC939";
name = Bold;
paths = (
{
closed = 1;
nodes = (
"566 -15 OFFCURVE",
"677 130 OFFCURVE",
"716 315 CURVE SMOOTH",
"798 699 LINE",
"560 699 LINE",
"480 322 LINE SMOOTH",
"464 245 OFFCURVE",
"427 203 OFFCURVE",
"356 203 CURVE SMOOTH",
"277 203 OFFCURVE",
"265 245 OFFCURVE",
"281 322 CURVE SMOOTH",
"361 699 LINE",
"124 699 LINE",
"42 315 LINE SMOOTH",
"3 130 OFFCURVE",
"95 -15 OFFCURVE",
"309 -15 CURVE SMOOTH"
);
},
{
closed = 1;
nodes = (
"403 742 OFFCURVE",
"450 780 OFFCURVE",
"460 829 CURVE SMOOTH",
"471 878 OFFCURVE",
"440 917 OFFCURVE",
"392 917 CURVE SMOOTH",
"345 917 OFFCURVE",
"296 878 OFFCURVE",
"285 829 CURVE SMOOTH",
"275 780 OFFCURVE",
"308 742 OFFCURVE",
"355 742 CURVE SMOOTH"
);
},
{
closed = 1;
nodes = (
"636 742 OFFCURVE",
"683 780 OFFCURVE",
"693 829 CURVE SMOOTH",
"704 878 OFFCURVE",
"673 917 OFFCURVE",
"626 917 CURVE SMOOTH",
"578 917 OFFCURVE",
"530 878 OFFCURVE",
"519 829 CURVE SMOOTH",
"509 780 OFFCURVE",
"541 742 OFFCURVE",
"589 742 CURVE SMOOTH"
);
},
{
closed = 1;
nodes = (
"607 944 LINE",
"723 1093 LINE",
"516 1093 LINE",
"428 944 LINE"
);
}
);
width = 734;
}
);
leftKerningGroup = U;
note = Udieresisacute;
rightKerningGroup = U;
unicode = 01D7;
},
{
glyphname = Udieresiscaron;
lastChange = "2015-12-01 04:41:28 +0000";
layers = (
{
layerId = "EF7A456C-05AE-460A-9046-2BAC18FBC939";
name = Bold;
paths = (
{
closed = 1;
nodes = (
"566 -15 OFFCURVE",
"677 130 OFFCURVE",
"716 315 CURVE SMOOTH",
"798 699 LINE",
"560 699 LINE",
"480 322 LINE SMOOTH",
"464 245 OFFCURVE",
"427 203 OFFCURVE",
"356 203 CURVE SMOOTH",
"277 203 OFFCURVE",
"265 245 OFFCURVE",
"281 322 CURVE SMOOTH",
"361 699 LINE",
"124 699 LINE",
"42 315 LINE SMOOTH",
"3 130 OFFCURVE",
"95 -15 OFFCURVE",
"309 -15 CURVE SMOOTH"
);
},
{
closed = 1;
nodes = (
"399 742 OFFCURVE",
"447 780 OFFCURVE",
"457 829 CURVE SMOOTH",
"468 878 OFFCURVE",
"436 917 OFFCURVE",
"388 917 CURVE SMOOTH",
"341 917 OFFCURVE",
"294 878 OFFCURVE",
"283 829 CURVE SMOOTH",
"273 780 OFFCURVE",
"304 742 OFFCURVE",
"351 742 CURVE SMOOTH"
);
},
{
closed = 1;
nodes = (
"632 742 OFFCURVE",
"681 780 OFFCURVE",
"691 829 CURVE SMOOTH",
"702 878 OFFCURVE",
"669 917 OFFCURVE",
"622 917 CURVE SMOOTH",
"574 917 OFFCURVE",
"527 878 OFFCURVE",
"516 829 CURVE SMOOTH",
"506 780 OFFCURVE",
"537 742 OFFCURVE",
"585 742 CURVE SMOOTH"
);
},
{
closed = 1;
nodes = (
"582 935 LINE",
"781 1096 LINE",
"589 1096 LINE",
"535 1046 LINE",
"502 1096 LINE",
"310 1096 LINE",
"441 935 LINE"
);
}
);
width = 734;
}
);
leftKerningGroup = U;
note = Udieresiscaron;
rightKerningGroup = U;
unicode = 01D9;
},
{
glyphname = Udieresisgrave;
lastChange = "2015-12-01 04:41:27 +0000";
layers = (
{
layerId = "EF7A456C-05AE-460A-9046-2BAC18FBC939";
name = Bold;
paths = (
{
closed = 1;
nodes = (
"566 -15 OFFCURVE",
"677 130 OFFCURVE",
"716 315 CURVE SMOOTH",
"798 699 LINE",
"560 699 LINE",
"480 322 LINE SMOOTH",
"464 245 OFFCURVE",
"427 203 OFFCURVE",
"356 203 CURVE SMOOTH",
"277 203 OFFCURVE",
"265 245 OFFCURVE",
"281 322 CURVE SMOOTH",
"361 699 LINE",
"124 699 LINE",
"42 315 LINE SMOOTH",
"3 130 OFFCURVE",
"95 -15 OFFCURVE",
"309 -15 CURVE SMOOTH"
);
},
{
closed = 1;
nodes = (
"403 742 OFFCURVE",
"451 780 OFFCURVE",
"461 829 CURVE SMOOTH",
"472 878 OFFCURVE",
"440 917 OFFCURVE",
"392 917 CURVE SMOOTH",
"345 917 OFFCURVE",
"298 878 OFFCURVE",
"287 829 CURVE SMOOTH",
"277 780 OFFCURVE",
"308 742 OFFCURVE",
"355 742 CURVE SMOOTH"
);
},
{
closed = 1;
nodes = (
"636 742 OFFCURVE",
"685 780 OFFCURVE",
"695 829 CURVE SMOOTH",
"706 878 OFFCURVE",
"673 917 OFFCURVE",
"626 917 CURVE SMOOTH",
"578 917 OFFCURVE",
"531 878 OFFCURVE",
"520 829 CURVE SMOOTH",
"510 780 OFFCURVE",
"541 742 OFFCURVE",
"589 742 CURVE SMOOTH"
);
},
{
closed = 1;
nodes = (
"602 944 LINE",
"577 1093 LINE",
"371 1093 LINE",
"423 944 LINE"
);
}
);
width = 734;
}
);
leftKerningGroup = U;
note = Udieresisgrave;
rightKerningGroup = U;
unicode = 01DB;
},
{
glyphname = Udieresismacron;
lastChange = "2015-12-01 04:41:27 +0000";
layers = (
{
layerId = "EF7A456C-05AE-460A-9046-2BAC18FBC939";
name = Bold;
paths = (
{
closed = 1;
nodes = (
"566 -15 OFFCURVE",
"677 130 OFFCURVE",
"716 315 CURVE SMOOTH",
"798 699 LINE",
"560 699 LINE",
"480 322 LINE SMOOTH",
"464 245 OFFCURVE",
"427 203 OFFCURVE",
"356 203 CURVE SMOOTH",
"277 203 OFFCURVE",
"265 245 OFFCURVE",
"281 322 CURVE SMOOTH",
"361 699 LINE",
"124 699 LINE",
"42 315 LINE SMOOTH",
"3 130 OFFCURVE",
"95 -15 OFFCURVE",
"309 -15 CURVE SMOOTH"
);
},
{
closed = 1;
nodes = (
"382 742 OFFCURVE",
"429 780 OFFCURVE",
"439 829 CURVE SMOOTH",
"450 878 OFFCURVE",
"419 917 OFFCURVE",
"371 917 CURVE SMOOTH",
"325 917 OFFCURVE",
"276 878 OFFCURVE",
"265 829 CURVE SMOOTH",
"255 780 OFFCURVE",
"288 742 OFFCURVE",
"334 742 CURVE SMOOTH"
);
},
{
closed = 1;
nodes = (
"616 742 OFFCURVE",
"663 780 OFFCURVE",
"673 829 CURVE SMOOTH",
"684 878 OFFCURVE",
"653 917 OFFCURVE",
"606 917 CURVE SMOOTH",
"558 917 OFFCURVE",
"510 878 OFFCURVE",
"499 829 CURVE SMOOTH",
"489 780 OFFCURVE",
"521 742 OFFCURVE",
"569 742 CURVE SMOOTH"
);
},
{
closed = 1;
nodes = (
"678 950 LINE",
"709 1093 LINE",
"343 1093 LINE",
"312 950 LINE"
);
}
);
width = 734;
}
);
leftKerningGroup = U;
note = Udieresismacron;
rightKerningGroup = U;
unicode = 01D5;
},
{
glyphname = Udotbelow;
lastChange = "2015-12-01 04:41:27 +0000";
layers = (
{
layerId = "EF7A456C-05AE-460A-9046-2BAC18FBC939";
name = Bold;
paths = (
{
closed = 1;
nodes = (
"566 -15 OFFCURVE",
"677 130 OFFCURVE",
"716 315 CURVE SMOOTH",
"798 699 LINE",
"560 699 LINE",
"480 322 LINE SMOOTH",
"464 245 OFFCURVE",
"427 203 OFFCURVE",
"356 203 CURVE SMOOTH",
"277 203 OFFCURVE",
"265 245 OFFCURVE",
"281 322 CURVE SMOOTH",
"361 699 LINE",
"124 699 LINE",
"42 315 LINE SMOOTH",
"3 130 OFFCURVE",
"95 -15 OFFCURVE",
"309 -15 CURVE SMOOTH"
);
},
{
closed = 1;
nodes = (
"315 -220 OFFCURVE",
"362 -182 OFFCURVE",
"372 -133 CURVE SMOOTH",
"383 -84 OFFCURVE",
"352 -45 OFFCURVE",
"305 -45 CURVE SMOOTH",
"258 -45 OFFCURVE",
"209 -84 OFFCURVE",
"198 -133 CURVE SMOOTH",
"188 -182 OFFCURVE",
"221 -220 OFFCURVE",
"268 -220 CURVE SMOOTH"
);
}
);
width = 734;
}
);
leftKerningGroup = U;
note = Udotbelow;
rightKerningGroup = U;
unicode = 1EE4;
},
{
glyphname = Ugrave;
lastChange = "2015-12-01 04:41:26 +0000";
layers = (
{
layerId = "EF7A456C-05AE-460A-9046-2BAC18FBC939";
name = Bold;
paths = (
{
closed = 1;
nodes = (
"566 -15 OFFCURVE",
"677 130 OFFCURVE",
"716 315 CURVE SMOOTH",
"798 699 LINE",
"560 699 LINE",
"480 322 LINE SMOOTH",
"464 245 OFFCURVE",
"427 203 OFFCURVE",
"356 203 CURVE SMOOTH",
"277 203 OFFCURVE",
"265 245 OFFCURVE",
"281 322 CURVE SMOOTH",
"361 699 LINE",
"124 699 LINE",
"42 315 LINE SMOOTH",
"3 130 OFFCURVE",
"95 -15 OFFCURVE",
"309 -15 CURVE SMOOTH"
);
},
{
closed = 1;
nodes = (
"550 742 LINE",
"520 923 LINE",
"303 923 LINE",
"360 742 LINE"
);
}
);
width = 734;
}
);
leftKerningGroup = U;
note = Ugrave;
rightKerningGroup = U;
unicode = 00D9;
},
{
glyphname = Uhookabove;
lastChange = "2015-12-01 04:41:27 +0000";
layers = (
{
layerId = "EF7A456C-05AE-460A-9046-2BAC18FBC939";
name = Bold;
paths = (
{
closed = 1;
nodes = (
"566 -15 OFFCURVE",
"677 130 OFFCURVE",
"716 315 CURVE SMOOTH",
"798 699 LINE",
"560 699 LINE",
"480 322 LINE SMOOTH",
"464 245 OFFCURVE",
"427 203 OFFCURVE",
"356 203 CURVE SMOOTH",
"277 203 OFFCURVE",
"265 245 OFFCURVE",
"281 322 CURVE SMOOTH",
"361 699 LINE",
"124 699 LINE",
"42 315 LINE SMOOTH",
"3 130 OFFCURVE",
"95 -15 OFFCURVE",
"309 -15 CURVE SMOOTH"
);
},
{
closed = 1;
nodes = (
"538 742 LINE",
"546 782 LINE",
"603 798 OFFCURVE",
"646 825 OFFCURVE",
"658 877 CURVE SMOOTH",
"671 940 OFFCURVE",
"622 981 OFFCURVE",
"503 981 CURVE SMOOTH",
"459 981 OFFCURVE",
"394 972 OFFCURVE",
"358 962 CURVE",
"340 877 LINE",
"353 881 OFFCURVE",
"378 886 OFFCURVE",
"398 886 CURVE SMOOTH",
"439 886 OFFCURVE",
"455 876 OFFCURVE",
"451 854 CURVE",
"445 827 OFFCURVE",
"423 816 OFFCURVE",
"367 816 CURVE",
"351 742 LINE"
);
}
);
width = 734;
}
);
leftKerningGroup = U;
note = Uhookabove;
rightKerningGroup = U;
unicode = 1EE6;
},
{
glyphname = Uhorn;
lastChange = "2015-12-01 04:41:26 +0000";
layers = (
{
layerId = "EF7A456C-05AE-460A-9046-2BAC18FBC939";
name = Bold;
paths = (
{
closed = 1;
nodes = (
"566 -15 OFFCURVE",
"677 130 OFFCURVE",
"716 315 CURVE SMOOTH",
"753 486 LINE",
"934 486 OFFCURVE",
"1025 577 OFFCURVE",
"1051 700 CURVE SMOOTH",
"1061 747 LINE",
"882 747 LINE",
"875 715 LINE SMOOTH",
"865 666 OFFCURVE",
"845 639 OFFCURVE",
"785 639 CURVE",
"798 699 LINE",
"560 699 LINE",
"480 322 LINE SMOOTH",
"464 245 OFFCURVE",
"427 203 OFFCURVE",
"356 203 CURVE SMOOTH",
"277 203 OFFCURVE",
"265 245 OFFCURVE",
"281 322 CURVE SMOOTH",
"361 699 LINE",
"124 699 LINE",
"42 315 LINE SMOOTH",
"3 130 OFFCURVE",
"95 -15 OFFCURVE",
"309 -15 CURVE SMOOTH"
);
}
);
width = 952;
}
);
leftKerningGroup = U;
note = Uhorn;
rightKerningGroup = U;
unicode = 01AF;
},
{
glyphname = Uhornacute;
lastChange = "2015-12-01 04:41:27 +0000";
layers = (
{
layerId = "EF7A456C-05AE-460A-9046-2BAC18FBC939";
name = Bold;
paths = (
{
closed = 1;
nodes = (
"566 -15 OFFCURVE",
"677 130 OFFCURVE",
"716 315 CURVE SMOOTH",
"753 486 LINE",
"934 486 OFFCURVE",
"1025 577 OFFCURVE",
"1051 700 CURVE SMOOTH",
"1061 747 LINE",
"882 747 LINE",
"875 715 LINE SMOOTH",
"865 666 OFFCURVE",
"845 639 OFFCURVE",
"785 639 CURVE",
"798 699 LINE",
"560 699 LINE",
"480 322 LINE SMOOTH",
"464 245 OFFCURVE",
"427 203 OFFCURVE",
"356 203 CURVE SMOOTH",
"277 203 OFFCURVE",
"265 245 OFFCURVE",
"281 322 CURVE SMOOTH",
"361 699 LINE",
"124 699 LINE",
"42 315 LINE SMOOTH",
"3 130 OFFCURVE",
"95 -15 OFFCURVE",
"309 -15 CURVE SMOOTH"
);
},
{
closed = 1;
nodes = (
"543 742 LINE",
"676 923 LINE",
"459 923 LINE",
"353 742 LINE"
);
}
);
width = 952;
}
);
leftKerningGroup = U;
note = Uhornacute;
rightKerningGroup = U;
unicode = 1EE8;
},
{
glyphname = Uhorndotbelow;
lastChange = "2015-12-01 04:41:26 +0000";
layers = (
{
layerId = "EF7A456C-05AE-460A-9046-2BAC18FBC939";
name = Bold;
paths = (
{
closed = 1;
nodes = (
"566 -15 OFFCURVE",
"677 130 OFFCURVE",
"716 315 CURVE SMOOTH",
"753 486 LINE",
"934 486 OFFCURVE",
"1025 577 OFFCURVE",
"1051 700 CURVE SMOOTH",
"1061 747 LINE",
"882 747 LINE",
"875 715 LINE SMOOTH",
"865 666 OFFCURVE",
"845 639 OFFCURVE",
"785 639 CURVE",
"798 699 LINE",
"560 699 LINE",
"480 322 LINE SMOOTH",
"464 245 OFFCURVE",
"427 203 OFFCURVE",
"356 203 CURVE SMOOTH",
"277 203 OFFCURVE",
"265 245 OFFCURVE",
"281 322 CURVE SMOOTH",
"361 699 LINE",
"124 699 LINE",
"42 315 LINE SMOOTH",
"3 130 OFFCURVE",
"95 -15 OFFCURVE",
"309 -15 CURVE SMOOTH"
);
},
{
closed = 1;
nodes = (
"317 -220 OFFCURVE",
"364 -182 OFFCURVE",
"374 -133 CURVE SMOOTH",
"385 -84 OFFCURVE",
"354 -45 OFFCURVE",
"307 -45 CURVE SMOOTH",
"260 -45 OFFCURVE",
"211 -84 OFFCURVE",
"200 -133 CURVE SMOOTH",
"190 -182 OFFCURVE",
"223 -220 OFFCURVE",
"270 -220 CURVE SMOOTH"
);
}
);
width = 952;
}
);
leftKerningGroup = U;
note = Uhorndotbelow;
rightKerningGroup = U;
unicode = 1EF0;
},
{
glyphname = Uhorngrave;
lastChange = "2015-12-01 04:41:26 +0000";
layers = (
{
layerId = "EF7A456C-05AE-460A-9046-2BAC18FBC939";
name = Bold;
paths = (
{
closed = 1;
nodes = (
"566 -15 OFFCURVE",
"677 130 OFFCURVE",
"716 315 CURVE SMOOTH",
"753 486 LINE",
"934 486 OFFCURVE",
"1025 577 OFFCURVE",
"1051 700 CURVE SMOOTH",
"1061 747 LINE",
"882 747 LINE",
"875 715 LINE SMOOTH",
"865 666 OFFCURVE",
"845 639 OFFCURVE",
"785 639 CURVE",
"798 699 LINE",
"560 699 LINE",
"480 322 LINE SMOOTH",
"464 245 OFFCURVE",
"427 203 OFFCURVE",
"356 203 CURVE SMOOTH",
"277 203 OFFCURVE",
"265 245 OFFCURVE",
"281 322 CURVE SMOOTH",
"361 699 LINE",
"124 699 LINE",
"42 315 LINE SMOOTH",
"3 130 OFFCURVE",
"95 -15 OFFCURVE",
"309 -15 CURVE SMOOTH"
);
},
{
closed = 1;
nodes = (
"547 742 LINE",
"517 923 LINE",
"300 923 LINE",
"357 742 LINE"
);
}
);
width = 952;
}
);
leftKerningGroup = U;
note = Uhorngrave;
rightKerningGroup = U;
unicode = 1EEA;
},
{
glyphname = Uhornhookabove;
lastChange = "2015-12-01 04:41:27 +0000";
layers = (
{
layerId = "EF7A456C-05AE-460A-9046-2BAC18FBC939";
name = Bold;
paths = (
{
closed = 1;
nodes = (
"566 -15 OFFCURVE",
"677 130 OFFCURVE",
"716 315 CURVE SMOOTH",
"753 486 LINE",
"934 486 OFFCURVE",
"1025 577 OFFCURVE",
"1051 700 CURVE SMOOTH",
"1061 747 LINE",
"882 747 LINE",
"875 715 LINE SMOOTH",
"865 666 OFFCURVE",
"845 639 OFFCURVE",
"785 639 CURVE",
"798 699 LINE",
"560 699 LINE",
"480 322 LINE SMOOTH",
"464 245 OFFCURVE",
"427 203 OFFCURVE",
"356 203 CURVE SMOOTH",
"277 203 OFFCURVE",
"265 245 OFFCURVE",
"281 322 CURVE SMOOTH",
"361 699 LINE",
"124 699 LINE",
"42 315 LINE SMOOTH",
"3 130 OFFCURVE",
"95 -15 OFFCURVE",
"309 -15 CURVE SMOOTH"
);
},
{
closed = 1;
nodes = (
"551 742 LINE",
"559 782 LINE",
"616 798 OFFCURVE",
"659 825 OFFCURVE",
"671 877 CURVE SMOOTH",
"684 940 OFFCURVE",
"635 981 OFFCURVE",
"516 981 CURVE SMOOTH",
"472 981 OFFCURVE",
"407 972 OFFCURVE",
"371 962 CURVE",
"353 877 LINE",
"366 881 OFFCURVE",
"391 886 OFFCURVE",
"411 886 CURVE SMOOTH",
"452 886 OFFCURVE",
"468 876 OFFCURVE",
"464 854 CURVE",
"458 827 OFFCURVE",
"436 816 OFFCURVE",
"380 816 CURVE",
"364 742 LINE"
);
}
);
width = 952;
}
);
leftKerningGroup = U;
note = Uhornhookabove;
rightKerningGroup = U;
unicode = 1EEC;
},
{
glyphname = Uhorntilde;
lastChange = "2015-12-01 04:41:26 +0000";
layers = (
{
layerId = "EF7A456C-05AE-460A-9046-2BAC18FBC939";
name = Bold;
paths = (
{
closed = 1;
nodes = (
"566 -15 OFFCURVE",
"677 130 OFFCURVE",
"716 315 CURVE SMOOTH",
"753 486 LINE",
"934 486 OFFCURVE",
"1025 577 OFFCURVE",
"1051 700 CURVE SMOOTH",
"1061 747 LINE",
"882 747 LINE",
"875 715 LINE SMOOTH",
"865 666 OFFCURVE",
"845 639 OFFCURVE",
"785 639 CURVE",
"798 699 LINE",
"560 699 LINE",
"480 322 LINE SMOOTH",
"464 245 OFFCURVE",
"427 203 OFFCURVE",
"356 203 CURVE SMOOTH",
"277 203 OFFCURVE",
"265 245 OFFCURVE",
"281 322 CURVE SMOOTH",
"361 699 LINE",
"124 699 LINE",
"42 315 LINE SMOOTH",
"3 130 OFFCURVE",
"95 -15 OFFCURVE",
"309 -15 CURVE SMOOTH"
);
},
{
closed = 1;
nodes = (
"620 742 OFFCURVE",
"660 753 OFFCURVE",
"692 782 CURVE",
"724 935 LINE",
"686 901 OFFCURVE",
"647 886 OFFCURVE",
"605 886 CURVE SMOOTH",
"540 886 OFFCURVE",
"480 936 OFFCURVE",
"412 936 CURVE SMOOTH",
"366 936 OFFCURVE",
"325 925 OFFCURVE",
"293 896 CURVE",
"261 743 LINE",
"299 777 OFFCURVE",
"339 792 OFFCURVE",
"381 792 CURVE SMOOTH",
"445 792 OFFCURVE",
"501 742 OFFCURVE",
"574 742 CURVE SMOOTH"
);
}
);
width = 952;
}
);
leftKerningGroup = U;
note = Uhorntilde;
rightKerningGroup = U;
unicode = 1EEE;
},
{
glyphname = Uhungarumlaut;
lastChange = "2015-12-01 04:41:27 +0000";
layers = (
{
layerId = "EF7A456C-05AE-460A-9046-2BAC18FBC939";
name = Bold;
paths = (
{
closed = 1;
nodes = (
"566 -15 OFFCURVE",
"677 130 OFFCURVE",
"716 315 CURVE SMOOTH",
"798 699 LINE",
"560 699 LINE",
"480 322 LINE SMOOTH",
"464 245 OFFCURVE",
"427 203 OFFCURVE",
"356 203 CURVE SMOOTH",
"277 203 OFFCURVE",
"265 245 OFFCURVE",
"281 322 CURVE SMOOTH",
"361 699 LINE",
"124 699 LINE",
"42 315 LINE SMOOTH",
"3 130 OFFCURVE",
"95 -15 OFFCURVE",
"309 -15 CURVE SMOOTH"
);
},
{
closed = 1;
nodes = (
"400 742 LINE",
"533 923 LINE",
"317 923 LINE",
"211 742 LINE"
);
},
{
closed = 1;
nodes = (
"680 742 LINE",
"813 923 LINE",
"596 923 LINE",
"490 742 LINE"
);
}
);
width = 734;
}
);
leftKerningGroup = U;
note = Uhungarumlaut;
rightKerningGroup = U;
unicode = 0170;
},
{
glyphname = Umacron;
lastChange = "2015-12-01 04:41:27 +0000";
layers = (
{
layerId = "EF7A456C-05AE-460A-9046-2BAC18FBC939";
name = Bold;
paths = (
{
closed = 1;
nodes = (
"566 -15 OFFCURVE",
"677 130 OFFCURVE",
"716 315 CURVE SMOOTH",
"798 699 LINE",
"560 699 LINE",
"480 322 LINE SMOOTH",
"464 245 OFFCURVE",
"427 203 OFFCURVE",
"356 203 CURVE SMOOTH",
"277 203 OFFCURVE",
"265 245 OFFCURVE",
"281 322 CURVE SMOOTH",
"361 699 LINE",
"124 699 LINE",
"42 315 LINE SMOOTH",
"3 130 OFFCURVE",
"95 -15 OFFCURVE",
"309 -15 CURVE SMOOTH"
);
},
{
closed = 1;
nodes = (
"633 742 LINE",
"664 885 LINE",
"298 885 LINE",
"267 742 LINE"
);
}
);
width = 734;
}
);
leftKerningGroup = U;
note = Umacron;
rightKerningGroup = U;
unicode = 016A;
},
{
glyphname = Uogonek;
lastChange = "2015-12-01 04:41:27 +0000";
layers = (
{
layerId = "EF7A456C-05AE-460A-9046-2BAC18FBC939";
name = Bold;
paths = (
{
closed = 1;
nodes = (
"306 -219 OFFCURVE",
"358 -212 OFFCURVE",
"392 -202 CURVE",
"417 -82 LINE",
"399 -90 OFFCURVE",
"381 -95 OFFCURVE",
"365 -95 CURVE SMOOTH",
"348 -95 OFFCURVE",
"341 -86 OFFCURVE",
"344 -72 CURVE SMOOTH",
"350 -45 OFFCURVE",
"376 -26 OFFCURVE",
"438 0 CURVE",
"605 40 OFFCURVE",
"684 164 OFFCURVE",
"716 315 CURVE SMOOTH",
"798 699 LINE",
"560 699 LINE",
"480 322 LINE SMOOTH",
"464 245 OFFCURVE",
"427 203 OFFCURVE",
"356 203 CURVE SMOOTH",
"277 203 OFFCURVE",
"265 245 OFFCURVE",
"281 322 CURVE SMOOTH",
"361 699 LINE",
"124 699 LINE",
"42 315 LINE SMOOTH",
"8 157 OFFCURVE",
"71 28 OFFCURVE",
"223 -6 CURVE",
"181 -30 OFFCURVE",
"151 -67 OFFCURVE",
"141 -116 CURVE SMOOTH",
"125 -189 OFFCURVE",
"179 -219 OFFCURVE",
"261 -219 CURVE SMOOTH"
);
}
);
width = 734;
}
);
leftKerningGroup = U;
note = Uogonek;
rightKerningGroup = U;
unicode = 0172;
},
{
glyphname = Uring;
lastChange = "2015-12-01 04:41:28 +0000";
layers = (
{
layerId = "EF7A456C-05AE-460A-9046-2BAC18FBC939";
name = Bold;
paths = (
{
closed = 1;
nodes = (
"566 -15 OFFCURVE",
"677 130 OFFCURVE",
"716 315 CURVE SMOOTH",
"798 699 LINE",
"560 699 LINE",
"480 322 LINE SMOOTH",
"464 245 OFFCURVE",
"427 203 OFFCURVE",
"356 203 CURVE SMOOTH",
"277 203 OFFCURVE",
"265 245 OFFCURVE",
"281 322 CURVE SMOOTH",
"361 699 LINE",
"124 699 LINE",
"42 315 LINE SMOOTH",
"3 130 OFFCURVE",
"95 -15 OFFCURVE",
"309 -15 CURVE SMOOTH"
);
},
{
closed = 1;
nodes = (
"544 742 OFFCURVE",
"622 809 OFFCURVE",
"641 896 CURVE SMOOTH",
"659 983 OFFCURVE",
"603 1050 OFFCURVE",
"516 1050 CURVE SMOOTH",
"424 1050 OFFCURVE",
"343 983 OFFCURVE",
"326 896 CURVE SMOOTH",
"307 809 OFFCURVE",
"363 742 OFFCURVE",
"450 742 CURVE SMOOTH"
);
},
{
closed = 1;
nodes = (
"447 855 OFFCURVE",
"437 873 OFFCURVE",
"442 896 CURVE SMOOTH",
"447 919 OFFCURVE",
"469 937 OFFCURVE",
"492 937 CURVE SMOOTH",
"520 937 OFFCURVE",
"529 919 OFFCURVE",
"524 896 CURVE SMOOTH",
"519 873 OFFCURVE",
"497 855 OFFCURVE",
"474 855 CURVE SMOOTH"
);
}
);
width = 734;
}
);
leftKerningGroup = U;
note = Uring;
rightKerningGroup = U;
unicode = 016E;
},
{
glyphname = Utilde;
lastChange = "2015-12-01 04:41:26 +0000";
layers = (
{
layerId = "EF7A456C-05AE-460A-9046-2BAC18FBC939";
name = Bold;
paths = (
{
closed = 1;
nodes = (
"566 -15 OFFCURVE",
"677 130 OFFCURVE",
"716 315 CURVE SMOOTH",
"798 699 LINE",
"560 699 LINE",
"480 322 LINE SMOOTH",
"464 245 OFFCURVE",
"427 203 OFFCURVE",
"356 203 CURVE SMOOTH",
"277 203 OFFCURVE",
"265 245 OFFCURVE",
"281 322 CURVE SMOOTH",
"361 699 LINE",
"124 699 LINE",
"42 315 LINE SMOOTH",
"3 130 OFFCURVE",
"95 -15 OFFCURVE",
"309 -15 CURVE SMOOTH"
);
},
{
closed = 1;
nodes = (
"598 742 OFFCURVE",
"638 753 OFFCURVE",
"670 782 CURVE",
"702 935 LINE",
"664 901 OFFCURVE",
"625 886 OFFCURVE",
"583 886 CURVE SMOOTH",
"518 886 OFFCURVE",
"458 936 OFFCURVE",
"390 936 CURVE SMOOTH",
"344 936 OFFCURVE",
"303 925 OFFCURVE",
"271 896 CURVE",
"239 743 LINE",
"277 777 OFFCURVE",
"317 792 OFFCURVE",
"359 792 CURVE SMOOTH",
"423 792 OFFCURVE",
"479 742 OFFCURVE",
"552 742 CURVE SMOOTH"
);
}
);
width = 734;
}
);
leftKerningGroup = U;
note = Utilde;
rightKerningGroup = U;
unicode = 0168;
},
{
glyphname = V;
lastChange = "2015-12-01 04:41:28 +0000";
layers = (
{
layerId = "EF7A456C-05AE-460A-9046-2BAC18FBC939";
name = Bold;
paths = (
{
closed = 1;
nodes = (
"465 0 LINE",
"893 699 LINE",
"640 699 LINE",
"413 307 LINE",
"352 699 LINE",
"109 699 LINE",
"241 0 LINE"
);
}
);
width = 814;
}
);
note = V;
unicode = 0056;
},
{
glyphname = W;
lastChange = "2015-12-01 04:41:27 +0000";
layers = (
{
layerId = "EF7A456C-05AE-460A-9046-2BAC18FBC939";
name = Bold;
paths = (
{
closed = 1;
nodes = (
"360 0 LINE",
"512 318 LINE",
"530 0 LINE",
"740 0 LINE",
"1067 699 LINE",
"821 699 LINE",
"678 382 LINE",
"677 699 LINE",
"509 699 LINE",
"364 383 LINE",
"355 699 LINE",
"109 699 LINE",
"140 0 LINE"
);
}
);
width = 988;
}
);
leftKerningGroup = W;
note = W;
rightKerningGroup = W;
unicode = 0057;
},
{
glyphname = Wacute;
lastChange = "2015-12-01 04:41:27 +0000";
layers = (
{
layerId = "EF7A456C-05AE-460A-9046-2BAC18FBC939";
name = Bold;
paths = (
{
closed = 1;
nodes = (
"360 0 LINE",
"512 318 LINE",
"530 0 LINE",
"740 0 LINE",
"1067 699 LINE",
"821 699 LINE",
"678 382 LINE",
"677 699 LINE",
"509 699 LINE",
"364 383 LINE",
"355 699 LINE",
"109 699 LINE",
"140 0 LINE"
);
},
{
closed = 1;
nodes = (
"674 742 LINE",
"807 923 LINE",
"590 923 LINE",
"484 742 LINE"
);
}
);
width = 988;
}
);
leftKerningGroup = W;
note = Wacute;
rightKerningGroup = W;
unicode = 1E82;
},
{
glyphname = Wcircumflex;
lastChange = "2015-12-01 04:41:28 +0000";
layers = (
{
layerId = "EF7A456C-05AE-460A-9046-2BAC18FBC939";
name = Bold;
paths = (
{
closed = 1;
nodes = (
"360 0 LINE",
"512 318 LINE",
"530 0 LINE",
"740 0 LINE",
"1067 699 LINE",
"821 699 LINE",
"678 382 LINE",
"677 699 LINE",
"509 699 LINE",
"364 383 LINE",
"355 699 LINE",
"109 699 LINE",
"140 0 LINE"
);
},
{
closed = 1;
nodes = (
"522 742 LINE",
"598 822 LINE",
"640 742 LINE",
"843 742 LINE",
"718 933 LINE",
"516 933 LINE",
"312 742 LINE"
);
}
);
width = 988;
}
);
leftKerningGroup = W;
note = Wcircumflex;
rightKerningGroup = W;
unicode = 0174;
},
{
glyphname = Wdieresis;
lastChange = "2015-12-01 04:41:27 +0000";
layers = (
{
layerId = "EF7A456C-05AE-460A-9046-2BAC18FBC939";
name = Bold;
paths = (
{
closed = 1;
nodes = (
"360 0 LINE",
"512 318 LINE",
"530 0 LINE",
"740 0 LINE",
"1067 699 LINE",
"821 699 LINE",
"678 382 LINE",
"677 699 LINE",
"509 699 LINE",
"364 383 LINE",
"355 699 LINE",
"109 699 LINE",
"140 0 LINE"
);
},
{
closed = 1;
nodes = (
"509 742 OFFCURVE",
"556 780 OFFCURVE",
"566 829 CURVE SMOOTH",
"577 878 OFFCURVE",
"546 917 OFFCURVE",
"498 917 CURVE SMOOTH",
"452 917 OFFCURVE",
"403 878 OFFCURVE",
"392 829 CURVE SMOOTH",
"382 780 OFFCURVE",
"415 742 OFFCURVE",
"461 742 CURVE SMOOTH"
);
},
{
closed = 1;
nodes = (
"743 742 OFFCURVE",
"790 780 OFFCURVE",
"800 829 CURVE SMOOTH",
"811 878 OFFCURVE",
"780 917 OFFCURVE",
"733 917 CURVE SMOOTH",
"685 917 OFFCURVE",
"637 878 OFFCURVE",
"626 829 CURVE SMOOTH",
"616 780 OFFCURVE",
"648 742 OFFCURVE",
"696 742 CURVE SMOOTH"
);
}
);
width = 988;
}
);
leftKerningGroup = W;
note = Wdieresis;
rightKerningGroup = W;
unicode = 1E84;
},
{
glyphname = Wgrave;
lastChange = "2015-12-01 04:41:26 +0000";
layers = (
{
layerId = "EF7A456C-05AE-460A-9046-2BAC18FBC939";
name = Bold;
paths = (
{
closed = 1;
nodes = (
"360 0 LINE",
"512 318 LINE",
"530 0 LINE",
"740 0 LINE",
"1067 699 LINE",
"821 699 LINE",
"678 382 LINE",
"677 699 LINE",
"509 699 LINE",
"364 383 LINE",
"355 699 LINE",
"109 699 LINE",
"140 0 LINE"
);
},
{
closed = 1;
nodes = (
"674 742 LINE",
"644 923 LINE",
"427 923 LINE",
"484 742 LINE"
);
}
);
width = 988;
}
);
leftKerningGroup = W;
note = Wgrave;
rightKerningGroup = W;
unicode = 1E80;
},
{
glyphname = X;
lastChange = "2015-12-01 04:41:27 +0000";
layers = (
{
layerId = "EF7A456C-05AE-460A-9046-2BAC18FBC939";
name = Bold;
paths = (
{
closed = 1;
nodes = (
"232 0 LINE",
"384 163 LINE",
"466 0 LINE",
"737 0 LINE",
"559 353 LINE",
"880 699 LINE",
"609 699 LINE",
"464 542 LINE",
"385 699 LINE",
"115 699 LINE",
"288 353 LINE",
"-39 0 LINE"
);
}
);
width = 806;
}
);
note = X;
unicode = 0058;
},
{
glyphname = Y;
lastChange = "2015-12-01 04:41:27 +0000";
layers = (
{
layerId = "EF7A456C-05AE-460A-9046-2BAC18FBC939";
name = Bold;
paths = (
{
closed = 1;
nodes = (
"451 0 LINE",
"507 267 LINE",
"862 699 LINE",
"601 699 LINE",
"425 478 LINE",
"353 699 LINE",
"109 699 LINE",
"270 267 LINE",
"214 0 LINE"
);
}
);
width = 783;
}
);
leftKerningGroup = Y;
note = Y;
rightKerningGroup = Y;
unicode = 0059;
},
{
glyphname = Yacute;
lastChange = "2015-12-01 04:41:28 +0000";
layers = (
{
layerId = "EF7A456C-05AE-460A-9046-2BAC18FBC939";
name = Bold;
paths = (
{
closed = 1;
nodes = (
"451 0 LINE",
"507 267 LINE",
"862 699 LINE",
"601 699 LINE",
"425 478 LINE",
"353 699 LINE",
"109 699 LINE",
"270 267 LINE",
"214 0 LINE"
);
},
{
closed = 1;
nodes = (
"571 742 LINE",
"704 923 LINE",
"487 923 LINE",
"381 742 LINE"
);
}
);
width = 783;
}
);
leftKerningGroup = Y;
note = Yacute;
rightKerningGroup = Y;
unicode = 00DD;
},
{
glyphname = Ycircumflex;
lastChange = "2015-12-01 04:41:26 +0000";
layers = (
{
layerId = "EF7A456C-05AE-460A-9046-2BAC18FBC939";
name = Bold;
paths = (
{
closed = 1;
nodes = (
"451 0 LINE",
"507 267 LINE",
"862 699 LINE",
"601 699 LINE",
"425 478 LINE",
"353 699 LINE",
"109 699 LINE",
"270 267 LINE",
"214 0 LINE"
);
},
{
closed = 1;
nodes = (
"415 742 LINE",
"491 822 LINE",
"533 742 LINE",
"736 742 LINE",
"611 933 LINE",
"409 933 LINE",
"205 742 LINE"
);
}
);
width = 783;
}
);
leftKerningGroup = Y;
note = Ycircumflex;
rightKerningGroup = Y;
unicode = 0176;
},
{
glyphname = Ydieresis;
lastChange = "2015-12-01 04:47:30 +0000";
layers = (
{
layerId = "EF7A456C-05AE-460A-9046-2BAC18FBC939";
name = Bold;
paths = (
{
closed = 1;
nodes = (
"451 0 LINE",
"507 267 LINE",
"862 699 LINE",
"601 699 LINE",
"425 478 LINE",
"353 699 LINE",
"109 699 LINE",
"270 267 LINE",
"214 0 LINE"
);
},
{
closed = 1;
nodes = (
"424 742 OFFCURVE",
"471 780 OFFCURVE",
"481 829 CURVE SMOOTH",
"492 878 OFFCURVE",
"461 917 OFFCURVE",
"413 917 CURVE SMOOTH",
"367 917 OFFCURVE",
"318 878 OFFCURVE",
"307 829 CURVE SMOOTH",
"297 780 OFFCURVE",
"330 742 OFFCURVE",
"376 742 CURVE SMOOTH"
);
},
{
closed = 1;
nodes = (
"658 742 OFFCURVE",
"705 780 OFFCURVE",
"715 829 CURVE SMOOTH",
"726 878 OFFCURVE",
"695 917 OFFCURVE",
"648 917 CURVE SMOOTH",
"600 917 OFFCURVE",
"552 878 OFFCURVE",
"541 829 CURVE SMOOTH",
"531 780 OFFCURVE",
"563 742 OFFCURVE",
"611 742 CURVE SMOOTH"
);
}
);
width = 783;
}
);
leftKerningGroup = Y;
note = Ydieresis;
rightKerningGroup = Y;
unicode = 0178;
},
{
glyphname = Ydotaccent;
lastChange = "2015-12-01 04:47:22 +0000";
layers = (
{
layerId = "EF7A456C-05AE-460A-9046-2BAC18FBC939";
name = Bold;
paths = (
{
closed = 1;
nodes = (
"451 0 LINE",
"507 267 LINE",
"862 699 LINE",
"601 699 LINE",
"425 478 LINE",
"353 699 LINE",
"109 699 LINE",
"270 267 LINE",
"214 0 LINE"
);
},
{
closed = 1;
nodes = (
"524 742 OFFCURVE",
"571 780 OFFCURVE",
"581 829 CURVE SMOOTH",
"592 878 OFFCURVE",
"561 917 OFFCURVE",
"513 917 CURVE SMOOTH",
"466 917 OFFCURVE",
"417 878 OFFCURVE",
"406 829 CURVE SMOOTH",
"396 780 OFFCURVE",
"429 742 OFFCURVE",
"476 742 CURVE SMOOTH"
);
}
);
width = 783;
}
);
leftKerningGroup = Y;
note = Ydotaccent;
rightKerningGroup = Y;
unicode = 1E8E;
},
{
glyphname = Ydotbelow;
lastChange = "2015-12-01 04:41:26 +0000";
layers = (
{
layerId = "EF7A456C-05AE-460A-9046-2BAC18FBC939";
name = Bold;
paths = (
{
closed = 1;
nodes = (
"451 0 LINE",
"507 267 LINE",
"862 699 LINE",
"601 699 LINE",
"425 478 LINE",
"353 699 LINE",
"109 699 LINE",
"270 267 LINE",
"214 0 LINE"
);
},
{
closed = 1;
nodes = (
"335 -220 OFFCURVE",
"382 -182 OFFCURVE",
"392 -133 CURVE SMOOTH",
"403 -84 OFFCURVE",
"372 -45 OFFCURVE",
"325 -45 CURVE SMOOTH",
"278 -45 OFFCURVE",
"229 -84 OFFCURVE",
"218 -133 CURVE SMOOTH",
"208 -182 OFFCURVE",
"241 -220 OFFCURVE",
"288 -220 CURVE SMOOTH"
);
}
);
width = 783;
}
);
leftKerningGroup = Y;
note = Ydotbelow;
rightKerningGroup = Y;
unicode = 1EF4;
},
{
glyphname = Ygrave;
lastChange = "2015-12-01 04:41:26 +0000";
layers = (
{
layerId = "EF7A456C-05AE-460A-9046-2BAC18FBC939";
name = Bold;
paths = (
{
closed = 1;
nodes = (
"451 0 LINE",
"507 267 LINE",
"862 699 LINE",
"601 699 LINE",
"425 478 LINE",
"353 699 LINE",
"109 699 LINE",
"270 267 LINE",
"214 0 LINE"
);
},
{
closed = 1;
nodes = (
"562 742 LINE",
"532 923 LINE",
"315 923 LINE",
"372 742 LINE"
);
}
);
width = 783;
}
);
leftKerningGroup = Y;
note = Ygrave;
rightKerningGroup = Y;
unicode = 1EF2;
},
{
glyphname = Yhookabove;
lastChange = "2015-12-01 04:41:27 +0000";
layers = (
{
layerId = "EF7A456C-05AE-460A-9046-2BAC18FBC939";
name = Bold;
paths = (
{
closed = 1;
nodes = (
"451 0 LINE",
"507 267 LINE",
"862 699 LINE",
"601 699 LINE",
"425 478 LINE",
"353 699 LINE",
"109 699 LINE",
"270 267 LINE",
"214 0 LINE"
);
},
{
closed = 1;
nodes = (
"564 742 LINE",
"572 782 LINE",
"629 798 OFFCURVE",
"672 825 OFFCURVE",
"684 877 CURVE SMOOTH",
"697 940 OFFCURVE",
"648 981 OFFCURVE",
"529 981 CURVE SMOOTH",
"485 981 OFFCURVE",
"420 972 OFFCURVE",
"384 962 CURVE",
"366 877 LINE",
"379 881 OFFCURVE",
"404 886 OFFCURVE",
"424 886 CURVE SMOOTH",
"465 886 OFFCURVE",
"481 876 OFFCURVE",
"477 854 CURVE",
"471 827 OFFCURVE",
"449 816 OFFCURVE",
"393 816 CURVE",
"377 742 LINE"
);
}
);
width = 783;
}
);
leftKerningGroup = Y;
note = Yhookabove;
rightKerningGroup = Y;
unicode = 1EF6;
},
{
glyphname = Ytilde;
lastChange = "2015-12-01 04:41:26 +0000";
layers = (
{
layerId = "EF7A456C-05AE-460A-9046-2BAC18FBC939";
name = Bold;
paths = (
{
closed = 1;
nodes = (
"451 0 LINE",
"507 267 LINE",
"862 699 LINE",
"601 699 LINE",
"425 478 LINE",
"353 699 LINE",
"109 699 LINE",
"270 267 LINE",
"214 0 LINE"
);
},
{
closed = 1;
nodes = (
"618 742 OFFCURVE",
"658 753 OFFCURVE",
"690 782 CURVE",
"722 935 LINE",
"684 901 OFFCURVE",
"645 886 OFFCURVE",
"603 886 CURVE SMOOTH",
"538 886 OFFCURVE",
"478 936 OFFCURVE",
"410 936 CURVE SMOOTH",
"364 936 OFFCURVE",
"323 925 OFFCURVE",
"291 896 CURVE",
"259 743 LINE",
"297 777 OFFCURVE",
"337 792 OFFCURVE",
"379 792 CURVE SMOOTH",
"443 792 OFFCURVE",
"499 742 OFFCURVE",
"572 742 CURVE SMOOTH"
);
}
);
width = 783;
}
);
leftKerningGroup = Y;
note = Ytilde;
rightKerningGroup = Y;
unicode = 1EF8;
},
{
glyphname = Z;
lastChange = "2015-12-01 04:41:26 +0000";
layers = (
{
layerId = "EF7A456C-05AE-460A-9046-2BAC18FBC939";
name = Bold;
paths = (
{
closed = 1;
nodes = (
"543 0 LINE",
"585 199 LINE",
"294 199 LINE",
"634 546 LINE",
"666 699 LINE",
"115 699 LINE",
"73 500 LINE",
"334 500 LINE",
"-7 152 LINE",
"-39 0 LINE"
);
}
);
width = 612;
}
);
leftKerningGroup = Z;
note = Z;
rightKerningGroup = Z;
unicode = 005A;
},
{
glyphname = Zacute;
lastChange = "2015-12-01 04:41:27 +0000";
layers = (
{
layerId = "EF7A456C-05AE-460A-9046-2BAC18FBC939";
name = Bold;
paths = (
{
closed = 1;
nodes = (
"543 0 LINE",
"585 199 LINE",
"294 199 LINE",
"634 546 LINE",
"666 699 LINE",
"115 699 LINE",
"73 500 LINE",
"334 500 LINE",
"-7 152 LINE",
"-39 0 LINE"
);
},
{
closed = 1;
nodes = (
"456 742 LINE",
"589 923 LINE",
"372 923 LINE",
"266 742 LINE"
);
}
);
width = 612;
}
);
leftKerningGroup = Z;
note = Zacute;
rightKerningGroup = Z;
unicode = 0179;
},
{
glyphname = Zcaron;
lastChange = "2015-12-01 04:41:26 +0000";
layers = (
{
layerId = "EF7A456C-05AE-460A-9046-2BAC18FBC939";
name = Bold;
paths = (
{
closed = 1;
nodes = (
"543 0 LINE",
"585 199 LINE",
"294 199 LINE",
"634 546 LINE",
"666 699 LINE",
"115 699 LINE",
"73 500 LINE",
"334 500 LINE",
"-7 152 LINE",
"-39 0 LINE"
);
},
{
closed = 1;
nodes = (
"482 742 LINE",
"687 933 LINE",
"476 933 LINE",
"400 853 LINE",
"358 933 LINE",
"156 933 LINE",
"280 742 LINE"
);
}
);
width = 612;
}
);
leftKerningGroup = Z;
note = Zcaron;
rightKerningGroup = Z;
unicode = 017D;
},
{
glyphname = Zdotaccent;
lastChange = "2015-12-01 04:41:27 +0000";
layers = (
{
layerId = "EF7A456C-05AE-460A-9046-2BAC18FBC939";
name = Bold;
paths = (
{
closed = 1;
nodes = (
"543 0 LINE",
"585 199 LINE",
"294 199 LINE",
"634 546 LINE",
"666 699 LINE",
"115 699 LINE",
"73 500 LINE",
"334 500 LINE",
"-7 152 LINE",
"-39 0 LINE"
);
},
{
closed = 1;
nodes = (
"429 742 OFFCURVE",
"476 780 OFFCURVE",
"486 829 CURVE SMOOTH",
"497 878 OFFCURVE",
"466 917 OFFCURVE",
"418 917 CURVE SMOOTH",
"371 917 OFFCURVE",
"322 878 OFFCURVE",
"311 829 CURVE SMOOTH",
"301 780 OFFCURVE",
"334 742 OFFCURVE",
"381 742 CURVE SMOOTH"
);
}
);
width = 612;
}
);
leftKerningGroup = Z;
note = Zdotaccent;
rightKerningGroup = Z;
unicode = 017B;
},
{
glyphname = Zdotbelow;
lastChange = "2015-12-01 04:41:27 +0000";
layers = (
{
layerId = "EF7A456C-05AE-460A-9046-2BAC18FBC939";
name = Bold;
paths = (
{
closed = 1;
nodes = (
"543 0 LINE",
"585 199 LINE",
"294 199 LINE",
"634 546 LINE",
"666 699 LINE",
"115 699 LINE",
"73 500 LINE",
"334 500 LINE",
"-7 152 LINE",
"-39 0 LINE"
);
},
{
closed = 1;
nodes = (
"230 -220 OFFCURVE",
"277 -182 OFFCURVE",
"287 -133 CURVE SMOOTH",
"298 -84 OFFCURVE",
"267 -45 OFFCURVE",
"220 -45 CURVE SMOOTH",
"173 -45 OFFCURVE",
"124 -84 OFFCURVE",
"113 -133 CURVE SMOOTH",
"103 -182 OFFCURVE",
"136 -220 OFFCURVE",
"183 -220 CURVE SMOOTH"
);
}
);
width = 612;
}
);
leftKerningGroup = Z;
note = Zdotbelow;
rightKerningGroup = Z;
unicode = 1E92;
},
{
glyphname = a;
lastChange = "2015-12-01 04:41:27 +0000";
layers = (
{
layerId = "EF7A456C-05AE-460A-9046-2BAC18FBC939";
name = Bold;
paths = (
{
closed = 1;
nodes = (
"271 -15 OFFCURVE",
"334 7 OFFCURVE",
"376 40 CURVE",
"368 0 LINE",
"585 0 LINE",
"687 480 LINE",
"462 480 LINE",
"455 450 LINE",
"429 475 OFFCURVE",
"380 495 OFFCURVE",
"322 495 CURVE SMOOTH",
"156 495 OFFCURVE",
"44 391 OFFCURVE",
"12 240 CURVE SMOOTH",
"-21 86 OFFCURVE",
"66 -15 OFFCURVE",
"213 -15 CURVE SMOOTH"
);
},
{
closed = 1;
nodes = (
"251 159 OFFCURVE",
"233 185 OFFCURVE",
"244 239 CURVE SMOOTH",
"256 294 OFFCURVE",
"295 321 OFFCURVE",
"347 321 CURVE SMOOTH",
"382 321 OFFCURVE",
"409 304 OFFCURVE",
"418 276 CURVE",
"403 204 LINE",
"382 176 OFFCURVE",
"347 159 OFFCURVE",
"312 159 CURVE SMOOTH"
);
}
);
width = 669;
}
);
leftKerningGroup = a;
note = a;
rightKerningGroup = a;
unicode = 0061;
},
{
glyphname = aacute;
lastChange = "2015-12-01 04:41:26 +0000";
layers = (
{
layerId = "EF7A456C-05AE-460A-9046-2BAC18FBC939";
name = Bold;
paths = (
{
closed = 1;
nodes = (
"271 -15 OFFCURVE",
"334 7 OFFCURVE",
"376 40 CURVE",
"368 0 LINE",
"585 0 LINE",
"687 480 LINE",
"462 480 LINE",
"455 450 LINE",
"429 475 OFFCURVE",
"380 495 OFFCURVE",
"322 495 CURVE SMOOTH",
"156 495 OFFCURVE",
"44 391 OFFCURVE",
"12 240 CURVE SMOOTH",
"-21 86 OFFCURVE",
"66 -15 OFFCURVE",
"213 -15 CURVE SMOOTH"
);
},
{
closed = 1;
nodes = (
"251 159 OFFCURVE",
"233 185 OFFCURVE",
"244 239 CURVE SMOOTH",
"256 294 OFFCURVE",
"295 321 OFFCURVE",
"347 321 CURVE SMOOTH",
"382 321 OFFCURVE",
"409 304 OFFCURVE",
"418 276 CURVE",
"403 204 LINE",
"382 176 OFFCURVE",
"347 159 OFFCURVE",
"312 159 CURVE SMOOTH"
);
},
{
closed = 1;
nodes = (
"492 517 LINE",
"625 698 LINE",
"408 698 LINE",
"302 517 LINE"
);
}
);
width = 669;
}
);
leftKerningGroup = a;
note = aacute;
rightKerningGroup = a;
unicode = 00E1;
},
{
glyphname = abreve;
lastChange = "2015-12-01 04:41:28 +0000";
layers = (
{
layerId = "EF7A456C-05AE-460A-9046-2BAC18FBC939";
name = Bold;
paths = (
{
closed = 1;
nodes = (
"271 -15 OFFCURVE",
"334 7 OFFCURVE",
"376 40 CURVE",
"368 0 LINE",
"585 0 LINE",
"687 480 LINE",
"462 480 LINE",
"455 450 LINE",
"429 475 OFFCURVE",
"380 495 OFFCURVE",
"322 495 CURVE SMOOTH",
"156 495 OFFCURVE",
"44 391 OFFCURVE",
"12 240 CURVE SMOOTH",
"-21 86 OFFCURVE",
"66 -15 OFFCURVE",
"213 -15 CURVE SMOOTH"
);
},
{
closed = 1;
nodes = (
"251 159 OFFCURVE",
"233 185 OFFCURVE",
"244 239 CURVE SMOOTH",
"256 294 OFFCURVE",
"295 321 OFFCURVE",
"347 321 CURVE SMOOTH",
"382 321 OFFCURVE",
"409 304 OFFCURVE",
"418 276 CURVE",
"403 204 LINE",
"382 176 OFFCURVE",
"347 159 OFFCURVE",
"312 159 CURVE SMOOTH"
);
},
{
closed = 1;
nodes = (
"552 517 OFFCURVE",
"640 591 OFFCURVE",
"665 712 CURVE",
"494 712 LINE",
"486 673 OFFCURVE",
"469 654 OFFCURVE",
"444 654 CURVE SMOOTH",
"419 654 OFFCURVE",
"410 673 OFFCURVE",
"418 712 CURVE",
"256 712 LINE",
"231 591 OFFCURVE",
"287 517 OFFCURVE",
"419 517 CURVE SMOOTH"
);
}
);
width = 669;
}
);
leftKerningGroup = a;
note = abreve;
rightKerningGroup = a;
unicode = 0103;
},
{
glyphname = abreveacute;
lastChange = "2015-12-01 04:41:26 +0000";
layers = (
{
layerId = "EF7A456C-05AE-460A-9046-2BAC18FBC939";
name = Bold;
paths = (
{
closed = 1;
nodes = (
"271 -15 OFFCURVE",
"334 7 OFFCURVE",
"376 40 CURVE",
"368 0 LINE",
"585 0 LINE",
"687 480 LINE",
"462 480 LINE",
"455 450 LINE",
"429 475 OFFCURVE",
"380 495 OFFCURVE",
"322 495 CURVE SMOOTH",
"156 495 OFFCURVE",
"44 391 OFFCURVE",
"12 240 CURVE SMOOTH",
"-21 86 OFFCURVE",
"66 -15 OFFCURVE",
"213 -15 CURVE SMOOTH"
);
},
{
closed = 1;
nodes = (
"251 159 OFFCURVE",
"233 185 OFFCURVE",
"244 239 CURVE SMOOTH",
"256 294 OFFCURVE",
"295 321 OFFCURVE",
"347 321 CURVE SMOOTH",
"382 321 OFFCURVE",
"409 304 OFFCURVE",
"418 276 CURVE",
"403 204 LINE",
"382 176 OFFCURVE",
"347 159 OFFCURVE",
"312 159 CURVE SMOOTH"
);
},
{
closed = 1;
nodes = (
"535 517 OFFCURVE",
"627 579 OFFCURVE",
"648 679 CURVE",
"505 679 LINE",
"498 647 OFFCURVE",
"478 626 OFFCURVE",
"443 626 CURVE SMOOTH",
"408 626 OFFCURVE",
"396 647 OFFCURVE",
"403 679 CURVE",
"269 679 LINE",
"248 579 OFFCURVE",
"315 517 OFFCURVE",
"425 517 CURVE SMOOTH"
);
},
{
closed = 1;
nodes = (
"541 696 LINE",
"649 838 LINE",
"464 838 LINE",
"380 696 LINE"
);
}
);
width = 669;
}
);
leftKerningGroup = a;
note = abreveacute;
rightKerningGroup = a;
unicode = 1EAF;
},
{
glyphname = abrevedotbelow;
lastChange = "2015-12-01 04:47:46 +0000";
layers = (
{
layerId = "EF7A456C-05AE-460A-9046-2BAC18FBC939";
name = Bold;
paths = (
{
closed = 1;
nodes = (
"271 -15 OFFCURVE",
"334 7 OFFCURVE",
"376 40 CURVE",
"368 0 LINE",
"585 0 LINE",
"687 480 LINE",
"462 480 LINE",
"455 450 LINE",
"429 475 OFFCURVE",
"380 495 OFFCURVE",
"322 495 CURVE SMOOTH",
"156 495 OFFCURVE",
"44 391 OFFCURVE",
"12 240 CURVE SMOOTH",
"-21 86 OFFCURVE",
"66 -15 OFFCURVE",
"213 -15 CURVE SMOOTH"
);
},
{
closed = 1;
nodes = (
"251 159 OFFCURVE",
"233 185 OFFCURVE",
"244 239 CURVE SMOOTH",
"256 294 OFFCURVE",
"295 321 OFFCURVE",
"347 321 CURVE SMOOTH",
"382 321 OFFCURVE",
"409 304 OFFCURVE",
"418 276 CURVE",
"403 204 LINE",
"382 176 OFFCURVE",
"347 159 OFFCURVE",
"312 159 CURVE SMOOTH"
);
},
{
closed = 1;
nodes = (
"543 517 OFFCURVE",
"631 591 OFFCURVE",
"656 712 CURVE",
"485 712 LINE",
"477 673 OFFCURVE",
"460 654 OFFCURVE",
"435 654 CURVE SMOOTH",
"410 654 OFFCURVE",
"401 673 OFFCURVE",
"409 712 CURVE",
"247 712 LINE",
"222 591 OFFCURVE",
"278 517 OFFCURVE",
"410 517 CURVE SMOOTH"
);
},
{
closed = 1;
nodes = (
"322 -220 OFFCURVE",
"369 -182 OFFCURVE",
"379 -133 CURVE SMOOTH",
"390 -84 OFFCURVE",
"359 -45 OFFCURVE",
"312 -45 CURVE SMOOTH",
"265 -45 OFFCURVE",
"216 -84 OFFCURVE",
"205 -133 CURVE SMOOTH",
"195 -182 OFFCURVE",
"228 -220 OFFCURVE",
"275 -220 CURVE SMOOTH"
);
}
);
width = 669;
}
);
leftKerningGroup = a;
note = abrevedotbelow;
rightKerningGroup = a;
unicode = 1EB7;
},
{
glyphname = abrevegrave;
lastChange = "2015-12-01 04:41:27 +0000";
layers = (
{
layerId = "EF7A456C-05AE-460A-9046-2BAC18FBC939";
name = Bold;
paths = (
{
closed = 1;
nodes = (
"271 -15 OFFCURVE",
"334 7 OFFCURVE",
"376 40 CURVE",
"368 0 LINE",
"585 0 LINE",
"687 480 LINE",
"462 480 LINE",
"455 450 LINE",
"429 475 OFFCURVE",
"380 495 OFFCURVE",
"322 495 CURVE SMOOTH",
"156 495 OFFCURVE",
"44 391 OFFCURVE",
"12 240 CURVE SMOOTH",
"-21 86 OFFCURVE",
"66 -15 OFFCURVE",
"213 -15 CURVE SMOOTH"
);
},
{
closed = 1;
nodes = (
"251 159 OFFCURVE",
"233 185 OFFCURVE",
"244 239 CURVE SMOOTH",
"256 294 OFFCURVE",
"295 321 OFFCURVE",
"347 321 CURVE SMOOTH",
"382 321 OFFCURVE",
"409 304 OFFCURVE",
"418 276 CURVE",
"403 204 LINE",
"382 176 OFFCURVE",
"347 159 OFFCURVE",
"312 159 CURVE SMOOTH"
);
},
{
closed = 1;
nodes = (
"545 517 OFFCURVE",
"637 579 OFFCURVE",
"658 679 CURVE",
"515 679 LINE",
"508 647 OFFCURVE",
"488 626 OFFCURVE",
"453 626 CURVE SMOOTH",
"418 626 OFFCURVE",
"406 647 OFFCURVE",
"413 679 CURVE",
"279 679 LINE",
"258 579 OFFCURVE",
"325 517 OFFCURVE",
"435 517 CURVE SMOOTH"
);
},
{
closed = 1;
nodes = (
"556 696 LINE",
"532 838 LINE",
"346 838 LINE",
"395 696 LINE"
);
}
);
width = 669;
}
);
leftKerningGroup = a;
note = abrevegrave;
rightKerningGroup = a;
unicode = 1EB1;
},
{
glyphname = abrevehookabove;
lastChange = "2015-12-01 04:41:27 +0000";
layers = (
{
layerId = "EF7A456C-05AE-460A-9046-2BAC18FBC939";
name = Bold;
paths = (
{
closed = 1;
nodes = (
"271 -15 OFFCURVE",
"334 7 OFFCURVE",
"376 40 CURVE",
"368 0 LINE",
"585 0 LINE",
"687 480 LINE",
"462 480 LINE",
"455 450 LINE",
"429 475 OFFCURVE",
"380 495 OFFCURVE",
"322 495 CURVE SMOOTH",
"156 495 OFFCURVE",
"44 391 OFFCURVE",
"12 240 CURVE SMOOTH",
"-21 86 OFFCURVE",
"66 -15 OFFCURVE",
"213 -15 CURVE SMOOTH"
);
},
{
closed = 1;
nodes = (
"251 159 OFFCURVE",
"233 185 OFFCURVE",
"244 239 CURVE SMOOTH",
"256 294 OFFCURVE",
"295 321 OFFCURVE",
"347 321 CURVE SMOOTH",
"382 321 OFFCURVE",
"409 304 OFFCURVE",
"418 276 CURVE",
"403 204 LINE",
"382 176 OFFCURVE",
"347 159 OFFCURVE",
"312 159 CURVE SMOOTH"
);
},
{
closed = 1;
nodes = (
"541 517 OFFCURVE",
"633 579 OFFCURVE",
"654 679 CURVE",
"511 679 LINE",
"504 647 OFFCURVE",
"484 626 OFFCURVE",
"449 626 CURVE SMOOTH",
"414 626 OFFCURVE",
"402 647 OFFCURVE",
"409 679 CURVE",
"275 679 LINE",
"254 579 OFFCURVE",
"321 517 OFFCURVE",
"431 517 CURVE SMOOTH"
);
},
{
closed = 1;
nodes = (
"541 696 LINE",
"545 717 LINE",
"582 729 OFFCURVE",
"609 750 OFFCURVE",
"616 783 CURVE SMOOTH",
"626 829 OFFCURVE",
"594 860 OFFCURVE",
"514 860 CURVE SMOOTH",
"484 860 OFFCURVE",
"437 854 OFFCURVE",
"412 847 CURVE",
"397 778 LINE",
"406 782 OFFCURVE",
"420 784 OFFCURVE",
"430 784 CURVE SMOOTH",
"456 784 OFFCURVE",
"467 776 OFFCURVE",
"464 764 CURVE",
"461 748 OFFCURVE",
"441 743 OFFCURVE",
"414 743 CURVE",
"404 696 LINE"
);
}
);
width = 669;
}
);
leftKerningGroup = a;
note = abrevehookabove;
rightKerningGroup = a;
unicode = 1EB3;
},
{
glyphname = abrevetilde;
lastChange = "2015-12-01 04:41:28 +0000";
layers = (
{
layerId = "EF7A456C-05AE-460A-9046-2BAC18FBC939";
name = Bold;
paths = (
{
closed = 1;
nodes = (
"271 -15 OFFCURVE",
"334 7 OFFCURVE",
"376 40 CURVE",
"368 0 LINE",
"585 0 LINE",
"687 480 LINE",
"462 480 LINE",
"455 450 LINE",
"429 475 OFFCURVE",
"380 495 OFFCURVE",
"322 495 CURVE SMOOTH",
"156 495 OFFCURVE",
"44 391 OFFCURVE",
"12 240 CURVE SMOOTH",
"-21 86 OFFCURVE",
"66 -15 OFFCURVE",
"213 -15 CURVE SMOOTH"
);
},
{
closed = 1;
nodes = (
"251 159 OFFCURVE",
"233 185 OFFCURVE",
"244 239 CURVE SMOOTH",
"256 294 OFFCURVE",
"295 321 OFFCURVE",
"347 321 CURVE SMOOTH",
"382 321 OFFCURVE",
"409 304 OFFCURVE",
"418 276 CURVE",
"403 204 LINE",
"382 176 OFFCURVE",
"347 159 OFFCURVE",
"312 159 CURVE SMOOTH"
);
},
{
closed = 1;
nodes = (
"538 517 OFFCURVE",
"630 579 OFFCURVE",
"651 679 CURVE",
"508 679 LINE",
"501 647 OFFCURVE",
"481 626 OFFCURVE",
"446 626 CURVE SMOOTH",
"411 626 OFFCURVE",
"399 647 OFFCURVE",
"406 679 CURVE",
"272 679 LINE",
"251 579 OFFCURVE",
"318 517 OFFCURVE",
"428 517 CURVE SMOOTH"
);
},
{
closed = 1;
nodes = (
"583 694 OFFCURVE",
"615 703 OFFCURVE",
"641 726 CURVE",
"665 839 LINE",
"634 812 OFFCURVE",
"602 800 OFFCURVE",
"570 800 CURVE SMOOTH",
"517 800 OFFCURVE",
"468 840 OFFCURVE",
"413 840 CURVE SMOOTH",
"376 840 OFFCURVE",
"344 831 OFFCURVE",
"319 808 CURVE",
"295 695 LINE",
"325 722 OFFCURVE",
"358 734 OFFCURVE",
"391 734 CURVE SMOOTH",
"443 734 OFFCURVE",
"488 694 OFFCURVE",
"547 694 CURVE SMOOTH"
);
}
);
width = 669;
}
);
leftKerningGroup = a;
note = abrevetilde;
rightKerningGroup = a;
unicode = 1EB5;
},
{
glyphname = acaron;
lastChange = "2015-12-01 04:47:52 +0000";
layers = (
{
layerId = "EF7A456C-05AE-460A-9046-2BAC18FBC939";
name = Bold;
paths = (
{
closed = 1;
nodes = (
"271 -15 OFFCURVE",
"334 7 OFFCURVE",
"376 40 CURVE",
"368 0 LINE",
"585 0 LINE",
"687 480 LINE",
"462 480 LINE",
"455 450 LINE",
"429 475 OFFCURVE",
"380 495 OFFCURVE",
"322 495 CURVE SMOOTH",
"156 495 OFFCURVE",
"44 391 OFFCURVE",
"12 240 CURVE SMOOTH",
"-21 86 OFFCURVE",
"66 -15 OFFCURVE",
"213 -15 CURVE SMOOTH"
);
},
{
closed = 1;
nodes = (
"251 159 OFFCURVE",
"233 185 OFFCURVE",
"244 239 CURVE SMOOTH",
"256 294 OFFCURVE",
"295 321 OFFCURVE",
"347 321 CURVE SMOOTH",
"382 321 OFFCURVE",
"409 304 OFFCURVE",
"418 276 CURVE",
"403 204 LINE",
"382 176 OFFCURVE",
"347 159 OFFCURVE",
"312 159 CURVE SMOOTH"
);
},
{
closed = 1;
nodes = (
"523 517 LINE",
"728 708 LINE",
"517 708 LINE",
"441 628 LINE",
"399 708 LINE",
"197 708 LINE",
"321 517 LINE"
);
}
);
width = 669;
}
);
leftKerningGroup = a;
note = acaron;
rightKerningGroup = a;
unicode = 01CE;
},
{
glyphname = acircumflex;
lastChange = "2015-12-01 04:41:26 +0000";
layers = (
{
layerId = "EF7A456C-05AE-460A-9046-2BAC18FBC939";
name = Bold;
paths = (
{
closed = 1;
nodes = (
"271 -15 OFFCURVE",
"334 7 OFFCURVE",
"376 40 CURVE",
"368 0 LINE",
"585 0 LINE",
"687 480 LINE",
"462 480 LINE",
"455 450 LINE",
"429 475 OFFCURVE",
"380 495 OFFCURVE",
"322 495 CURVE SMOOTH",
"156 495 OFFCURVE",
"44 391 OFFCURVE",
"12 240 CURVE SMOOTH",
"-21 86 OFFCURVE",
"66 -15 OFFCURVE",
"213 -15 CURVE SMOOTH"
);
},
{
closed = 1;
nodes = (
"251 159 OFFCURVE",
"233 185 OFFCURVE",
"244 239 CURVE SMOOTH",
"256 294 OFFCURVE",
"295 321 OFFCURVE",
"347 321 CURVE SMOOTH",
"382 321 OFFCURVE",
"409 304 OFFCURVE",
"418 276 CURVE",
"403 204 LINE",
"382 176 OFFCURVE",
"347 159 OFFCURVE",
"312 159 CURVE SMOOTH"
);
},
{
closed = 1;
nodes = (
"353 517 LINE",
"429 597 LINE",
"471 517 LINE",
"674 517 LINE",
"549 708 LINE",
"347 708 LINE",
"143 517 LINE"
);
}
);
width = 669;
}
);
leftKerningGroup = a;
note = acircumflex;
rightKerningGroup = a;
unicode = 00E2;
},
{
glyphname = acircumflexacute;
lastChange = "2015-12-01 04:41:27 +0000";
layers = (
{
layerId = "EF7A456C-05AE-460A-9046-2BAC18FBC939";
name = Bold;
paths = (
{
closed = 1;
nodes = (
"271 -15 OFFCURVE",
"334 7 OFFCURVE",
"376 40 CURVE",
"368 0 LINE",
"585 0 LINE",
"687 480 LINE",
"462 480 LINE",
"455 450 LINE",
"429 475 OFFCURVE",
"380 495 OFFCURVE",
"322 495 CURVE SMOOTH",
"156 495 OFFCURVE",
"44 391 OFFCURVE",
"12 240 CURVE SMOOTH",
"-21 86 OFFCURVE",
"66 -15 OFFCURVE",
"213 -15 CURVE SMOOTH"
);
},
{
closed = 1;
nodes = (
"251 159 OFFCURVE",
"233 185 OFFCURVE",
"244 239 CURVE SMOOTH",
"256 294 OFFCURVE",
"295 321 OFFCURVE",
"347 321 CURVE SMOOTH",
"382 321 OFFCURVE",
"409 304 OFFCURVE",
"418 276 CURVE",
"403 204 LINE",
"382 176 OFFCURVE",
"347 159 OFFCURVE",
"312 159 CURVE SMOOTH"
);
},
{
closed = 1;
nodes = (
"377 517 LINE",
"431 567 LINE",
"465 517 LINE",
"656 517 LINE",
"526 678 LINE",
"384 678 LINE",
"185 517 LINE"
);
},
{
closed = 1;
nodes = (
"769 650 LINE",
"885 799 LINE",
"678 799 LINE",
"589 650 LINE"
);
}
);
width = 669;
}
);
leftKerningGroup = a;
note = acircumflexacute;
rightKerningGroup = a;
unicode = 1EA5;
},
{
glyphname = acircumflexdotbelow;
lastChange = "2015-12-01 04:47:58 +0000";
layers = (
{
layerId = "EF7A456C-05AE-460A-9046-2BAC18FBC939";
name = Bold;
paths = (
{
closed = 1;
nodes = (
"271 -15 OFFCURVE",
"334 7 OFFCURVE",
"376 40 CURVE",
"368 0 LINE",
"585 0 LINE",
"687 480 LINE",
"462 480 LINE",
"455 450 LINE",
"429 475 OFFCURVE",
"380 495 OFFCURVE",
"322 495 CURVE SMOOTH",
"156 495 OFFCURVE",
"44 391 OFFCURVE",
"12 240 CURVE SMOOTH",
"-21 86 OFFCURVE",
"66 -15 OFFCURVE",
"213 -15 CURVE SMOOTH"
);
},
{
closed = 1;
nodes = (
"251 159 OFFCURVE",
"233 185 OFFCURVE",
"244 239 CURVE SMOOTH",
"256 294 OFFCURVE",
"295 321 OFFCURVE",
"347 321 CURVE SMOOTH",
"382 321 OFFCURVE",
"409 304 OFFCURVE",
"418 276 CURVE",
"403 204 LINE",
"382 176 OFFCURVE",
"347 159 OFFCURVE",
"312 159 CURVE SMOOTH"
);
},
{
closed = 1;
nodes = (
"343 517 LINE",
"419 597 LINE",
"461 517 LINE",
"664 517 LINE",
"539 708 LINE",
"337 708 LINE",
"133 517 LINE"
);
},
{
closed = 1;
nodes = (
"322 -220 OFFCURVE",
"369 -182 OFFCURVE",
"379 -133 CURVE SMOOTH",
"390 -84 OFFCURVE",
"359 -45 OFFCURVE",
"312 -45 CURVE SMOOTH",
"265 -45 OFFCURVE",
"216 -84 OFFCURVE",
"205 -133 CURVE SMOOTH",
"195 -182 OFFCURVE",
"228 -220 OFFCURVE",
"275 -220 CURVE SMOOTH"
);
}
);
width = 669;
}
);
leftKerningGroup = a;
note = acircumflexdotbelow;
rightKerningGroup = a;
unicode = 1EAD;
},
{
glyphname = acircumflexgrave;
lastChange = "2015-12-01 04:41:26 +0000";
layers = (
{
layerId = "EF7A456C-05AE-460A-9046-2BAC18FBC939";
name = Bold;
paths = (
{
closed = 1;
nodes = (
"271 -15 OFFCURVE",
"334 7 OFFCURVE",
"376 40 CURVE",
"368 0 LINE",
"585 0 LINE",
"687 480 LINE",
"462 480 LINE",
"455 450 LINE",
"429 475 OFFCURVE",
"380 495 OFFCURVE",
"322 495 CURVE SMOOTH",
"156 495 OFFCURVE",
"44 391 OFFCURVE",
"12 240 CURVE SMOOTH",
"-21 86 OFFCURVE",
"66 -15 OFFCURVE",
"213 -15 CURVE SMOOTH"
);
},
{
closed = 1;
nodes = (
"251 159 OFFCURVE",
"233 185 OFFCURVE",
"244 239 CURVE SMOOTH",
"256 294 OFFCURVE",
"295 321 OFFCURVE",
"347 321 CURVE SMOOTH",
"382 321 OFFCURVE",
"409 304 OFFCURVE",
"418 276 CURVE",
"403 204 LINE",
"382 176 OFFCURVE",
"347 159 OFFCURVE",
"312 159 CURVE SMOOTH"
);
},
{
closed = 1;
nodes = (
"313 650 LINE",
"288 799 LINE",
"81 799 LINE",
"133 650 LINE"
);
},
{
closed = 1;
nodes = (
"382 517 LINE",
"436 567 LINE",
"470 517 LINE",
"661 517 LINE",
"530 678 LINE",
"389 678 LINE",
"190 517 LINE"
);
}
);
width = 669;
}
);
leftKerningGroup = a;
note = acircumflexgrave;
rightKerningGroup = a;
unicode = 1EA7;
},
{
glyphname = acircumflexhookabove;
lastChange = "2015-12-01 04:41:27 +0000";
layers = (
{
layerId = "EF7A456C-05AE-460A-9046-2BAC18FBC939";
name = Bold;
paths = (
{
closed = 1;
nodes = (
"271 -15 OFFCURVE",
"334 7 OFFCURVE",
"376 40 CURVE",
"368 0 LINE",
"585 0 LINE",
"687 480 LINE",
"462 480 LINE",
"455 450 LINE",
"429 475 OFFCURVE",
"380 495 OFFCURVE",
"322 495 CURVE SMOOTH",
"156 495 OFFCURVE",
"44 391 OFFCURVE",
"12 240 CURVE SMOOTH",
"-21 86 OFFCURVE",
"66 -15 OFFCURVE",
"213 -15 CURVE SMOOTH"
);
},
{
closed = 1;
nodes = (
"251 159 OFFCURVE",
"233 185 OFFCURVE",
"244 239 CURVE SMOOTH",
"256 294 OFFCURVE",
"295 321 OFFCURVE",
"347 321 CURVE SMOOTH",
"382 321 OFFCURVE",
"409 304 OFFCURVE",
"418 276 CURVE",
"403 204 LINE",
"382 176 OFFCURVE",
"347 159 OFFCURVE",
"312 159 CURVE SMOOTH"
);
},
{
closed = 1;
nodes = (
"373 517 LINE",
"427 567 LINE",
"461 517 LINE",
"652 517 LINE",
"522 678 LINE",
"380 678 LINE",
"181 517 LINE"
);
},
{
closed = 1;
nodes = (
"707 638 LINE",
"712 664 LINE",
"750 676 OFFCURVE",
"777 697 OFFCURVE",
"784 730 CURVE SMOOTH",
"794 776 OFFCURVE",
"761 807 OFFCURVE",
"680 807 CURVE SMOOTH",
"650 807 OFFCURVE",
"604 801 OFFCURVE",
"579 794 CURVE",
"564 725 LINE",
"573 729 OFFCURVE",
"587 731 OFFCURVE",
"597 731 CURVE SMOOTH",
"623 731 OFFCURVE",
"634 723 OFFCURVE",
"631 711 CURVE",
"628 695 OFFCURVE",
"608 690 OFFCURVE",
"581 690 CURVE",
"570 638 LINE"
);
}
);
width = 669;
}
);
leftKerningGroup = a;
note = acircumflexhookabove;
rightKerningGroup = a;
unicode = 1EA9;
},
{
glyphname = acircumflextilde;
lastChange = "2015-12-01 04:41:26 +0000";
layers = (
{
layerId = "EF7A456C-05AE-460A-9046-2BAC18FBC939";
name = Bold;
paths = (
{
closed = 1;
nodes = (
"271 -15 OFFCURVE",
"334 7 OFFCURVE",
"376 40 CURVE",
"368 0 LINE",
"585 0 LINE",
"687 480 LINE",
"462 480 LINE",
"455 450 LINE",
"429 475 OFFCURVE",
"380 495 OFFCURVE",
"322 495 CURVE SMOOTH",
"156 495 OFFCURVE",
"44 391 OFFCURVE",
"12 240 CURVE SMOOTH",
"-21 86 OFFCURVE",
"66 -15 OFFCURVE",
"213 -15 CURVE SMOOTH"
);
},
{
closed = 1;
nodes = (
"251 159 OFFCURVE",
"233 185 OFFCURVE",
"244 239 CURVE SMOOTH",
"256 294 OFFCURVE",
"295 321 OFFCURVE",
"347 321 CURVE SMOOTH",
"382 321 OFFCURVE",
"409 304 OFFCURVE",
"418 276 CURVE",
"403 204 LINE",
"382 176 OFFCURVE",
"347 159 OFFCURVE",
"312 159 CURVE SMOOTH"
);
},
{
closed = 1;
nodes = (
"378 517 LINE",
"432 567 LINE",
"466 517 LINE",
"657 517 LINE",
"527 678 LINE",
"385 678 LINE",
"186 517 LINE"
);
},
{
closed = 1;
nodes = (
"588 689 OFFCURVE",
"620 698 OFFCURVE",
"646 721 CURVE",
"670 834 LINE",
"639 807 OFFCURVE",
"607 795 OFFCURVE",
"574 795 CURVE SMOOTH",
"522 795 OFFCURVE",
"473 835 OFFCURVE",
"418 835 CURVE SMOOTH",
"381 835 OFFCURVE",
"349 826 OFFCURVE",
"324 803 CURVE",
"300 690 LINE",
"330 717 OFFCURVE",
"363 729 OFFCURVE",
"396 729 CURVE SMOOTH",
"448 729 OFFCURVE",
"493 689 OFFCURVE",
"551 689 CURVE SMOOTH"
);
}
);
width = 669;
}
);
leftKerningGroup = a;
note = acircumflextilde;
rightKerningGroup = a;
unicode = 1EAB;
},
{
glyphname = adieresis;
lastChange = "2015-12-01 04:41:26 +0000";
layers = (
{
layerId = "EF7A456C-05AE-460A-9046-2BAC18FBC939";
name = Bold;
paths = (
{
closed = 1;
nodes = (
"271 -15 OFFCURVE",
"334 7 OFFCURVE",
"376 40 CURVE",
"368 0 LINE",
"585 0 LINE",
"687 480 LINE",
"462 480 LINE",
"455 450 LINE",
"429 475 OFFCURVE",
"380 495 OFFCURVE",
"322 495 CURVE SMOOTH",
"156 495 OFFCURVE",
"44 391 OFFCURVE",
"12 240 CURVE SMOOTH",
"-21 86 OFFCURVE",
"66 -15 OFFCURVE",
"213 -15 CURVE SMOOTH"
);
},
{
closed = 1;
nodes = (
"251 159 OFFCURVE",
"233 185 OFFCURVE",
"244 239 CURVE SMOOTH",
"256 294 OFFCURVE",
"295 321 OFFCURVE",
"347 321 CURVE SMOOTH",
"382 321 OFFCURVE",
"409 304 OFFCURVE",
"418 276 CURVE",
"403 204 LINE",
"382 176 OFFCURVE",
"347 159 OFFCURVE",
"312 159 CURVE SMOOTH"
);
},
{
closed = 1;
nodes = (
"339 517 OFFCURVE",
"386 555 OFFCURVE",
"396 604 CURVE SMOOTH",
"407 653 OFFCURVE",
"376 692 OFFCURVE",
"328 692 CURVE SMOOTH",
"282 692 OFFCURVE",
"233 653 OFFCURVE",
"222 604 CURVE SMOOTH",
"212 555 OFFCURVE",
"245 517 OFFCURVE",
"291 517 CURVE SMOOTH"
);
},
{
closed = 1;
nodes = (
"573 517 OFFCURVE",
"620 555 OFFCURVE",
"630 604 CURVE SMOOTH",
"641 653 OFFCURVE",
"610 692 OFFCURVE",
"563 692 CURVE SMOOTH",
"515 692 OFFCURVE",
"467 653 OFFCURVE",
"456 604 CURVE SMOOTH",
"446 555 OFFCURVE",
"478 517 OFFCURVE",
"526 517 CURVE SMOOTH"
);
}
);
width = 669;
}
);
leftKerningGroup = a;
note = adieresis;
rightKerningGroup = a;
unicode = 00E4;
},
{
glyphname = adotbelow;
lastChange = "2015-12-01 04:48:04 +0000";
layers = (
{
layerId = "EF7A456C-05AE-460A-9046-2BAC18FBC939";
name = Bold;
paths = (
{
closed = 1;
nodes = (
"271 -15 OFFCURVE",
"334 7 OFFCURVE",
"376 40 CURVE",
"368 0 LINE",
"585 0 LINE",
"687 480 LINE",
"462 480 LINE",
"455 450 LINE",
"429 475 OFFCURVE",
"380 495 OFFCURVE",
"322 495 CURVE SMOOTH",
"156 495 OFFCURVE",
"44 391 OFFCURVE",
"12 240 CURVE SMOOTH",
"-21 86 OFFCURVE",
"66 -15 OFFCURVE",
"213 -15 CURVE SMOOTH"
);
},
{
closed = 1;
nodes = (
"251 159 OFFCURVE",
"233 185 OFFCURVE",
"244 239 CURVE SMOOTH",
"256 294 OFFCURVE",
"295 321 OFFCURVE",
"347 321 CURVE SMOOTH",
"382 321 OFFCURVE",
"409 304 OFFCURVE",
"418 276 CURVE",
"403 204 LINE",
"382 176 OFFCURVE",
"347 159 OFFCURVE",
"312 159 CURVE SMOOTH"
);
},
{
closed = 1;
nodes = (
"322 -220 OFFCURVE",
"369 -182 OFFCURVE",
"379 -133 CURVE SMOOTH",
"390 -84 OFFCURVE",
"359 -45 OFFCURVE",
"312 -45 CURVE SMOOTH",
"265 -45 OFFCURVE",
"216 -84 OFFCURVE",
"205 -133 CURVE SMOOTH",
"195 -182 OFFCURVE",
"228 -220 OFFCURVE",
"275 -220 CURVE SMOOTH"
);
}
);
width = 669;
}
);
leftKerningGroup = a;
note = adotbelow;
rightKerningGroup = a;
unicode = 1EA1;
},
{
glyphname = agrave;
lastChange = "2015-12-01 04:41:26 +0000";
layers = (
{
layerId = "EF7A456C-05AE-460A-9046-2BAC18FBC939";
name = Bold;
paths = (
{
closed = 1;
nodes = (
"271 -15 OFFCURVE",
"334 7 OFFCURVE",
"376 40 CURVE",
"368 0 LINE",
"585 0 LINE",
"687 480 LINE",
"462 480 LINE",
"455 450 LINE",
"429 475 OFFCURVE",
"380 495 OFFCURVE",
"322 495 CURVE SMOOTH",
"156 495 OFFCURVE",
"44 391 OFFCURVE",
"12 240 CURVE SMOOTH",
"-21 86 OFFCURVE",
"66 -15 OFFCURVE",
"213 -15 CURVE SMOOTH"
);
},
{
closed = 1;
nodes = (
"251 159 OFFCURVE",
"233 185 OFFCURVE",
"244 239 CURVE SMOOTH",
"256 294 OFFCURVE",
"295 321 OFFCURVE",
"347 321 CURVE SMOOTH",
"382 321 OFFCURVE",
"409 304 OFFCURVE",
"418 276 CURVE",
"403 204 LINE",
"382 176 OFFCURVE",
"347 159 OFFCURVE",
"312 159 CURVE SMOOTH"
);
},
{
closed = 1;
nodes = (
"541 517 LINE",
"511 698 LINE",
"294 698 LINE",
"351 517 LINE"
);
}
);
width = 669;
}
);
leftKerningGroup = a;
note = agrave;
rightKerningGroup = a;
unicode = 00E0;
},
{
glyphname = ahookabove;
lastChange = "2015-12-01 04:41:27 +0000";
layers = (
{
layerId = "EF7A456C-05AE-460A-9046-2BAC18FBC939";
name = Bold;
paths = (
{
closed = 1;
nodes = (
"271 -15 OFFCURVE",
"334 7 OFFCURVE",
"376 40 CURVE",
"368 0 LINE",
"585 0 LINE",
"687 480 LINE",
"462 480 LINE",
"455 450 LINE",
"429 475 OFFCURVE",
"380 495 OFFCURVE",
"322 495 CURVE SMOOTH",
"156 495 OFFCURVE",
"44 391 OFFCURVE",
"12 240 CURVE SMOOTH",
"-21 86 OFFCURVE",
"66 -15 OFFCURVE",
"213 -15 CURVE SMOOTH"
);
},
{
closed = 1;
nodes = (
"251 159 OFFCURVE",
"233 185 OFFCURVE",
"244 239 CURVE SMOOTH",
"256 294 OFFCURVE",
"295 321 OFFCURVE",
"347 321 CURVE SMOOTH",
"382 321 OFFCURVE",
"409 304 OFFCURVE",
"418 276 CURVE",
"403 204 LINE",
"382 176 OFFCURVE",
"347 159 OFFCURVE",
"312 159 CURVE SMOOTH"
);
},
{
closed = 1;
nodes = (
"499 517 LINE",
"507 557 LINE",
"564 573 OFFCURVE",
"607 600 OFFCURVE",
"619 652 CURVE SMOOTH",
"632 715 OFFCURVE",
"583 756 OFFCURVE",
"464 756 CURVE SMOOTH",
"420 756 OFFCURVE",
"355 747 OFFCURVE",
"319 737 CURVE",
"301 652 LINE",
"314 656 OFFCURVE",
"339 661 OFFCURVE",
"359 661 CURVE SMOOTH",
"400 661 OFFCURVE",
"416 651 OFFCURVE",
"412 629 CURVE",
"406 602 OFFCURVE",
"384 591 OFFCURVE",
"328 591 CURVE",
"312 517 LINE"
);
}
);
width = 669;
}
);
leftKerningGroup = a;
note = ahookabove;
rightKerningGroup = a;
unicode = 1EA3;
},
{
glyphname = "alpha-latin";
lastChange = "2015-12-01 04:41:28 +0000";
layers = (
{
layerId = "EF7A456C-05AE-460A-9046-2BAC18FBC939";
name = Bold;
paths = (
{
closed = 1;
nodes = (
"271 -15 OFFCURVE",
"334 7 OFFCURVE",
"376 40 CURVE",
"368 0 LINE",
"585 0 LINE",
"687 480 LINE",
"462 480 LINE",
"455 450 LINE",
"429 475 OFFCURVE",
"380 495 OFFCURVE",
"322 495 CURVE SMOOTH",
"156 495 OFFCURVE",
"44 391 OFFCURVE",
"12 240 CURVE SMOOTH",
"-21 86 OFFCURVE",
"66 -15 OFFCURVE",
"213 -15 CURVE SMOOTH"
);
},
{
closed = 1;
nodes = (
"251 159 OFFCURVE",
"233 185 OFFCURVE",
"244 239 CURVE SMOOTH",
"256 294 OFFCURVE",
"295 321 OFFCURVE",
"347 321 CURVE SMOOTH",
"382 321 OFFCURVE",
"409 304 OFFCURVE",
"418 276 CURVE",
"403 204 LINE",
"382 176 OFFCURVE",
"347 159 OFFCURVE",
"312 159 CURVE SMOOTH"
);
}
);
width = 674;
}
);
leftKerningGroup = a;
note = ascript;
rightKerningGroup = a;
unicode = 0251;
},
{
glyphname = amacron;
lastChange = "2015-12-01 04:41:26 +0000";
layers = (
{
layerId = "EF7A456C-05AE-460A-9046-2BAC18FBC939";
name = Bold;
paths = (
{
closed = 1;
nodes = (
"271 -15 OFFCURVE",
"334 7 OFFCURVE",
"376 40 CURVE",
"368 0 LINE",
"585 0 LINE",
"687 480 LINE",
"462 480 LINE",
"455 450 LINE",
"429 475 OFFCURVE",
"380 495 OFFCURVE",
"322 495 CURVE SMOOTH",
"156 495 OFFCURVE",
"44 391 OFFCURVE",
"12 240 CURVE SMOOTH",
"-21 86 OFFCURVE",
"66 -15 OFFCURVE",
"213 -15 CURVE SMOOTH"
);
},
{
closed = 1;
nodes = (
"251 159 OFFCURVE",
"233 185 OFFCURVE",
"244 239 CURVE SMOOTH",
"256 294 OFFCURVE",
"295 321 OFFCURVE",
"347 321 CURVE SMOOTH",
"382 321 OFFCURVE",
"409 304 OFFCURVE",
"418 276 CURVE",
"403 204 LINE",
"382 176 OFFCURVE",
"347 159 OFFCURVE",
"312 159 CURVE SMOOTH"
);
},
{
closed = 1;
nodes = (
"579 517 LINE",
"610 660 LINE",
"244 660 LINE",
"213 517 LINE"
);
}
);
width = 669;
}
);
leftKerningGroup = a;
note = amacron;
rightKerningGroup = a;
unicode = 0101;
},
{
glyphname = aogonek;
lastChange = "2015-12-01 04:41:26 +0000";
layers = (
{
layerId = "EF7A456C-05AE-460A-9046-2BAC18FBC939";
name = Bold;
paths = (
{
closed = 1;
nodes = (
"452 -219 OFFCURVE",
"504 -212 OFFCURVE",
"538 -202 CURVE",
"563 -82 LINE",
"545 -90 OFFCURVE",
"527 -95 OFFCURVE",
"511 -95 CURVE SMOOTH",
"494 -95 OFFCURVE",
"487 -86 OFFCURVE",
"490 -72 CURVE SMOOTH",
"496 -45 OFFCURVE",
"522 -26 OFFCURVE",
"585 0 CURVE",
"687 480 LINE",
"462 480 LINE",
"455 450 LINE",
"429 475 OFFCURVE",
"380 495 OFFCURVE",
"322 495 CURVE SMOOTH",
"156 495 OFFCURVE",
"44 391 OFFCURVE",
"12 240 CURVE SMOOTH",
"-21 86 OFFCURVE",
"66 -15 OFFCURVE",
"213 -15 CURVE SMOOTH",
"271 -15 OFFCURVE",
"334 7 OFFCURVE",
"376 40 CURVE",
"368 0 LINE",
"336 -25 OFFCURVE",
"298 -63 OFFCURVE",
"287 -116 CURVE SMOOTH",
"271 -189 OFFCURVE",
"325 -219 OFFCURVE",
"407 -219 CURVE SMOOTH"
);
},
{
closed = 1;
nodes = (
"251 159 OFFCURVE",
"233 185 OFFCURVE",
"244 239 CURVE SMOOTH",
"256 294 OFFCURVE",
"295 321 OFFCURVE",
"347 321 CURVE SMOOTH",
"382 321 OFFCURVE",
"409 304 OFFCURVE",
"418 276 CURVE",
"403 204 LINE",
"382 176 OFFCURVE",
"347 159 OFFCURVE",
"312 159 CURVE SMOOTH"
);
}
);
width = 669;
}
);
leftKerningGroup = a;
note = aogonek;
rightKerningGroup = a;
unicode = 0105;
},
{
glyphname = aring;
lastChange = "2015-12-01 04:41:27 +0000";
layers = (
{
layerId = "EF7A456C-05AE-460A-9046-2BAC18FBC939";
name = Bold;
paths = (
{
closed = 1;
nodes = (
"271 -15 OFFCURVE",
"334 7 OFFCURVE",
"376 40 CURVE",
"368 0 LINE",
"585 0 LINE",
"687 480 LINE",
"462 480 LINE",
"455 450 LINE",
"429 475 OFFCURVE",
"380 495 OFFCURVE",
"322 495 CURVE SMOOTH",
"156 495 OFFCURVE",
"44 391 OFFCURVE",
"12 240 CURVE SMOOTH",
"-21 86 OFFCURVE",
"66 -15 OFFCURVE",
"213 -15 CURVE SMOOTH"
);
},
{
closed = 1;
nodes = (
"251 159 OFFCURVE",
"233 185 OFFCURVE",
"244 239 CURVE SMOOTH",
"256 294 OFFCURVE",
"295 321 OFFCURVE",
"347 321 CURVE SMOOTH",
"382 321 OFFCURVE",
"409 304 OFFCURVE",
"418 276 CURVE",
"403 204 LINE",
"382 176 OFFCURVE",
"347 159 OFFCURVE",
"312 159 CURVE SMOOTH"
);
},
{
closed = 1;
nodes = (
"500 517 OFFCURVE",
"578 584 OFFCURVE",
"597 671 CURVE SMOOTH",
"615 758 OFFCURVE",
"559 825 OFFCURVE",
"472 825 CURVE SMOOTH",
"380 825 OFFCURVE",
"299 758 OFFCURVE",
"282 671 CURVE SMOOTH",
"263 584 OFFCURVE",
"319 517 OFFCURVE",
"406 517 CURVE SMOOTH"
);
},
{
closed = 1;
nodes = (
"403 630 OFFCURVE",
"393 648 OFFCURVE",
"398 671 CURVE SMOOTH",
"403 694 OFFCURVE",
"425 712 OFFCURVE",
"448 712 CURVE SMOOTH",
"476 712 OFFCURVE",
"485 694 OFFCURVE",
"480 671 CURVE SMOOTH",
"475 648 OFFCURVE",
"453 630 OFFCURVE",
"430 630 CURVE SMOOTH"
);
}
);
width = 669;
}
);
leftKerningGroup = a;
note = aring;
rightKerningGroup = a;
unicode = 00E5;
},
